SplineFontDB: 3.2
FontName: OMORI_GAME
FullName: OMORI_GAME
FamilyName: OMORI_GAME
Weight: Book
Copyright: OMORI (c) OMOCAT, LLC
Version: 2.9 12/8/13
ItalicAngle: 0
UnderlinePosition: -150
UnderlineWidth: 100
Ascent: 768
Descent: 256
InvalidEm: 0
sfntRevision: 0x0002e666
LayerCount: 2
Layer: 0 1 "Arri+AOgA-re" 1
Layer: 1 1 "Avant" 0
XUID: [1021 181 458779533 22648]
StyleMap: 0x0040
FSType: 0
OS2Version: 1
OS2_WeightWidthSlopeOnly: 0
OS2_UseTypoMetrics: 0
CreationTime: 1376294072
ModificationTime: 1678376237
PfmFamily: 81
TTFWeight: 400
TTFWidth: 5
LineGap: 128
VLineGap: 0
Panose: 0 0 4 0 0 0 0 0 0 0
OS2TypoAscent: 768
OS2TypoAOffset: 0
OS2TypoDescent: -256
OS2TypoDOffset: 0
OS2TypoLinegap: 0
OS2WinAscent: 735
OS2WinAOffset: 0
OS2WinDescent: 273
OS2WinDOffset: 0
HheadAscent: 768
HheadAOffset: 0
HheadDescent: -256
HheadDOffset: 0
OS2SubXSize: 700
OS2SubYSize: 650
OS2SubXOff: 0
OS2SubYOff: 143
OS2SupXSize: 700
OS2SupYSize: 650
OS2SupXOff: 0
OS2SupYOff: 453
OS2StrikeYSize: 50
OS2StrikeYPos: 259
OS2Vendor: 'Alts'
OS2CodePages: 00000001.00000000
OS2UnicodeRanges: 00000000.00000000.00000000.00000000
MarkAttachClasses: 1
DEI: 91125
ShortTable: cvt  2
  34
  648
EndShort
ShortTable: maxp 16
  1
  0
  306
  230
  5
  183
  3
  2
  8
  64
  10
  0
  64
  46
  2
  1
EndShort
LangName: 9217 "" "" "Book"
LangName: 7169 "" "" "Book"
LangName: 10241 "" "" "Book"
LangName: 8193 "" "" "Book"
LangName: 6145 "" "" "Book"
LangName: 4097 "" "" "Book"
LangName: 12289 "" "" "Book"
LangName: 13313 "" "" "Book"
LangName: 11265 "" "" "Book"
LangName: 2049 "" "" "Book"
LangName: 16385 "" "" "Book"
LangName: 15361 "" "" "Book"
LangName: 14337 "" "" "Book"
LangName: 1025 "" "" "Book"
LangName: 3073 "" "" "Book"
LangName: 5121
LangName: 1033 "" "" "Regular" "OMORI_GAME" "" "Version 2.9 12/8/13"
GaspTable: 1 65535 2 0
Encoding: Custom
UnicodeInterp: none
NameList: AGL For New Fonts
DisplaySize: -48
AntiAlias: 1
FitToEm: 0
WinInfo: 0 38 14
BeginPrivate: 0
EndPrivate
BeginChars: 324 307

StartChar: .notdef
Encoding: 17 -1 0
Width: 374
GlyphClass: 1
Flags: W
LayerCount: 2
Fore
SplineSet
34 0 m 1,0,-1
 34 682 l 1,1,-1
 306 682 l 1,2,-1
 306 0 l 1,3,-1
 34 0 l 1,0,-1
68 34 m 1,4,-1
 272 34 l 1,5,-1
 272 648 l 1,6,-1
 68 648 l 1,7,-1
 68 34 l 1,4,-1
EndSplineSet
Validated: 1
EndChar

StartChar: exclam
Encoding: 21 33 4
Width: 127
GlyphClass: 2
Flags: W
LayerCount: 2
Fore
SplineSet
73 42 m 1,0,-1
 52 42 l 1,1,-1
 37 47 l 1,2,-1
 32 62 l 1,3,-1
 32 104 l 1,4,-1
 37 120 l 1,5,-1
 52 126 l 1,6,-1
 73 126 l 1,7,-1
 89 120 l 1,8,-1
 95 104 l 1,9,-1
 95 62 l 1,10,-1
 89 47 l 1,11,-1
 73 42 l 1,0,-1
73 210 m 1,12,-1
 58 215 l 1,13,-1
 53 230 l 1,14,-1
 53 503 l 1,15,-1
 58 519 l 1,16,-1
 73 525 l 1,17,-1
 89 519 l 1,18,-1
 95 503 l 1,19,-1
 95 230 l 1,20,-1
 89 215 l 1,21,-1
 73 210 l 1,12,-1
EndSplineSet
Validated: 1
EndChar

StartChar: quotedbl
Encoding: 22 34 5
Width: 232
GlyphClass: 2
Flags: W
LayerCount: 2
Fore
SplineSet
184 456 m 1,0,-1
 179 440 l 1,1,-1
 179 419 l 1,2,-1
 173 404 l 1,3,-1
 163 393 l 1,4,-1
 152 383 l 1,5,-1
 136 378 l 1,6,-1
 121 383 l 1,7,-1
 116 398 l 1,8,-1
 116 419 l 1,9,-1
 121 435 l 1,10,-1
 131 446 l 1,11,-1
 137 461 l 1,12,-1
 142 477 l 1,13,-1
 152 488 l 1,14,-1
 163 498 l 1,15,-1
 178 504 l 1,16,-1
 194 498 l 1,17,-1
 200 482 l 1,18,-1
 194 467 l 1,19,-1
 184 456 l 1,0,-1
79 393 m 1,20,-1
 68 383 l 1,21,-1
 52 378 l 1,22,-1
 37 383 l 1,23,-1
 32 398 l 1,24,-1
 32 419 l 1,25,-1
 37 435 l 1,26,-1
 47 446 l 1,27,-1
 53 461 l 1,28,-1
 53 482 l 1,29,-1
 58 498 l 1,30,-1
 73 504 l 1,31,-1
 89 498 l 1,32,-1
 95 482 l 1,33,-1
 95 419 l 1,34,-1
 89 404 l 1,35,-1
 79 393 l 1,20,-1
EndSplineSet
Validated: 1
EndChar

StartChar: numbersign
Encoding: 23 35 6
Width: 505
GlyphClass: 2
Flags: W
LayerCount: 2
Fore
SplineSet
451 378 m 1,0,-1
 367 378 l 1,1,-1
 352 372 l 1,2,-1
 347 356 l 1,3,-1
 347 314 l 1,4,-1
 352 299 l 1,5,-1
 367 294 l 1,6,-1
 383 299 l 1,7,-1
 394 309 l 1,8,-1
 409 315 l 1,9,-1
 430 315 l 1,10,-1
 446 309 l 1,11,-1
 452 293 l 1,12,-1
 446 278 l 1,13,-1
 430 273 l 1,14,-1
 415 267 l 1,15,-1
 404 257 l 1,16,-1
 388 252 l 1,17,-1
 346 252 l 1,18,-1
 331 246 l 1,19,-1
 326 230 l 1,20,-1
 326 125 l 1,21,-1
 320 110 l 1,22,-1
 310 99 l 1,23,-1
 305 83 l 1,24,-1
 299 68 l 1,25,-1
 283 63 l 1,26,-1
 268 68 l 1,27,-1
 263 83 l 1,28,-1
 263 104 l 1,29,-1
 268 120 l 1,30,-1
 278 131 l 1,31,-1
 284 146 l 1,32,-1
 284 209 l 1,33,-1
 278 225 l 1,34,-1
 262 231 l 1,35,-1
 220 231 l 1,36,-1
 205 225 l 1,37,-1
 200 209 l 1,38,-1
 200 188 l 1,39,-1
 194 173 l 1,40,-1
 184 162 l 1,41,-1
 179 146 l 1,42,-1
 179 104 l 1,43,-1
 173 89 l 1,44,-1
 157 84 l 1,45,-1
 142 89 l 1,46,-1
 137 104 l 1,47,-1
 137 167 l 1,48,-1
 142 183 l 1,49,-1
 152 194 l 1,50,-1
 152 204 l 1,51,-1
 136 210 l 1,52,-1
 52 210 l 1,53,-1
 37 215 l 1,54,-1
 32 230 l 1,55,-1
 37 246 l 1,56,-1
 52 252 l 1,57,-1
 136 252 l 1,58,-1
 152 257 l 1,59,-1
 158 272 l 1,60,-1
 158 314 l 1,61,-1
 152 330 l 1,62,-1
 136 336 l 1,63,-1
 94 336 l 1,64,-1
 79 330 l 1,65,-1
 68 320 l 1,66,-1
 52 315 l 1,67,-1
 37 320 l 1,68,-1
 32 335 l 1,69,-1
 32 356 l 1,70,-1
 37 372 l 1,71,-1
 52 378 l 1,72,-1
 157 378 l 1,73,-1
 173 383 l 1,74,-1
 179 398 l 1,75,-1
 179 524 l 1,76,-1
 184 540 l 1,77,-1
 199 546 l 1,78,-1
 215 540 l 1,79,-1
 221 524 l 1,80,-1
 221 419 l 1,81,-1
 226 404 l 1,82,-1
 241 399 l 1,83,-1
 283 399 l 1,84,-1
 299 404 l 1,85,-1
 305 419 l 1,86,-1
 305 524 l 1,87,-1
 310 540 l 1,88,-1
 320 551 l 1,89,-1
 331 561 l 1,90,-1
 346 567 l 1,91,-1
 362 561 l 1,92,-1
 368 545 l 1,93,-1
 362 530 l 1,94,-1
 352 519 l 1,95,-1
 347 503 l 1,96,-1
 347 440 l 1,97,-1
 352 425 l 1,98,-1
 367 420 l 1,99,-1
 451 420 l 1,100,-1
 467 414 l 1,101,-1
 473 398 l 1,102,-1
 467 383 l 1,103,-1
 451 378 l 1,0,-1
305 314 m 1,104,-1
 305 335 l 1,105,-1
 299 351 l 1,106,-1
 283 357 l 1,107,-1
 241 357 l 1,108,-1
 226 351 l 1,109,-1
 215 341 l 1,110,-1
 205 330 l 1,111,-1
 200 314 l 1,112,-1
 200 293 l 1,113,-1
 205 278 l 1,114,-1
 220 273 l 1,115,-1
 262 273 l 1,116,-1
 278 278 l 1,117,-1
 289 288 l 1,118,-1
 299 299 l 1,119,-1
 305 314 l 1,104,-1
EndSplineSet
Validated: 1
EndChar

StartChar: dollar
Encoding: 24 36 7
Width: 484
GlyphClass: 2
Flags: W
LayerCount: 2
Fore
SplineSet
436 162 m 1,0,-1
 431 146 l 1,1,-1
 425 131 l 1,2,-1
 409 126 l 1,3,-1
 394 120 l 1,4,-1
 383 110 l 1,5,-1
 367 105 l 1,6,-1
 262 105 l 1,7,-1
 247 99 l 1,8,-1
 242 83 l 1,9,-1
 242 20 l 1,10,-1
 236 5 l 1,11,-1
 220 0 l 1,12,-1
 205 5 l 1,13,-1
 200 20 l 1,14,-1
 200 83 l 1,15,-1
 194 99 l 1,16,-1
 178 105 l 1,17,-1
 157 105 l 1,18,-1
 142 110 l 1,19,-1
 131 120 l 1,20,-1
 115 126 l 1,21,-1
 94 126 l 1,22,-1
 79 131 l 1,23,-1
 68 141 l 1,24,-1
 52 147 l 1,25,-1
 37 152 l 1,26,-1
 32 167 l 1,27,-1
 32 188 l 1,28,-1
 37 204 l 1,29,-1
 52 210 l 1,30,-1
 68 204 l 1,31,-1
 79 194 l 1,32,-1
 94 189 l 1,33,-1
 110 183 l 1,34,-1
 121 173 l 1,35,-1
 136 168 l 1,36,-1
 152 162 l 1,37,-1
 163 152 l 1,38,-1
 178 147 l 1,39,-1
 194 152 l 1,40,-1
 200 167 l 1,41,-1
 200 251 l 1,42,-1
 194 267 l 1,43,-1
 178 273 l 1,44,-1
 163 278 l 1,45,-1
 152 288 l 1,46,-1
 136 294 l 1,47,-1
 94 294 l 1,48,-1
 79 299 l 1,49,-1
 68 309 l 1,50,-1
 58 320 l 1,51,-1
 53 335 l 1,52,-1
 53 377 l 1,53,-1
 58 393 l 1,54,-1
 68 404 l 1,55,-1
 79 414 l 1,56,-1
 89 425 l 1,57,-1
 100 435 l 1,58,-1
 110 446 l 1,59,-1
 121 456 l 1,60,-1
 136 462 l 1,61,-1
 152 467 l 1,62,-1
 163 477 l 1,63,-1
 173 488 l 1,64,-1
 179 503 l 1,65,-1
 179 545 l 1,66,-1
 184 561 l 1,67,-1
 199 567 l 1,68,-1
 215 561 l 1,69,-1
 221 545 l 1,70,-1
 221 503 l 1,71,-1
 226 488 l 1,72,-1
 241 483 l 1,73,-1
 304 483 l 1,74,-1
 320 477 l 1,75,-1
 331 467 l 1,76,-1
 346 462 l 1,77,-1
 367 462 l 1,78,-1
 383 456 l 1,79,-1
 394 446 l 1,80,-1
 404 435 l 1,81,-1
 415 425 l 1,82,-1
 425 414 l 1,83,-1
 436 404 l 1,84,-1
 446 393 l 1,85,-1
 452 377 l 1,86,-1
 452 335 l 1,87,-1
 446 320 l 1,88,-1
 430 315 l 1,89,-1
 415 320 l 1,90,-1
 410 335 l 1,91,-1
 404 351 l 1,92,-1
 394 362 l 1,93,-1
 383 372 l 1,94,-1
 373 383 l 1,95,-1
 362 393 l 1,96,-1
 352 404 l 1,97,-1
 341 414 l 1,98,-1
 325 420 l 1,99,-1
 310 425 l 1,100,-1
 299 435 l 1,101,-1
 283 441 l 1,102,-1
 262 441 l 1,103,-1
 247 435 l 1,104,-1
 242 419 l 1,105,-1
 242 335 l 1,106,-1
 247 320 l 1,107,-1
 262 315 l 1,108,-1
 304 315 l 1,109,-1
 320 309 l 1,110,-1
 331 299 l 1,111,-1
 346 294 l 1,112,-1
 362 288 l 1,113,-1
 373 278 l 1,114,-1
 388 273 l 1,115,-1
 404 267 l 1,116,-1
 415 257 l 1,117,-1
 430 252 l 1,118,-1
 446 246 l 1,119,-1
 452 230 l 1,120,-1
 452 188 l 1,121,-1
 446 173 l 1,122,-1
 436 162 l 1,0,-1
389 188 m 1,123,-1
 389 209 l 1,124,-1
 383 225 l 1,125,-1
 367 231 l 1,126,-1
 352 236 l 1,127,-1
 341 246 l 1,128,-1
 325 252 l 1,129,-1
 304 252 l 1,130,-1
 289 257 l 1,131,-1
 278 267 l 1,132,-1
 262 273 l 1,133,-1
 247 267 l 1,134,-1
 242 251 l 1,135,-1
 242 167 l 1,136,-1
 247 152 l 1,137,-1
 262 147 l 1,138,-1
 346 147 l 1,139,-1
 362 152 l 1,140,-1
 373 162 l 1,141,-1
 383 173 l 1,142,-1
 389 188 l 1,123,-1
200 335 m 1,143,-1
 200 398 l 1,144,-1
 194 414 l 1,145,-1
 178 420 l 1,146,-1
 157 420 l 1,147,-1
 142 414 l 1,148,-1
 131 404 l 1,149,-1
 121 393 l 1,150,-1
 110 383 l 1,151,-1
 100 372 l 1,152,-1
 100 362 l 1,153,-1
 110 351 l 1,154,-1
 121 341 l 1,155,-1
 136 336 l 1,156,-1
 157 336 l 1,157,-1
 173 330 l 1,158,-1
 184 320 l 1,159,-1
 194 320 l 1,160,-1
 200 335 l 1,143,-1
EndSplineSet
Validated: 1
EndChar

StartChar: percent
Encoding: 25 37 8
Width: 463
GlyphClass: 2
Flags: W
LayerCount: 2
Fore
SplineSet
415 141 m 1,0,-1
 404 131 l 1,1,-1
 394 120 l 1,2,-1
 383 110 l 1,3,-1
 367 105 l 1,4,-1
 262 105 l 1,5,-1
 247 110 l 1,6,-1
 242 125 l 1,7,-1
 242 188 l 1,8,-1
 247 204 l 1,9,-1
 257 215 l 1,10,-1
 268 225 l 1,11,-1
 278 236 l 1,12,-1
 284 251 l 1,13,-1
 289 267 l 1,14,-1
 304 273 l 1,15,-1
 388 273 l 1,16,-1
 404 267 l 1,17,-1
 415 257 l 1,18,-1
 425 246 l 1,19,-1
 431 230 l 1,20,-1
 431 167 l 1,21,-1
 425 152 l 1,22,-1
 415 141 l 1,0,-1
383 204 m 1,23,-1
 373 215 l 1,24,-1
 362 225 l 1,25,-1
 352 225 l 1,26,-1
 341 215 l 1,27,-1
 331 204 l 1,28,-1
 320 194 l 1,29,-1
 310 183 l 1,30,-1
 299 173 l 1,31,-1
 289 162 l 1,32,-1
 289 152 l 1,33,-1
 304 147 l 1,34,-1
 325 147 l 1,35,-1
 341 152 l 1,36,-1
 352 162 l 1,37,-1
 362 173 l 1,38,-1
 373 183 l 1,39,-1
 383 194 l 1,40,-1
 383 204 l 1,23,-1
394 435 m 1,41,-1
 383 425 l 1,42,-1
 373 414 l 1,43,-1
 368 398 l 1,44,-1
 362 383 l 1,45,-1
 346 378 l 1,46,-1
 331 372 l 1,47,-1
 320 362 l 1,48,-1
 310 351 l 1,49,-1
 305 335 l 1,50,-1
 299 320 l 1,51,-1
 289 309 l 1,52,-1
 278 299 l 1,53,-1
 268 288 l 1,54,-1
 257 278 l 1,55,-1
 247 267 l 1,56,-1
 236 257 l 1,57,-1
 226 246 l 1,58,-1
 215 236 l 1,59,-1
 205 225 l 1,60,-1
 194 215 l 1,61,-1
 184 204 l 1,62,-1
 173 194 l 1,63,-1
 163 183 l 1,64,-1
 158 167 l 1,65,-1
 152 152 l 1,66,-1
 142 141 l 1,67,-1
 137 125 l 1,68,-1
 131 110 l 1,69,-1
 115 105 l 1,70,-1
 94 105 l 1,71,-1
 79 110 l 1,72,-1
 74 125 l 1,73,-1
 79 141 l 1,74,-1
 89 152 l 1,75,-1
 100 162 l 1,76,-1
 110 173 l 1,77,-1
 116 188 l 1,78,-1
 121 204 l 1,79,-1
 131 215 l 1,80,-1
 142 225 l 1,81,-1
 152 236 l 1,82,-1
 163 246 l 1,83,-1
 173 257 l 1,84,-1
 184 267 l 1,85,-1
 194 278 l 1,86,-1
 205 288 l 1,87,-1
 215 299 l 1,88,-1
 226 309 l 1,89,-1
 236 320 l 1,90,-1
 247 330 l 1,91,-1
 257 341 l 1,92,-1
 263 356 l 1,93,-1
 268 372 l 1,94,-1
 278 383 l 1,95,-1
 289 393 l 1,96,-1
 299 404 l 1,97,-1
 310 414 l 1,98,-1
 320 425 l 1,99,-1
 331 435 l 1,100,-1
 341 446 l 1,101,-1
 352 456 l 1,102,-1
 362 467 l 1,103,-1
 373 477 l 1,104,-1
 388 483 l 1,105,-1
 404 477 l 1,106,-1
 410 461 l 1,107,-1
 404 446 l 1,108,-1
 394 435 l 1,41,-1
163 351 m 1,109,-1
 152 341 l 1,110,-1
 136 336 l 1,111,-1
 73 336 l 1,112,-1
 58 341 l 1,113,-1
 47 351 l 1,114,-1
 37 362 l 1,115,-1
 32 377 l 1,116,-1
 32 440 l 1,117,-1
 37 456 l 1,118,-1
 47 467 l 1,119,-1
 58 477 l 1,120,-1
 73 483 l 1,121,-1
 136 483 l 1,122,-1
 152 477 l 1,123,-1
 163 467 l 1,124,-1
 173 456 l 1,125,-1
 179 440 l 1,126,-1
 179 377 l 1,127,-1
 173 362 l 1,128,-1
 163 351 l 1,109,-1
137 398 m 1,129,-1
 131 414 l 1,130,-1
 121 425 l 1,131,-1
 110 435 l 1,132,-1
 100 435 l 1,133,-1
 89 425 l 1,134,-1
 79 414 l 1,135,-1
 74 398 l 1,136,-1
 79 383 l 1,137,-1
 94 378 l 1,138,-1
 115 378 l 1,139,-1
 131 383 l 1,140,-1
 137 398 l 1,129,-1
EndSplineSet
Validated: 1
EndChar

StartChar: ampersand
Encoding: 26 38 9
Width: 463
GlyphClass: 2
Flags: W
LayerCount: 2
Fore
SplineSet
409 84 m 1,0,-1
 388 84 l 1,1,-1
 373 89 l 1,2,-1
 362 99 l 1,3,-1
 352 110 l 1,4,-1
 341 120 l 1,5,-1
 325 126 l 1,6,-1
 310 120 l 1,7,-1
 299 110 l 1,8,-1
 289 99 l 1,9,-1
 278 89 l 1,10,-1
 262 84 l 1,11,-1
 247 78 l 1,12,-1
 236 68 l 1,13,-1
 220 63 l 1,14,-1
 205 57 l 1,15,-1
 194 47 l 1,16,-1
 178 42 l 1,17,-1
 73 42 l 1,18,-1
 58 47 l 1,19,-1
 47 57 l 1,20,-1
 37 68 l 1,21,-1
 32 83 l 1,22,-1
 32 188 l 1,23,-1
 37 204 l 1,24,-1
 47 215 l 1,25,-1
 58 225 l 1,26,-1
 68 236 l 1,27,-1
 79 246 l 1,28,-1
 89 257 l 1,29,-1
 100 267 l 1,30,-1
 110 278 l 1,31,-1
 110 288 l 1,32,-1
 100 299 l 1,33,-1
 89 309 l 1,34,-1
 79 320 l 1,35,-1
 68 330 l 1,36,-1
 58 341 l 1,37,-1
 53 356 l 1,38,-1
 47 372 l 1,39,-1
 37 383 l 1,40,-1
 32 398 l 1,41,-1
 32 419 l 1,42,-1
 37 435 l 1,43,-1
 47 446 l 1,44,-1
 53 461 l 1,45,-1
 58 477 l 1,46,-1
 68 488 l 1,47,-1
 79 498 l 1,48,-1
 94 504 l 1,49,-1
 110 509 l 1,50,-1
 121 519 l 1,51,-1
 136 525 l 1,52,-1
 220 525 l 1,53,-1
 236 519 l 1,54,-1
 247 509 l 1,55,-1
 257 498 l 1,56,-1
 263 482 l 1,57,-1
 268 467 l 1,58,-1
 278 456 l 1,59,-1
 284 440 l 1,60,-1
 284 377 l 1,61,-1
 278 362 l 1,62,-1
 268 351 l 1,63,-1
 263 335 l 1,64,-1
 257 320 l 1,65,-1
 247 309 l 1,66,-1
 236 299 l 1,67,-1
 220 294 l 1,68,-1
 205 288 l 1,69,-1
 205 278 l 1,70,-1
 215 267 l 1,71,-1
 226 257 l 1,72,-1
 241 252 l 1,73,-1
 257 246 l 1,74,-1
 263 230 l 1,75,-1
 268 215 l 1,76,-1
 283 210 l 1,77,-1
 299 204 l 1,78,-1
 310 194 l 1,79,-1
 325 189 l 1,80,-1
 341 194 l 1,81,-1
 352 204 l 1,82,-1
 362 215 l 1,83,-1
 373 225 l 1,84,-1
 388 231 l 1,85,-1
 409 231 l 1,86,-1
 425 225 l 1,87,-1
 431 209 l 1,88,-1
 425 194 l 1,89,-1
 409 189 l 1,90,-1
 394 183 l 1,91,-1
 383 173 l 1,92,-1
 373 162 l 1,93,-1
 373 152 l 1,94,-1
 388 147 l 1,95,-1
 404 141 l 1,96,-1
 415 131 l 1,97,-1
 425 120 l 1,98,-1
 431 104 l 1,99,-1
 425 89 l 1,100,-1
 409 84 l 1,0,-1
278 162 m 1,101,-1
 262 168 l 1,102,-1
 247 173 l 1,103,-1
 236 183 l 1,104,-1
 226 194 l 1,105,-1
 215 204 l 1,106,-1
 205 215 l 1,107,-1
 194 225 l 1,108,-1
 184 236 l 1,109,-1
 173 246 l 1,110,-1
 163 246 l 1,111,-1
 152 236 l 1,112,-1
 136 231 l 1,113,-1
 121 225 l 1,114,-1
 116 209 l 1,115,-1
 110 194 l 1,116,-1
 100 183 l 1,117,-1
 89 173 l 1,118,-1
 79 162 l 1,119,-1
 74 146 l 1,120,-1
 74 125 l 1,121,-1
 79 110 l 1,122,-1
 89 99 l 1,123,-1
 100 89 l 1,124,-1
 115 84 l 1,125,-1
 157 84 l 1,126,-1
 173 89 l 1,127,-1
 184 99 l 1,128,-1
 199 105 l 1,129,-1
 215 110 l 1,130,-1
 226 120 l 1,131,-1
 241 126 l 1,132,-1
 257 131 l 1,133,-1
 268 141 l 1,134,-1
 278 152 l 1,135,-1
 278 162 l 1,101,-1
236 414 m 1,136,-1
 226 425 l 1,137,-1
 221 440 l 1,138,-1
 221 461 l 1,139,-1
 215 477 l 1,140,-1
 199 483 l 1,141,-1
 157 483 l 1,142,-1
 142 477 l 1,143,-1
 131 467 l 1,144,-1
 121 456 l 1,145,-1
 110 446 l 1,146,-1
 100 435 l 1,147,-1
 95 419 l 1,148,-1
 95 398 l 1,149,-1
 100 383 l 1,150,-1
 110 372 l 1,151,-1
 121 362 l 1,152,-1
 131 351 l 1,153,-1
 137 335 l 1,154,-1
 142 320 l 1,155,-1
 157 315 l 1,156,-1
 173 320 l 1,157,-1
 184 330 l 1,158,-1
 194 341 l 1,159,-1
 205 351 l 1,160,-1
 215 362 l 1,161,-1
 221 377 l 1,162,-1
 226 393 l 1,163,-1
 236 404 l 1,164,-1
 236 414 l 1,136,-1
EndSplineSet
Validated: 1
EndChar

StartChar: quotesingle
Encoding: 27 39 10
Width: 127
GlyphClass: 2
Flags: W
LayerCount: 2
Fore
SplineSet
79 372 m 1,0,-1
 68 362 l 1,1,-1
 52 357 l 1,2,-1
 37 362 l 1,3,-1
 32 377 l 1,4,-1
 37 393 l 1,5,-1
 47 404 l 1,6,-1
 53 419 l 1,7,-1
 53 461 l 1,8,-1
 58 477 l 1,9,-1
 73 483 l 1,10,-1
 89 477 l 1,11,-1
 95 461 l 1,12,-1
 95 398 l 1,13,-1
 89 383 l 1,14,-1
 79 372 l 1,0,-1
EndSplineSet
Validated: 1
EndChar

StartChar: parenleft
Encoding: 28 40 11
Width: 253
GlyphClass: 2
Flags: W
LayerCount: 2
Fore
SplineSet
205 540 m 1,0,-1
 194 530 l 1,1,-1
 184 519 l 1,2,-1
 173 509 l 1,3,-1
 163 498 l 1,4,-1
 158 482 l 1,5,-1
 152 467 l 1,6,-1
 142 456 l 1,7,-1
 131 446 l 1,8,-1
 121 435 l 1,9,-1
 110 425 l 1,10,-1
 100 414 l 1,11,-1
 95 398 l 1,12,-1
 95 314 l 1,13,-1
 89 299 l 1,14,-1
 79 288 l 1,15,-1
 74 272 l 1,16,-1
 74 230 l 1,17,-1
 79 215 l 1,18,-1
 89 204 l 1,19,-1
 95 188 l 1,20,-1
 95 146 l 1,21,-1
 100 131 l 1,22,-1
 110 120 l 1,23,-1
 121 110 l 1,24,-1
 131 99 l 1,25,-1
 137 83 l 1,26,-1
 142 68 l 1,27,-1
 157 63 l 1,28,-1
 173 57 l 1,29,-1
 184 47 l 1,30,-1
 194 36 l 1,31,-1
 200 20 l 1,32,-1
 194 5 l 1,33,-1
 178 0 l 1,34,-1
 163 5 l 1,35,-1
 152 15 l 1,36,-1
 136 21 l 1,37,-1
 121 26 l 1,38,-1
 110 36 l 1,39,-1
 100 47 l 1,40,-1
 89 57 l 1,41,-1
 79 68 l 1,42,-1
 74 83 l 1,43,-1
 68 99 l 1,44,-1
 58 110 l 1,45,-1
 53 125 l 1,46,-1
 53 167 l 1,47,-1
 47 183 l 1,48,-1
 37 194 l 1,49,-1
 32 209 l 1,50,-1
 32 293 l 1,51,-1
 37 309 l 1,52,-1
 47 320 l 1,53,-1
 53 335 l 1,54,-1
 53 419 l 1,55,-1
 58 435 l 1,56,-1
 68 446 l 1,57,-1
 79 456 l 1,58,-1
 89 467 l 1,59,-1
 95 482 l 1,60,-1
 100 498 l 1,61,-1
 110 509 l 1,62,-1
 121 519 l 1,63,-1
 131 530 l 1,64,-1
 137 545 l 1,65,-1
 142 561 l 1,66,-1
 152 572 l 1,67,-1
 163 582 l 1,68,-1
 178 588 l 1,69,-1
 199 588 l 1,70,-1
 215 582 l 1,71,-1
 221 566 l 1,72,-1
 215 551 l 1,73,-1
 205 540 l 1,0,-1
EndSplineSet
Validated: 1
EndChar

StartChar: parenright
Encoding: 29 41 12
Width: 253
GlyphClass: 2
Flags: W
LayerCount: 2
Fore
SplineSet
205 141 m 1,0,-1
 200 125 l 1,1,-1
 200 104 l 1,2,-1
 194 89 l 1,3,-1
 184 78 l 1,4,-1
 179 62 l 1,5,-1
 173 47 l 1,6,-1
 163 36 l 1,7,-1
 152 26 l 1,8,-1
 142 15 l 1,9,-1
 131 5 l 1,10,-1
 121 -6 l 1,11,-1
 110 -16 l 1,12,-1
 94 -21 l 1,13,-1
 52 -21 l 1,14,-1
 37 -16 l 1,15,-1
 32 -1 l 1,16,-1
 37 15 l 1,17,-1
 52 21 l 1,18,-1
 73 21 l 1,19,-1
 89 26 l 1,20,-1
 100 36 l 1,21,-1
 110 47 l 1,22,-1
 116 62 l 1,23,-1
 121 78 l 1,24,-1
 131 89 l 1,25,-1
 142 99 l 1,26,-1
 152 110 l 1,27,-1
 158 125 l 1,28,-1
 158 146 l 1,29,-1
 163 162 l 1,30,-1
 173 173 l 1,31,-1
 179 188 l 1,32,-1
 179 314 l 1,33,-1
 173 330 l 1,34,-1
 163 341 l 1,35,-1
 158 356 l 1,36,-1
 158 419 l 1,37,-1
 152 435 l 1,38,-1
 142 446 l 1,39,-1
 131 456 l 1,40,-1
 121 467 l 1,41,-1
 116 482 l 1,42,-1
 110 498 l 1,43,-1
 100 509 l 1,44,-1
 89 519 l 1,45,-1
 79 530 l 1,46,-1
 68 540 l 1,47,-1
 58 551 l 1,48,-1
 53 566 l 1,49,-1
 58 582 l 1,50,-1
 73 588 l 1,51,-1
 94 588 l 1,52,-1
 110 582 l 1,53,-1
 121 572 l 1,54,-1
 131 561 l 1,55,-1
 137 545 l 1,56,-1
 142 530 l 1,57,-1
 152 519 l 1,58,-1
 158 503 l 1,59,-1
 163 488 l 1,60,-1
 173 477 l 1,61,-1
 184 467 l 1,62,-1
 194 456 l 1,63,-1
 200 440 l 1,64,-1
 200 377 l 1,65,-1
 205 362 l 1,66,-1
 215 351 l 1,67,-1
 221 335 l 1,68,-1
 221 167 l 1,69,-1
 215 152 l 1,70,-1
 205 141 l 1,0,-1
EndSplineSet
Validated: 1
EndChar

StartChar: asterisk
Encoding: 30 42 13
Width: 442
GlyphClass: 2
Flags: W
LayerCount: 2
Fore
SplineSet
383 378 m 1,0,-1
 368 372 l 1,1,-1
 357 362 l 1,2,-1
 347 351 l 1,3,-1
 342 335 l 1,4,-1
 336 320 l 1,5,-1
 320 315 l 1,6,-1
 305 309 l 1,7,-1
 300 293 l 1,8,-1
 300 272 l 1,9,-1
 305 257 l 1,10,-1
 315 246 l 1,11,-1
 321 230 l 1,12,-1
 321 209 l 1,13,-1
 326 194 l 1,14,-1
 336 183 l 1,15,-1
 342 167 l 1,16,-1
 336 152 l 1,17,-1
 326 152 l 1,18,-1
 315 162 l 1,19,-1
 305 173 l 1,20,-1
 294 183 l 1,21,-1
 278 189 l 1,22,-1
 263 194 l 1,23,-1
 252 204 l 1,24,-1
 242 215 l 1,25,-1
 231 225 l 1,26,-1
 215 231 l 1,27,-1
 194 231 l 1,28,-1
 179 225 l 1,29,-1
 168 215 l 1,30,-1
 158 204 l 1,31,-1
 147 194 l 1,32,-1
 137 183 l 1,33,-1
 126 173 l 1,34,-1
 116 162 l 1,35,-1
 105 152 l 1,36,-1
 95 152 l 1,37,-1
 90 167 l 1,38,-1
 90 188 l 1,39,-1
 95 204 l 1,40,-1
 105 215 l 1,41,-1
 111 230 l 1,42,-1
 116 246 l 1,43,-1
 126 257 l 1,44,-1
 126 267 l 1,45,-1
 116 278 l 1,46,-1
 105 288 l 1,47,-1
 95 299 l 1,48,-1
 84 309 l 1,49,-1
 68 315 l 1,50,-1
 53 320 l 1,51,-1
 42 330 l 1,52,-1
 32 341 l 1,53,-1
 32 351 l 1,54,-1
 47 357 l 1,55,-1
 63 362 l 1,56,-1
 74 372 l 1,57,-1
 89 378 l 1,58,-1
 152 378 l 1,59,-1
 168 383 l 1,60,-1
 174 398 l 1,61,-1
 174 419 l 1,62,-1
 179 435 l 1,63,-1
 189 446 l 1,64,-1
 200 456 l 1,65,-1
 210 467 l 1,66,-1
 216 482 l 1,67,-1
 221 498 l 1,68,-1
 231 498 l 1,69,-1
 237 482 l 1,70,-1
 237 461 l 1,71,-1
 242 446 l 1,72,-1
 252 435 l 1,73,-1
 258 419 l 1,74,-1
 263 404 l 1,75,-1
 278 399 l 1,76,-1
 383 399 l 1,77,-1
 399 393 l 1,78,-1
 399 383 l 1,79,-1
 383 378 l 1,0,-1
EndSplineSet
Validated: 1
EndChar

StartChar: plus
Encoding: 31 43 14
Width: 358
GlyphClass: 2
Flags: W
LayerCount: 2
Fore
SplineSet
304 315 m 1,0,-1
 220 315 l 1,1,-1
 205 309 l 1,2,-1
 200 293 l 1,3,-1
 200 209 l 1,4,-1
 194 194 l 1,5,-1
 178 189 l 1,6,-1
 163 194 l 1,7,-1
 158 209 l 1,8,-1
 158 293 l 1,9,-1
 152 309 l 1,10,-1
 136 315 l 1,11,-1
 52 315 l 1,12,-1
 37 320 l 1,13,-1
 32 335 l 1,14,-1
 37 351 l 1,15,-1
 52 357 l 1,16,-1
 136 357 l 1,17,-1
 152 362 l 1,18,-1
 158 377 l 1,19,-1
 158 440 l 1,20,-1
 163 456 l 1,21,-1
 178 462 l 1,22,-1
 194 456 l 1,23,-1
 200 440 l 1,24,-1
 200 377 l 1,25,-1
 205 362 l 1,26,-1
 220 357 l 1,27,-1
 304 357 l 1,28,-1
 320 351 l 1,29,-1
 326 335 l 1,30,-1
 320 320 l 1,31,-1
 304 315 l 1,0,-1
EndSplineSet
Validated: 1
EndChar

StartChar: comma
Encoding: 32 44 15
Width: 169
GlyphClass: 2
Flags: W
LayerCount: 2
Fore
SplineSet
115 -126 m 1,0,-1
 94 -126 l 1,1,-1
 79 -121 l 1,2,-1
 74 -106 l 1,3,-1
 79 -90 l 1,4,-1
 89 -79 l 1,5,-1
 95 -64 l 1,6,-1
 89 -48 l 1,7,-1
 73 -42 l 1,8,-1
 52 -42 l 1,9,-1
 37 -37 l 1,10,-1
 32 -22 l 1,11,-1
 32 20 l 1,12,-1
 37 36 l 1,13,-1
 52 42 l 1,14,-1
 94 42 l 1,15,-1
 110 36 l 1,16,-1
 121 26 l 1,17,-1
 131 15 l 1,18,-1
 137 -1 l 1,19,-1
 137 -106 l 1,20,-1
 131 -121 l 1,21,-1
 115 -126 l 1,0,-1
EndSplineSet
Validated: 1
EndChar

StartChar: hyphen
Encoding: 33 45 16
Width: 295
GlyphClass: 2
Flags: W
LayerCount: 2
Fore
SplineSet
241 126 m 1,0,-1
 52 126 l 1,1,-1
 37 131 l 1,2,-1
 32 146 l 1,3,-1
 37 162 l 1,4,-1
 52 168 l 1,5,-1
 241 168 l 1,6,-1
 257 162 l 1,7,-1
 263 146 l 1,8,-1
 257 131 l 1,9,-1
 241 126 l 1,0,-1
EndSplineSet
Validated: 1
EndChar

StartChar: period
Encoding: 34 46 17
Width: 148
GlyphClass: 2
Flags: W
LayerCount: 2
Fore
SplineSet
100 -27 m 1,0,-1
 89 -37 l 1,1,-1
 73 -42 l 1,2,-1
 52 -42 l 1,3,-1
 37 -37 l 1,4,-1
 32 -22 l 1,5,-1
 32 20 l 1,6,-1
 37 36 l 1,7,-1
 52 42 l 1,8,-1
 73 42 l 1,9,-1
 89 36 l 1,10,-1
 100 26 l 1,11,-1
 110 15 l 1,12,-1
 116 -1 l 1,13,-1
 110 -16 l 1,14,-1
 100 -27 l 1,0,-1
EndSplineSet
Validated: 1
EndChar

StartChar: slash
Encoding: 35 47 18
Width: 295
GlyphClass: 2
Flags: W
LayerCount: 2
Fore
SplineSet
247 456 m 1,0,-1
 242 440 l 1,1,-1
 236 425 l 1,2,-1
 226 414 l 1,3,-1
 221 398 l 1,4,-1
 221 356 l 1,5,-1
 215 341 l 1,6,-1
 205 330 l 1,7,-1
 200 314 l 1,8,-1
 200 293 l 1,9,-1
 194 278 l 1,10,-1
 184 267 l 1,11,-1
 179 251 l 1,12,-1
 173 236 l 1,13,-1
 163 225 l 1,14,-1
 158 209 l 1,15,-1
 158 188 l 1,16,-1
 152 173 l 1,17,-1
 142 162 l 1,18,-1
 137 146 l 1,19,-1
 131 131 l 1,20,-1
 121 120 l 1,21,-1
 116 104 l 1,22,-1
 116 83 l 1,23,-1
 110 68 l 1,24,-1
 100 57 l 1,25,-1
 95 41 l 1,26,-1
 89 26 l 1,27,-1
 79 15 l 1,28,-1
 74 -1 l 1,29,-1
 68 -16 l 1,30,-1
 52 -21 l 1,31,-1
 37 -16 l 1,32,-1
 32 -1 l 1,33,-1
 32 20 l 1,34,-1
 37 36 l 1,35,-1
 47 47 l 1,36,-1
 53 62 l 1,37,-1
 58 78 l 1,38,-1
 68 89 l 1,39,-1
 74 104 l 1,40,-1
 74 125 l 1,41,-1
 79 141 l 1,42,-1
 89 152 l 1,43,-1
 95 167 l 1,44,-1
 100 183 l 1,45,-1
 110 194 l 1,46,-1
 116 209 l 1,47,-1
 116 230 l 1,48,-1
 121 246 l 1,49,-1
 131 257 l 1,50,-1
 137 272 l 1,51,-1
 142 288 l 1,52,-1
 152 299 l 1,53,-1
 158 314 l 1,54,-1
 158 335 l 1,55,-1
 163 351 l 1,56,-1
 173 362 l 1,57,-1
 179 377 l 1,58,-1
 179 419 l 1,59,-1
 184 435 l 1,60,-1
 194 446 l 1,61,-1
 200 461 l 1,62,-1
 200 482 l 1,63,-1
 205 498 l 1,64,-1
 215 509 l 1,65,-1
 221 524 l 1,66,-1
 226 540 l 1,67,-1
 241 546 l 1,68,-1
 257 540 l 1,69,-1
 263 524 l 1,70,-1
 263 482 l 1,71,-1
 257 467 l 1,72,-1
 247 456 l 1,0,-1
EndSplineSet
Validated: 1
EndChar

StartChar: zero
Encoding: 36 48 19
Width: 442
GlyphClass: 2
Flags: W
LayerCount: 2
Fore
SplineSet
394 57 m 1,0,-1
 389 41 l 1,1,-1
 383 26 l 1,2,-1
 373 15 l 1,3,-1
 362 5 l 1,4,-1
 352 -6 l 1,5,-1
 341 -16 l 1,6,-1
 331 -27 l 1,7,-1
 320 -37 l 1,8,-1
 304 -42 l 1,9,-1
 178 -42 l 1,10,-1
 163 -37 l 1,11,-1
 152 -27 l 1,12,-1
 136 -21 l 1,13,-1
 121 -16 l 1,14,-1
 110 -6 l 1,15,-1
 100 5 l 1,16,-1
 89 15 l 1,17,-1
 79 26 l 1,18,-1
 74 41 l 1,19,-1
 68 57 l 1,20,-1
 58 68 l 1,21,-1
 47 78 l 1,22,-1
 37 89 l 1,23,-1
 32 104 l 1,24,-1
 32 188 l 1,25,-1
 37 204 l 1,26,-1
 47 215 l 1,27,-1
 53 230 l 1,28,-1
 53 251 l 1,29,-1
 58 267 l 1,30,-1
 68 278 l 1,31,-1
 74 293 l 1,32,-1
 79 309 l 1,33,-1
 89 320 l 1,34,-1
 100 330 l 1,35,-1
 110 341 l 1,36,-1
 121 351 l 1,37,-1
 131 362 l 1,38,-1
 142 372 l 1,39,-1
 152 383 l 1,40,-1
 163 393 l 1,41,-1
 178 399 l 1,42,-1
 304 399 l 1,43,-1
 320 393 l 1,44,-1
 331 383 l 1,45,-1
 341 372 l 1,46,-1
 352 362 l 1,47,-1
 362 351 l 1,48,-1
 373 341 l 1,49,-1
 383 330 l 1,50,-1
 389 314 l 1,51,-1
 394 299 l 1,52,-1
 404 288 l 1,53,-1
 410 272 l 1,54,-1
 410 83 l 1,55,-1
 404 68 l 1,56,-1
 394 57 l 1,0,-1
368 104 m 1,57,-1
 368 230 l 1,58,-1
 362 246 l 1,59,-1
 352 246 l 1,60,-1
 341 236 l 1,61,-1
 331 225 l 1,62,-1
 320 215 l 1,63,-1
 310 204 l 1,64,-1
 299 194 l 1,65,-1
 289 183 l 1,66,-1
 284 167 l 1,67,-1
 278 152 l 1,68,-1
 268 141 l 1,69,-1
 257 131 l 1,70,-1
 247 120 l 1,71,-1
 236 110 l 1,72,-1
 220 105 l 1,73,-1
 205 99 l 1,74,-1
 200 83 l 1,75,-1
 194 68 l 1,76,-1
 184 57 l 1,77,-1
 173 47 l 1,78,-1
 163 36 l 1,79,-1
 163 26 l 1,80,-1
 173 15 l 1,81,-1
 184 5 l 1,82,-1
 199 0 l 1,83,-1
 283 0 l 1,84,-1
 299 5 l 1,85,-1
 310 15 l 1,86,-1
 320 26 l 1,87,-1
 331 36 l 1,88,-1
 341 47 l 1,89,-1
 347 62 l 1,90,-1
 352 78 l 1,91,-1
 362 89 l 1,92,-1
 368 104 l 1,57,-1
326 314 m 1,93,-1
 320 330 l 1,94,-1
 304 336 l 1,95,-1
 262 336 l 1,96,-1
 247 341 l 1,97,-1
 236 351 l 1,98,-1
 220 357 l 1,99,-1
 199 357 l 1,100,-1
 184 351 l 1,101,-1
 173 341 l 1,102,-1
 163 330 l 1,103,-1
 152 320 l 1,104,-1
 142 309 l 1,105,-1
 137 293 l 1,106,-1
 131 278 l 1,107,-1
 121 267 l 1,108,-1
 110 257 l 1,109,-1
 100 246 l 1,110,-1
 95 230 l 1,111,-1
 95 188 l 1,112,-1
 89 173 l 1,113,-1
 79 162 l 1,114,-1
 74 146 l 1,115,-1
 79 131 l 1,116,-1
 89 120 l 1,117,-1
 95 104 l 1,118,-1
 100 89 l 1,119,-1
 115 84 l 1,120,-1
 131 89 l 1,121,-1
 142 99 l 1,122,-1
 152 110 l 1,123,-1
 163 120 l 1,124,-1
 173 131 l 1,125,-1
 184 141 l 1,126,-1
 199 147 l 1,127,-1
 215 152 l 1,128,-1
 226 162 l 1,129,-1
 236 173 l 1,130,-1
 242 188 l 1,131,-1
 247 204 l 1,132,-1
 257 215 l 1,133,-1
 268 225 l 1,134,-1
 278 236 l 1,135,-1
 284 251 l 1,136,-1
 289 267 l 1,137,-1
 299 278 l 1,138,-1
 310 288 l 1,139,-1
 320 299 l 1,140,-1
 326 314 l 1,93,-1
EndSplineSet
Validated: 1
EndChar

StartChar: one
Encoding: 37 49 20
Width: 295
GlyphClass: 2
Flags: W
LayerCount: 2
Fore
SplineSet
241 -21 m 5,0,-1
 52 -21 l 5,1,-1
 37 -16 l 5,2,-1
 32 -1 l 5,3,-1
 37 15 l 5,4,-1
 52 21 l 5,5,-1
 115 21 l 5,6,-1
 131 26 l 5,7,-1
 137 41 l 5,8,-1
 137 251 l 5,9,-1
 131 267 l 5,10,-1
 121 278 l 5,11,-1
 116 293 l 5,12,-1
 116 314 l 5,13,-1
 110 330 l 5,14,-1
 100 330 l 5,15,-1
 95 314 l 5,16,-1
 89 299 l 5,17,-1
 79 288 l 5,18,-1
 68 278 l 5,19,-1
 52 273 l 5,20,-1
 37 278 l 5,21,-1
 32 293 l 5,22,-1
 32 314 l 5,23,-1
 37 330 l 5,24,-1
 47 341 l 5,25,-1
 58 351 l 5,26,-1
 68 362 l 5,27,-1
 79 372 l 5,28,-1
 89 383 l 5,29,-1
 100 393 l 5,30,-1
 110 404 l 5,31,-1
 121 414 l 5,32,-1
 136 420 l 5,33,-1
 152 414 l 5,34,-1
 158 398 l 5,35,-1
 158 314 l 5,36,-1
 163 299 l 5,37,-1
 173 288 l 5,38,-1
 179 272 l 5,39,-1
 179 41 l 5,40,-1
 184 26 l 5,41,-1
 199 21 l 5,42,-1
 241 21 l 5,43,-1
 257 15 l 5,44,-1
 263 -1 l 5,45,-1
 257 -16 l 5,46,-1
 241 -21 l 5,0,-1
EndSplineSet
Validated: 1
EndChar

StartChar: two
Encoding: 38 50 21
Width: 379
GlyphClass: 2
Flags: W
LayerCount: 2
Fore
SplineSet
325 -42 m 1,0,-1
 52 -42 l 1,1,-1
 37 -37 l 1,2,-1
 32 -22 l 1,3,-1
 37 -6 l 1,4,-1
 47 5 l 1,5,-1
 58 15 l 1,6,-1
 68 26 l 1,7,-1
 79 36 l 1,8,-1
 94 42 l 1,9,-1
 110 47 l 1,10,-1
 116 62 l 1,11,-1
 121 78 l 1,12,-1
 136 84 l 1,13,-1
 152 89 l 1,14,-1
 163 99 l 1,15,-1
 173 110 l 1,16,-1
 184 120 l 1,17,-1
 194 131 l 1,18,-1
 205 141 l 1,19,-1
 215 152 l 1,20,-1
 221 167 l 1,21,-1
 226 183 l 1,22,-1
 236 194 l 1,23,-1
 247 204 l 1,24,-1
 257 215 l 1,25,-1
 263 230 l 1,26,-1
 268 246 l 1,27,-1
 278 257 l 1,28,-1
 284 272 l 1,29,-1
 284 293 l 1,30,-1
 278 309 l 1,31,-1
 268 320 l 1,32,-1
 263 335 l 1,33,-1
 257 351 l 1,34,-1
 241 357 l 1,35,-1
 226 362 l 1,36,-1
 215 372 l 1,37,-1
 199 378 l 1,38,-1
 178 378 l 1,39,-1
 163 372 l 1,40,-1
 152 362 l 1,41,-1
 136 357 l 1,42,-1
 121 351 l 1,43,-1
 110 341 l 1,44,-1
 100 330 l 1,45,-1
 95 314 l 1,46,-1
 89 299 l 1,47,-1
 73 294 l 1,48,-1
 58 299 l 1,49,-1
 53 314 l 1,50,-1
 53 335 l 1,51,-1
 58 351 l 1,52,-1
 68 362 l 1,53,-1
 74 377 l 1,54,-1
 79 393 l 1,55,-1
 94 399 l 1,56,-1
 115 399 l 1,57,-1
 131 404 l 1,58,-1
 142 414 l 1,59,-1
 157 420 l 1,60,-1
 241 420 l 1,61,-1
 257 414 l 1,62,-1
 268 404 l 1,63,-1
 283 399 l 1,64,-1
 299 393 l 1,65,-1
 305 377 l 1,66,-1
 310 362 l 1,67,-1
 320 351 l 1,68,-1
 326 335 l 1,69,-1
 326 251 l 1,70,-1
 320 236 l 1,71,-1
 310 225 l 1,72,-1
 305 209 l 1,73,-1
 299 194 l 1,74,-1
 289 183 l 1,75,-1
 278 173 l 1,76,-1
 268 162 l 1,77,-1
 263 146 l 1,78,-1
 257 131 l 1,79,-1
 247 120 l 1,80,-1
 236 110 l 1,81,-1
 226 99 l 1,82,-1
 215 89 l 1,83,-1
 205 78 l 1,84,-1
 194 68 l 1,85,-1
 184 57 l 1,86,-1
 173 47 l 1,87,-1
 163 36 l 1,88,-1
 152 26 l 1,89,-1
 142 15 l 1,90,-1
 142 5 l 1,91,-1
 157 0 l 1,92,-1
 325 0 l 1,93,-1
 341 -6 l 1,94,-1
 347 -22 l 1,95,-1
 341 -37 l 1,96,-1
 325 -42 l 1,0,-1
EndSplineSet
Validated: 1
EndChar

StartChar: three
Encoding: 39 51 22
Width: 358
GlyphClass: 2
Flags: W
LayerCount: 2
Fore
SplineSet
310 78 m 1,0,-1
 305 62 l 1,1,-1
 305 41 l 1,2,-1
 299 26 l 1,3,-1
 283 21 l 1,4,-1
 268 15 l 1,5,-1
 257 5 l 1,6,-1
 247 -6 l 1,7,-1
 236 -16 l 1,8,-1
 220 -21 l 1,9,-1
 205 -27 l 1,10,-1
 194 -37 l 1,11,-1
 178 -42 l 1,12,-1
 73 -42 l 1,13,-1
 58 -37 l 1,14,-1
 47 -27 l 1,15,-1
 37 -16 l 1,16,-1
 32 -1 l 1,17,-1
 32 20 l 1,18,-1
 37 36 l 1,19,-1
 52 42 l 1,20,-1
 68 36 l 1,21,-1
 79 26 l 1,22,-1
 89 15 l 1,23,-1
 100 5 l 1,24,-1
 115 0 l 1,25,-1
 157 0 l 1,26,-1
 173 5 l 1,27,-1
 184 15 l 1,28,-1
 199 21 l 1,29,-1
 215 26 l 1,30,-1
 226 36 l 1,31,-1
 236 47 l 1,32,-1
 247 57 l 1,33,-1
 257 68 l 1,34,-1
 263 83 l 1,35,-1
 268 99 l 1,36,-1
 278 110 l 1,37,-1
 278 120 l 1,38,-1
 268 131 l 1,39,-1
 263 146 l 1,40,-1
 257 162 l 1,41,-1
 247 173 l 1,42,-1
 236 183 l 1,43,-1
 220 189 l 1,44,-1
 115 189 l 1,45,-1
 100 183 l 1,46,-1
 89 173 l 1,47,-1
 73 168 l 1,48,-1
 52 168 l 1,49,-1
 37 173 l 1,50,-1
 32 188 l 1,51,-1
 37 204 l 1,52,-1
 47 215 l 1,53,-1
 58 225 l 1,54,-1
 73 231 l 1,55,-1
 89 236 l 1,56,-1
 100 246 l 1,57,-1
 115 252 l 1,58,-1
 136 252 l 1,59,-1
 152 257 l 1,60,-1
 163 267 l 1,61,-1
 173 278 l 1,62,-1
 184 288 l 1,63,-1
 194 299 l 1,64,-1
 200 314 l 1,65,-1
 200 356 l 1,66,-1
 194 372 l 1,67,-1
 178 378 l 1,68,-1
 136 378 l 1,69,-1
 121 372 l 1,70,-1
 110 362 l 1,71,-1
 94 357 l 1,72,-1
 79 351 l 1,73,-1
 74 335 l 1,74,-1
 68 320 l 1,75,-1
 52 315 l 1,76,-1
 37 320 l 1,77,-1
 32 335 l 1,78,-1
 32 356 l 1,79,-1
 37 372 l 1,80,-1
 47 383 l 1,81,-1
 58 393 l 1,82,-1
 73 399 l 1,83,-1
 89 404 l 1,84,-1
 100 414 l 1,85,-1
 115 420 l 1,86,-1
 220 420 l 1,87,-1
 236 414 l 1,88,-1
 242 398 l 1,89,-1
 242 293 l 1,90,-1
 236 278 l 1,91,-1
 226 267 l 1,92,-1
 215 257 l 1,93,-1
 205 246 l 1,94,-1
 205 236 l 1,95,-1
 220 231 l 1,96,-1
 241 231 l 1,97,-1
 257 225 l 1,98,-1
 268 215 l 1,99,-1
 283 210 l 1,100,-1
 299 204 l 1,101,-1
 305 188 l 1,102,-1
 310 173 l 1,103,-1
 320 162 l 1,104,-1
 326 146 l 1,105,-1
 326 104 l 1,106,-1
 320 89 l 1,107,-1
 310 78 l 1,0,-1
EndSplineSet
Validated: 1
EndChar

StartChar: four
Encoding: 40 52 23
Width: 442
GlyphClass: 2
Flags: W
LayerCount: 2
Fore
SplineSet
388 105 m 1,0,-1
 304 105 l 1,1,-1
 289 99 l 1,2,-1
 284 83 l 1,3,-1
 284 -43 l 1,4,-1
 278 -58 l 1,5,-1
 262 -63 l 1,6,-1
 247 -58 l 1,7,-1
 242 -43 l 1,8,-1
 242 62 l 1,9,-1
 236 78 l 1,10,-1
 220 84 l 1,11,-1
 52 84 l 1,12,-1
 37 89 l 1,13,-1
 32 104 l 1,14,-1
 32 125 l 1,15,-1
 37 141 l 1,16,-1
 47 152 l 1,17,-1
 53 167 l 1,18,-1
 58 183 l 1,19,-1
 68 194 l 1,20,-1
 79 204 l 1,21,-1
 89 215 l 1,22,-1
 100 225 l 1,23,-1
 110 236 l 1,24,-1
 116 251 l 1,25,-1
 121 267 l 1,26,-1
 131 278 l 1,27,-1
 142 288 l 1,28,-1
 152 299 l 1,29,-1
 158 314 l 1,30,-1
 163 330 l 1,31,-1
 173 341 l 1,32,-1
 179 356 l 1,33,-1
 184 372 l 1,34,-1
 194 383 l 1,35,-1
 200 398 l 1,36,-1
 205 414 l 1,37,-1
 220 420 l 1,38,-1
 262 420 l 1,39,-1
 278 414 l 1,40,-1
 284 398 l 1,41,-1
 284 167 l 1,42,-1
 289 152 l 1,43,-1
 304 147 l 1,44,-1
 346 147 l 1,45,-1
 362 152 l 1,46,-1
 373 162 l 1,47,-1
 388 168 l 1,48,-1
 404 162 l 1,49,-1
 410 146 l 1,50,-1
 410 125 l 1,51,-1
 404 110 l 1,52,-1
 388 105 l 1,0,-1
242 146 m 1,53,-1
 242 314 l 1,54,-1
 236 330 l 1,55,-1
 226 330 l 1,56,-1
 215 320 l 1,57,-1
 205 309 l 1,58,-1
 200 293 l 1,59,-1
 194 278 l 1,60,-1
 184 267 l 1,61,-1
 173 257 l 1,62,-1
 163 246 l 1,63,-1
 158 230 l 1,64,-1
 152 215 l 1,65,-1
 142 204 l 1,66,-1
 131 194 l 1,67,-1
 121 183 l 1,68,-1
 116 167 l 1,69,-1
 110 152 l 1,70,-1
 100 141 l 1,71,-1
 100 131 l 1,72,-1
 115 126 l 1,73,-1
 220 126 l 1,74,-1
 236 131 l 1,75,-1
 242 146 l 1,53,-1
EndSplineSet
Validated: 1
EndChar

StartChar: five
Encoding: 41 53 24
Width: 400
GlyphClass: 2
Flags: W
LayerCount: 2
Fore
SplineSet
352 15 m 1,0,-1
 341 5 l 1,1,-1
 325 0 l 1,2,-1
 310 -6 l 1,3,-1
 299 -16 l 1,4,-1
 283 -21 l 1,5,-1
 268 -27 l 1,6,-1
 257 -37 l 1,7,-1
 241 -42 l 1,8,-1
 52 -42 l 1,9,-1
 37 -37 l 1,10,-1
 32 -22 l 1,11,-1
 32 -1 l 1,12,-1
 37 15 l 1,13,-1
 52 21 l 1,14,-1
 68 15 l 1,15,-1
 79 5 l 1,16,-1
 94 0 l 1,17,-1
 220 0 l 1,18,-1
 236 5 l 1,19,-1
 247 15 l 1,20,-1
 262 21 l 1,21,-1
 278 26 l 1,22,-1
 289 36 l 1,23,-1
 299 47 l 1,24,-1
 310 57 l 1,25,-1
 320 68 l 1,26,-1
 326 83 l 1,27,-1
 326 146 l 1,28,-1
 320 162 l 1,29,-1
 310 173 l 1,30,-1
 299 183 l 1,31,-1
 289 194 l 1,32,-1
 278 204 l 1,33,-1
 262 210 l 1,34,-1
 157 210 l 1,35,-1
 142 204 l 1,36,-1
 131 194 l 1,37,-1
 121 183 l 1,38,-1
 110 173 l 1,39,-1
 94 168 l 1,40,-1
 73 168 l 1,41,-1
 58 173 l 1,42,-1
 53 188 l 1,43,-1
 53 398 l 1,44,-1
 58 414 l 1,45,-1
 73 420 l 1,46,-1
 220 420 l 1,47,-1
 236 425 l 1,48,-1
 247 435 l 1,49,-1
 262 441 l 1,50,-1
 304 441 l 1,51,-1
 320 435 l 1,52,-1
 326 419 l 1,53,-1
 320 404 l 1,54,-1
 304 399 l 1,55,-1
 283 399 l 1,56,-1
 268 393 l 1,57,-1
 257 383 l 1,58,-1
 241 378 l 1,59,-1
 115 378 l 1,60,-1
 100 372 l 1,61,-1
 95 356 l 1,62,-1
 95 251 l 1,63,-1
 100 236 l 1,64,-1
 110 236 l 1,65,-1
 121 246 l 1,66,-1
 136 252 l 1,67,-1
 304 252 l 1,68,-1
 320 246 l 1,69,-1
 326 230 l 1,70,-1
 331 215 l 1,71,-1
 346 210 l 1,72,-1
 362 204 l 1,73,-1
 368 188 l 1,74,-1
 368 41 l 1,75,-1
 362 26 l 1,76,-1
 352 15 l 1,0,-1
EndSplineSet
Validated: 1
EndChar

StartChar: six
Encoding: 42 54 25
Width: 379
GlyphClass: 2
Flags: W
LayerCount: 2
Fore
SplineSet
331 36 m 1,0,-1
 326 20 l 1,1,-1
 320 5 l 1,2,-1
 310 -6 l 1,3,-1
 299 -16 l 1,4,-1
 289 -27 l 1,5,-1
 278 -37 l 1,6,-1
 262 -42 l 1,7,-1
 136 -42 l 1,8,-1
 121 -37 l 1,9,-1
 110 -27 l 1,10,-1
 94 -21 l 1,11,-1
 79 -16 l 1,12,-1
 68 -6 l 1,13,-1
 58 5 l 1,14,-1
 53 20 l 1,15,-1
 47 36 l 1,16,-1
 37 47 l 1,17,-1
 32 62 l 1,18,-1
 32 209 l 1,19,-1
 37 225 l 1,20,-1
 47 236 l 1,21,-1
 53 251 l 1,22,-1
 53 272 l 1,23,-1
 58 288 l 1,24,-1
 68 299 l 1,25,-1
 79 309 l 1,26,-1
 89 320 l 1,27,-1
 95 335 l 1,28,-1
 100 351 l 1,29,-1
 110 362 l 1,30,-1
 121 372 l 1,31,-1
 131 383 l 1,32,-1
 137 398 l 1,33,-1
 142 414 l 1,34,-1
 152 425 l 1,35,-1
 163 435 l 1,36,-1
 173 446 l 1,37,-1
 184 456 l 1,38,-1
 199 462 l 1,39,-1
 220 462 l 1,40,-1
 236 456 l 1,41,-1
 247 446 l 1,42,-1
 257 435 l 1,43,-1
 263 419 l 1,44,-1
 257 404 l 1,45,-1
 241 399 l 1,46,-1
 220 399 l 1,47,-1
 205 393 l 1,48,-1
 194 383 l 1,49,-1
 184 372 l 1,50,-1
 173 362 l 1,51,-1
 163 351 l 1,52,-1
 152 341 l 1,53,-1
 142 330 l 1,54,-1
 137 314 l 1,55,-1
 131 299 l 1,56,-1
 121 288 l 1,57,-1
 116 272 l 1,58,-1
 110 257 l 1,59,-1
 100 246 l 1,60,-1
 95 230 l 1,61,-1
 89 215 l 1,62,-1
 79 204 l 1,63,-1
 74 188 l 1,64,-1
 74 83 l 1,65,-1
 79 68 l 1,66,-1
 89 68 l 1,67,-1
 100 78 l 1,68,-1
 110 89 l 1,69,-1
 116 104 l 1,70,-1
 121 120 l 1,71,-1
 131 131 l 1,72,-1
 137 146 l 1,73,-1
 142 162 l 1,74,-1
 157 168 l 1,75,-1
 173 173 l 1,76,-1
 184 183 l 1,77,-1
 199 189 l 1,78,-1
 283 189 l 1,79,-1
 299 183 l 1,80,-1
 310 173 l 1,81,-1
 320 162 l 1,82,-1
 331 152 l 1,83,-1
 341 141 l 1,84,-1
 347 125 l 1,85,-1
 347 62 l 1,86,-1
 341 47 l 1,87,-1
 331 36 l 1,0,-1
305 83 m 1,88,-1
 305 104 l 1,89,-1
 299 120 l 1,90,-1
 289 131 l 1,91,-1
 278 141 l 1,92,-1
 262 147 l 1,93,-1
 220 147 l 1,94,-1
 205 141 l 1,95,-1
 194 131 l 1,96,-1
 184 120 l 1,97,-1
 173 110 l 1,98,-1
 163 99 l 1,99,-1
 158 83 l 1,100,-1
 152 68 l 1,101,-1
 142 57 l 1,102,-1
 137 41 l 1,103,-1
 142 26 l 1,104,-1
 152 15 l 1,105,-1
 163 5 l 1,106,-1
 178 0 l 1,107,-1
 220 0 l 1,108,-1
 236 5 l 1,109,-1
 247 15 l 1,110,-1
 257 26 l 1,111,-1
 268 36 l 1,112,-1
 278 47 l 1,113,-1
 289 57 l 1,114,-1
 299 68 l 1,115,-1
 305 83 l 1,88,-1
EndSplineSet
Validated: 1
EndChar

StartChar: seven
Encoding: 43 55 26
Width: 337
GlyphClass: 2
Flags: W
LayerCount: 2
Fore
SplineSet
289 351 m 1,0,-1
 284 335 l 1,1,-1
 278 320 l 1,2,-1
 268 309 l 1,3,-1
 263 293 l 1,4,-1
 263 272 l 1,5,-1
 257 257 l 1,6,-1
 247 246 l 1,7,-1
 242 230 l 1,8,-1
 242 188 l 1,9,-1
 236 173 l 1,10,-1
 226 162 l 1,11,-1
 221 146 l 1,12,-1
 221 104 l 1,13,-1
 215 89 l 1,14,-1
 205 78 l 1,15,-1
 200 62 l 1,16,-1
 200 -22 l 1,17,-1
 194 -37 l 1,18,-1
 178 -42 l 1,19,-1
 163 -37 l 1,20,-1
 158 -22 l 1,21,-1
 158 83 l 1,22,-1
 163 99 l 1,23,-1
 173 110 l 1,24,-1
 179 125 l 1,25,-1
 179 167 l 1,26,-1
 184 183 l 1,27,-1
 194 194 l 1,28,-1
 200 209 l 1,29,-1
 200 251 l 1,30,-1
 205 267 l 1,31,-1
 215 278 l 1,32,-1
 221 293 l 1,33,-1
 221 314 l 1,34,-1
 226 330 l 1,35,-1
 236 341 l 1,36,-1
 242 356 l 1,37,-1
 236 372 l 1,38,-1
 220 378 l 1,39,-1
 94 378 l 1,40,-1
 79 372 l 1,41,-1
 74 356 l 1,42,-1
 74 293 l 1,43,-1
 68 278 l 1,44,-1
 52 273 l 1,45,-1
 37 278 l 1,46,-1
 32 293 l 1,47,-1
 32 398 l 1,48,-1
 37 414 l 1,49,-1
 52 420 l 1,50,-1
 283 420 l 1,51,-1
 299 414 l 1,52,-1
 305 398 l 1,53,-1
 305 377 l 1,54,-1
 299 362 l 1,55,-1
 289 351 l 1,0,-1
EndSplineSet
Validated: 1
EndChar

StartChar: eight
Encoding: 44 56 27
Width: 442
GlyphClass: 2
Flags: W
LayerCount: 2
Fore
SplineSet
394 78 m 1,0,-1
 389 62 l 1,1,-1
 383 47 l 1,2,-1
 373 36 l 1,3,-1
 362 26 l 1,4,-1
 352 15 l 1,5,-1
 341 5 l 1,6,-1
 325 0 l 1,7,-1
 310 -6 l 1,8,-1
 299 -16 l 1,9,-1
 283 -21 l 1,10,-1
 262 -21 l 1,11,-1
 247 -27 l 1,12,-1
 236 -37 l 1,13,-1
 220 -42 l 1,14,-1
 136 -42 l 1,15,-1
 121 -37 l 1,16,-1
 110 -27 l 1,17,-1
 94 -21 l 1,18,-1
 73 -21 l 1,19,-1
 58 -16 l 1,20,-1
 53 -1 l 1,21,-1
 47 15 l 1,22,-1
 37 26 l 1,23,-1
 32 41 l 1,24,-1
 32 125 l 1,25,-1
 37 141 l 1,26,-1
 47 152 l 1,27,-1
 53 167 l 1,28,-1
 58 183 l 1,29,-1
 68 194 l 1,30,-1
 79 204 l 1,31,-1
 89 215 l 1,32,-1
 95 230 l 1,33,-1
 89 246 l 1,34,-1
 79 257 l 1,35,-1
 68 267 l 1,36,-1
 58 278 l 1,37,-1
 53 293 l 1,38,-1
 53 314 l 1,39,-1
 58 330 l 1,40,-1
 68 341 l 1,41,-1
 74 356 l 1,42,-1
 74 377 l 1,43,-1
 79 393 l 1,44,-1
 89 404 l 1,45,-1
 100 414 l 1,46,-1
 110 425 l 1,47,-1
 121 435 l 1,48,-1
 136 441 l 1,49,-1
 283 441 l 1,50,-1
 299 435 l 1,51,-1
 310 425 l 1,52,-1
 320 414 l 1,53,-1
 331 404 l 1,54,-1
 341 393 l 1,55,-1
 347 377 l 1,56,-1
 347 314 l 1,57,-1
 341 299 l 1,58,-1
 331 288 l 1,59,-1
 326 272 l 1,60,-1
 320 257 l 1,61,-1
 304 252 l 1,62,-1
 289 246 l 1,63,-1
 289 236 l 1,64,-1
 304 231 l 1,65,-1
 320 225 l 1,66,-1
 331 215 l 1,67,-1
 346 210 l 1,68,-1
 362 204 l 1,69,-1
 373 194 l 1,70,-1
 383 183 l 1,71,-1
 394 173 l 1,72,-1
 404 162 l 1,73,-1
 410 146 l 1,74,-1
 410 104 l 1,75,-1
 404 89 l 1,76,-1
 394 78 l 1,0,-1
362 120 m 1,77,-1
 352 131 l 1,78,-1
 347 146 l 1,79,-1
 341 162 l 1,80,-1
 325 168 l 1,81,-1
 310 173 l 1,82,-1
 299 183 l 1,83,-1
 283 189 l 1,84,-1
 199 189 l 1,85,-1
 184 194 l 1,86,-1
 173 204 l 1,87,-1
 163 204 l 1,88,-1
 152 194 l 1,89,-1
 136 189 l 1,90,-1
 121 183 l 1,91,-1
 110 173 l 1,92,-1
 100 162 l 1,93,-1
 95 146 l 1,94,-1
 89 131 l 1,95,-1
 79 120 l 1,96,-1
 74 104 l 1,97,-1
 74 62 l 1,98,-1
 79 47 l 1,99,-1
 89 36 l 1,100,-1
 100 26 l 1,101,-1
 115 21 l 1,102,-1
 131 15 l 1,103,-1
 142 5 l 1,104,-1
 157 0 l 1,105,-1
 199 0 l 1,106,-1
 215 5 l 1,107,-1
 226 15 l 1,108,-1
 241 21 l 1,109,-1
 262 21 l 1,110,-1
 278 26 l 1,111,-1
 289 36 l 1,112,-1
 304 42 l 1,113,-1
 320 47 l 1,114,-1
 326 62 l 1,115,-1
 331 78 l 1,116,-1
 341 89 l 1,117,-1
 352 99 l 1,118,-1
 362 110 l 1,119,-1
 362 120 l 1,77,-1
305 335 m 1,120,-1
 299 351 l 1,121,-1
 289 362 l 1,122,-1
 278 372 l 1,123,-1
 262 378 l 1,124,-1
 247 383 l 1,125,-1
 236 393 l 1,126,-1
 220 399 l 1,127,-1
 178 399 l 1,128,-1
 163 393 l 1,129,-1
 152 383 l 1,130,-1
 142 372 l 1,131,-1
 131 362 l 1,132,-1
 121 351 l 1,133,-1
 116 335 l 1,134,-1
 116 293 l 1,135,-1
 121 278 l 1,136,-1
 136 273 l 1,137,-1
 152 267 l 1,138,-1
 163 257 l 1,139,-1
 178 252 l 1,140,-1
 199 252 l 1,141,-1
 215 257 l 1,142,-1
 226 267 l 1,143,-1
 241 273 l 1,144,-1
 257 278 l 1,145,-1
 268 288 l 1,146,-1
 278 299 l 1,147,-1
 289 309 l 1,148,-1
 299 320 l 1,149,-1
 305 335 l 1,120,-1
EndSplineSet
Validated: 1
EndChar

StartChar: nine
Encoding: 45 57 28
Width: 358
GlyphClass: 2
Flags: W
LayerCount: 2
Fore
SplineSet
304 -63 m 1,0,-1
 289 -58 l 1,1,-1
 284 -43 l 1,2,-1
 284 167 l 1,3,-1
 278 183 l 1,4,-1
 268 183 l 1,5,-1
 257 173 l 1,6,-1
 247 162 l 1,7,-1
 236 152 l 1,8,-1
 220 147 l 1,9,-1
 115 147 l 1,10,-1
 100 152 l 1,11,-1
 89 162 l 1,12,-1
 73 168 l 1,13,-1
 58 173 l 1,14,-1
 53 188 l 1,15,-1
 47 204 l 1,16,-1
 37 215 l 1,17,-1
 32 230 l 1,18,-1
 32 335 l 1,19,-1
 37 351 l 1,20,-1
 47 362 l 1,21,-1
 58 372 l 1,22,-1
 68 383 l 1,23,-1
 79 393 l 1,24,-1
 89 404 l 1,25,-1
 100 414 l 1,26,-1
 115 420 l 1,27,-1
 131 425 l 1,28,-1
 142 435 l 1,29,-1
 157 441 l 1,30,-1
 220 441 l 1,31,-1
 236 435 l 1,32,-1
 247 425 l 1,33,-1
 262 420 l 1,34,-1
 304 420 l 1,35,-1
 320 414 l 1,36,-1
 326 398 l 1,37,-1
 326 -43 l 1,38,-1
 320 -58 l 1,39,-1
 304 -63 l 1,0,-1
284 293 m 1,40,-1
 284 356 l 1,41,-1
 278 372 l 1,42,-1
 262 378 l 1,43,-1
 220 378 l 1,44,-1
 205 383 l 1,45,-1
 194 393 l 1,46,-1
 178 399 l 1,47,-1
 163 393 l 1,48,-1
 152 383 l 1,49,-1
 136 378 l 1,50,-1
 121 372 l 1,51,-1
 110 362 l 1,52,-1
 100 351 l 1,53,-1
 95 335 l 1,54,-1
 89 320 l 1,55,-1
 79 309 l 1,56,-1
 74 293 l 1,57,-1
 74 251 l 1,58,-1
 79 236 l 1,59,-1
 89 225 l 1,60,-1
 100 215 l 1,61,-1
 110 204 l 1,62,-1
 121 194 l 1,63,-1
 136 189 l 1,64,-1
 178 189 l 1,65,-1
 194 194 l 1,66,-1
 205 204 l 1,67,-1
 220 210 l 1,68,-1
 236 215 l 1,69,-1
 247 225 l 1,70,-1
 257 236 l 1,71,-1
 263 251 l 1,72,-1
 268 267 l 1,73,-1
 278 278 l 1,74,-1
 284 293 l 1,40,-1
EndSplineSet
Validated: 1
EndChar

StartChar: colon
Encoding: 46 58 29
Width: 148
GlyphClass: 2
Flags: W
LayerCount: 2
Fore
SplineSet
94 21 m 1,0,-1
 52 21 l 1,1,-1
 37 26 l 1,2,-1
 32 41 l 1,3,-1
 37 57 l 1,4,-1
 47 68 l 1,5,-1
 58 78 l 1,6,-1
 73 84 l 1,7,-1
 89 78 l 1,8,-1
 100 68 l 1,9,-1
 110 57 l 1,10,-1
 116 41 l 1,11,-1
 110 26 l 1,12,-1
 94 21 l 1,0,-1
94 189 m 1,13,-1
 73 189 l 1,14,-1
 58 194 l 1,15,-1
 53 209 l 1,16,-1
 53 230 l 1,17,-1
 58 246 l 1,18,-1
 73 252 l 1,19,-1
 94 252 l 1,20,-1
 110 246 l 1,21,-1
 116 230 l 1,22,-1
 116 209 l 1,23,-1
 110 194 l 1,24,-1
 94 189 l 1,13,-1
EndSplineSet
Validated: 1
EndChar

StartChar: semicolon
Encoding: 47 59 30
Width: 148
GlyphClass: 2
Flags: W
LayerCount: 2
Fore
SplineSet
100 -90 m 1,0,-1
 95 -106 l 1,1,-1
 89 -121 l 1,2,-1
 79 -132 l 1,3,-1
 68 -142 l 1,4,-1
 52 -147 l 1,5,-1
 37 -142 l 1,6,-1
 32 -127 l 1,7,-1
 32 -106 l 1,8,-1
 37 -90 l 1,9,-1
 47 -79 l 1,10,-1
 58 -69 l 1,11,-1
 68 -58 l 1,12,-1
 68 -48 l 1,13,-1
 52 -42 l 1,14,-1
 37 -37 l 1,15,-1
 32 -22 l 1,16,-1
 32 20 l 1,17,-1
 37 36 l 1,18,-1
 52 42 l 1,19,-1
 68 36 l 1,20,-1
 79 26 l 1,21,-1
 89 15 l 1,22,-1
 95 -1 l 1,23,-1
 100 -16 l 1,24,-1
 110 -27 l 1,25,-1
 116 -43 l 1,26,-1
 116 -64 l 1,27,-1
 110 -79 l 1,28,-1
 100 -90 l 1,0,-1
73 147 m 1,29,-1
 52 147 l 1,30,-1
 37 152 l 1,31,-1
 32 167 l 1,32,-1
 32 188 l 1,33,-1
 37 204 l 1,34,-1
 52 210 l 1,35,-1
 68 204 l 1,36,-1
 79 194 l 1,37,-1
 89 183 l 1,38,-1
 95 167 l 1,39,-1
 89 152 l 1,40,-1
 73 147 l 1,29,-1
EndSplineSet
Validated: 1
EndChar

StartChar: less
Encoding: 48 60 31
Width: 295
GlyphClass: 2
Flags: W
LayerCount: 2
Fore
SplineSet
241 147 m 1,0,-1
 226 152 l 1,1,-1
 215 162 l 1,2,-1
 199 168 l 1,3,-1
 184 173 l 1,4,-1
 173 183 l 1,5,-1
 163 194 l 1,6,-1
 152 204 l 1,7,-1
 136 210 l 1,8,-1
 121 215 l 1,9,-1
 110 225 l 1,10,-1
 100 236 l 1,11,-1
 89 246 l 1,12,-1
 79 257 l 1,13,-1
 68 267 l 1,14,-1
 58 278 l 1,15,-1
 47 288 l 1,16,-1
 37 299 l 1,17,-1
 32 314 l 1,18,-1
 32 356 l 1,19,-1
 37 372 l 1,20,-1
 47 383 l 1,21,-1
 58 393 l 1,22,-1
 73 399 l 1,23,-1
 89 404 l 1,24,-1
 100 414 l 1,25,-1
 110 425 l 1,26,-1
 116 440 l 1,27,-1
 121 456 l 1,28,-1
 131 467 l 1,29,-1
 142 477 l 1,30,-1
 152 488 l 1,31,-1
 163 498 l 1,32,-1
 173 509 l 1,33,-1
 184 519 l 1,34,-1
 199 525 l 1,35,-1
 220 525 l 1,36,-1
 236 519 l 1,37,-1
 242 503 l 1,38,-1
 236 488 l 1,39,-1
 226 477 l 1,40,-1
 215 467 l 1,41,-1
 205 456 l 1,42,-1
 194 446 l 1,43,-1
 184 435 l 1,44,-1
 173 425 l 1,45,-1
 163 414 l 1,46,-1
 152 404 l 1,47,-1
 142 393 l 1,48,-1
 131 383 l 1,49,-1
 121 372 l 1,50,-1
 110 362 l 1,51,-1
 100 351 l 1,52,-1
 89 341 l 1,53,-1
 79 330 l 1,54,-1
 79 320 l 1,55,-1
 89 309 l 1,56,-1
 100 299 l 1,57,-1
 110 288 l 1,58,-1
 121 278 l 1,59,-1
 131 267 l 1,60,-1
 142 257 l 1,61,-1
 157 252 l 1,62,-1
 173 246 l 1,63,-1
 184 236 l 1,64,-1
 199 231 l 1,65,-1
 215 225 l 1,66,-1
 226 215 l 1,67,-1
 236 204 l 1,68,-1
 247 194 l 1,69,-1
 257 183 l 1,70,-1
 263 167 l 1,71,-1
 257 152 l 1,72,-1
 241 147 l 1,0,-1
EndSplineSet
Validated: 1
EndChar

StartChar: equal
Encoding: 49 61 32
Width: 379
GlyphClass: 2
Flags: W
LayerCount: 2
Fore
SplineSet
325 273 m 1,0,-1
 94 273 l 1,1,-1
 79 267 l 1,2,-1
 68 257 l 1,3,-1
 52 252 l 1,4,-1
 37 257 l 1,5,-1
 32 272 l 1,6,-1
 32 293 l 1,7,-1
 37 309 l 1,8,-1
 52 315 l 1,9,-1
 325 315 l 1,10,-1
 341 309 l 1,11,-1
 347 293 l 1,12,-1
 341 278 l 1,13,-1
 325 273 l 1,0,-1
325 399 m 1,14,-1
 157 399 l 1,15,-1
 142 393 l 1,16,-1
 131 383 l 1,17,-1
 115 378 l 1,18,-1
 73 378 l 1,19,-1
 58 383 l 1,20,-1
 53 398 l 1,21,-1
 58 414 l 1,22,-1
 73 420 l 1,23,-1
 89 425 l 1,24,-1
 100 435 l 1,25,-1
 115 441 l 1,26,-1
 325 441 l 1,27,-1
 341 435 l 1,28,-1
 347 419 l 1,29,-1
 341 404 l 1,30,-1
 325 399 l 1,14,-1
EndSplineSet
Validated: 1
EndChar

StartChar: greater
Encoding: 50 62 33
Width: 316
GlyphClass: 2
Flags: W
LayerCount: 2
Fore
SplineSet
262 273 m 1,0,-1
 247 267 l 1,1,-1
 236 257 l 1,2,-1
 226 246 l 1,3,-1
 215 236 l 1,4,-1
 199 231 l 1,5,-1
 184 225 l 1,6,-1
 173 215 l 1,7,-1
 157 210 l 1,8,-1
 142 204 l 1,9,-1
 131 194 l 1,10,-1
 115 189 l 1,11,-1
 100 183 l 1,12,-1
 89 173 l 1,13,-1
 73 168 l 1,14,-1
 52 168 l 1,15,-1
 37 173 l 1,16,-1
 32 188 l 1,17,-1
 37 204 l 1,18,-1
 52 210 l 1,19,-1
 68 215 l 1,20,-1
 79 225 l 1,21,-1
 89 236 l 1,22,-1
 100 246 l 1,23,-1
 115 252 l 1,24,-1
 136 252 l 1,25,-1
 152 257 l 1,26,-1
 163 267 l 1,27,-1
 178 273 l 1,28,-1
 194 278 l 1,29,-1
 200 293 l 1,30,-1
 194 309 l 1,31,-1
 184 320 l 1,32,-1
 173 330 l 1,33,-1
 163 341 l 1,34,-1
 152 351 l 1,35,-1
 142 362 l 1,36,-1
 131 372 l 1,37,-1
 121 383 l 1,38,-1
 110 393 l 1,39,-1
 100 404 l 1,40,-1
 89 414 l 1,41,-1
 79 425 l 1,42,-1
 74 440 l 1,43,-1
 68 456 l 1,44,-1
 52 462 l 1,45,-1
 37 467 l 1,46,-1
 32 482 l 1,47,-1
 37 498 l 1,48,-1
 52 504 l 1,49,-1
 73 504 l 1,50,-1
 89 498 l 1,51,-1
 100 488 l 1,52,-1
 110 477 l 1,53,-1
 121 467 l 1,54,-1
 131 456 l 1,55,-1
 137 440 l 1,56,-1
 142 425 l 1,57,-1
 152 414 l 1,58,-1
 163 404 l 1,59,-1
 173 393 l 1,60,-1
 184 383 l 1,61,-1
 194 372 l 1,62,-1
 205 362 l 1,63,-1
 220 357 l 1,64,-1
 236 351 l 1,65,-1
 247 341 l 1,66,-1
 257 330 l 1,67,-1
 268 320 l 1,68,-1
 278 309 l 1,69,-1
 284 293 l 1,70,-1
 278 278 l 1,71,-1
 262 273 l 1,0,-1
EndSplineSet
Validated: 1
EndChar

StartChar: question
Encoding: 51 63 34
Width: 379
GlyphClass: 2
Flags: W
LayerCount: 2
Fore
SplineSet
325 294 m 1,0,-1
 310 288 l 1,1,-1
 299 278 l 1,2,-1
 283 273 l 1,3,-1
 268 267 l 1,4,-1
 257 257 l 1,5,-1
 241 252 l 1,6,-1
 220 252 l 1,7,-1
 205 246 l 1,8,-1
 194 236 l 1,9,-1
 178 231 l 1,10,-1
 163 225 l 1,11,-1
 158 209 l 1,12,-1
 158 167 l 1,13,-1
 152 152 l 1,14,-1
 136 147 l 1,15,-1
 121 152 l 1,16,-1
 116 167 l 1,17,-1
 116 251 l 1,18,-1
 121 267 l 1,19,-1
 136 273 l 1,20,-1
 152 278 l 1,21,-1
 163 288 l 1,22,-1
 178 294 l 1,23,-1
 220 294 l 1,24,-1
 236 299 l 1,25,-1
 247 309 l 1,26,-1
 262 315 l 1,27,-1
 278 320 l 1,28,-1
 289 330 l 1,29,-1
 299 341 l 1,30,-1
 305 356 l 1,31,-1
 305 377 l 1,32,-1
 299 393 l 1,33,-1
 289 404 l 1,34,-1
 278 414 l 1,35,-1
 262 420 l 1,36,-1
 247 425 l 1,37,-1
 236 435 l 1,38,-1
 220 441 l 1,39,-1
 157 441 l 1,40,-1
 142 435 l 1,41,-1
 131 425 l 1,42,-1
 121 414 l 1,43,-1
 110 404 l 1,44,-1
 100 393 l 1,45,-1
 89 383 l 1,46,-1
 73 378 l 1,47,-1
 52 378 l 1,48,-1
 37 383 l 1,49,-1
 32 398 l 1,50,-1
 32 419 l 1,51,-1
 37 435 l 1,52,-1
 52 441 l 1,53,-1
 68 446 l 1,54,-1
 79 456 l 1,55,-1
 94 462 l 1,56,-1
 110 467 l 1,57,-1
 121 477 l 1,58,-1
 136 483 l 1,59,-1
 262 483 l 1,60,-1
 278 477 l 1,61,-1
 289 467 l 1,62,-1
 299 456 l 1,63,-1
 310 446 l 1,64,-1
 325 441 l 1,65,-1
 341 435 l 1,66,-1
 347 419 l 1,67,-1
 347 314 l 1,68,-1
 341 299 l 1,69,-1
 325 294 l 1,0,-1
163 -6 m 1,70,-1
 152 -16 l 1,71,-1
 136 -21 l 1,72,-1
 121 -16 l 1,73,-1
 116 -1 l 1,74,-1
 116 41 l 1,75,-1
 121 57 l 1,76,-1
 136 63 l 1,77,-1
 157 63 l 1,78,-1
 173 57 l 1,79,-1
 179 41 l 1,80,-1
 179 20 l 1,81,-1
 173 5 l 1,82,-1
 163 -6 l 1,70,-1
EndSplineSet
Validated: 1
EndChar

StartChar: at
Encoding: 52 64 35
Width: 610
GlyphClass: 2
Flags: W
LayerCount: 2
Fore
SplineSet
562 204 m 1,0,-1
 557 188 l 1,1,-1
 551 173 l 1,2,-1
 541 162 l 1,3,-1
 530 152 l 1,4,-1
 514 147 l 1,5,-1
 451 147 l 1,6,-1
 436 152 l 1,7,-1
 425 162 l 1,8,-1
 415 173 l 1,9,-1
 404 183 l 1,10,-1
 394 183 l 1,11,-1
 383 173 l 1,12,-1
 373 162 l 1,13,-1
 362 152 l 1,14,-1
 346 147 l 1,15,-1
 331 141 l 1,16,-1
 320 131 l 1,17,-1
 304 126 l 1,18,-1
 262 126 l 1,19,-1
 247 131 l 1,20,-1
 236 141 l 1,21,-1
 220 147 l 1,22,-1
 205 152 l 1,23,-1
 194 162 l 1,24,-1
 184 173 l 1,25,-1
 173 183 l 1,26,-1
 163 194 l 1,27,-1
 158 209 l 1,28,-1
 158 356 l 1,29,-1
 163 372 l 1,30,-1
 173 383 l 1,31,-1
 184 393 l 1,32,-1
 194 404 l 1,33,-1
 205 414 l 1,34,-1
 220 420 l 1,35,-1
 236 425 l 1,36,-1
 247 435 l 1,37,-1
 262 441 l 1,38,-1
 367 441 l 1,39,-1
 383 435 l 1,40,-1
 394 425 l 1,41,-1
 404 414 l 1,42,-1
 415 404 l 1,43,-1
 425 393 l 1,44,-1
 431 377 l 1,45,-1
 431 251 l 1,46,-1
 436 236 l 1,47,-1
 446 225 l 1,48,-1
 457 215 l 1,49,-1
 467 204 l 1,50,-1
 478 194 l 1,51,-1
 488 194 l 1,52,-1
 499 204 l 1,53,-1
 509 215 l 1,54,-1
 520 225 l 1,55,-1
 530 236 l 1,56,-1
 536 251 l 1,57,-1
 536 356 l 1,58,-1
 530 372 l 1,59,-1
 520 383 l 1,60,-1
 515 398 l 1,61,-1
 509 414 l 1,62,-1
 499 425 l 1,63,-1
 488 435 l 1,64,-1
 478 446 l 1,65,-1
 467 456 l 1,66,-1
 457 467 l 1,67,-1
 446 477 l 1,68,-1
 430 483 l 1,69,-1
 415 488 l 1,70,-1
 404 498 l 1,71,-1
 388 504 l 1,72,-1
 373 509 l 1,73,-1
 362 519 l 1,74,-1
 346 525 l 1,75,-1
 283 525 l 1,76,-1
 268 519 l 1,77,-1
 257 509 l 1,78,-1
 241 504 l 1,79,-1
 226 498 l 1,80,-1
 215 488 l 1,81,-1
 199 483 l 1,82,-1
 184 477 l 1,83,-1
 173 467 l 1,84,-1
 163 456 l 1,85,-1
 152 446 l 1,86,-1
 142 435 l 1,87,-1
 131 425 l 1,88,-1
 121 414 l 1,89,-1
 116 398 l 1,90,-1
 116 377 l 1,91,-1
 110 362 l 1,92,-1
 100 351 l 1,93,-1
 95 335 l 1,94,-1
 95 293 l 1,95,-1
 89 278 l 1,96,-1
 79 267 l 1,97,-1
 74 251 l 1,98,-1
 74 209 l 1,99,-1
 79 194 l 1,100,-1
 89 183 l 1,101,-1
 95 167 l 1,102,-1
 100 152 l 1,103,-1
 110 141 l 1,104,-1
 121 131 l 1,105,-1
 131 120 l 1,106,-1
 142 110 l 1,107,-1
 152 99 l 1,108,-1
 163 89 l 1,109,-1
 178 84 l 1,110,-1
 194 78 l 1,111,-1
 205 68 l 1,112,-1
 220 63 l 1,113,-1
 241 63 l 1,114,-1
 257 57 l 1,115,-1
 268 47 l 1,116,-1
 283 42 l 1,117,-1
 346 42 l 1,118,-1
 362 47 l 1,119,-1
 373 57 l 1,120,-1
 388 63 l 1,121,-1
 430 63 l 1,122,-1
 446 57 l 1,123,-1
 452 41 l 1,124,-1
 446 26 l 1,125,-1
 430 21 l 1,126,-1
 415 15 l 1,127,-1
 404 5 l 1,128,-1
 388 0 l 1,129,-1
 262 0 l 1,130,-1
 247 5 l 1,131,-1
 236 15 l 1,132,-1
 220 21 l 1,133,-1
 178 21 l 1,134,-1
 163 26 l 1,135,-1
 152 36 l 1,136,-1
 136 42 l 1,137,-1
 121 47 l 1,138,-1
 110 57 l 1,139,-1
 100 68 l 1,140,-1
 89 78 l 1,141,-1
 79 89 l 1,142,-1
 74 104 l 1,143,-1
 68 120 l 1,144,-1
 58 131 l 1,145,-1
 47 141 l 1,146,-1
 37 152 l 1,147,-1
 32 167 l 1,148,-1
 32 272 l 1,149,-1
 37 288 l 1,150,-1
 47 299 l 1,151,-1
 53 314 l 1,152,-1
 53 377 l 1,153,-1
 58 393 l 1,154,-1
 68 404 l 1,155,-1
 74 419 l 1,156,-1
 79 435 l 1,157,-1
 89 446 l 1,158,-1
 95 461 l 1,159,-1
 100 477 l 1,160,-1
 110 488 l 1,161,-1
 121 498 l 1,162,-1
 136 504 l 1,163,-1
 152 509 l 1,164,-1
 163 519 l 1,165,-1
 178 525 l 1,166,-1
 194 530 l 1,167,-1
 205 540 l 1,168,-1
 220 546 l 1,169,-1
 236 551 l 1,170,-1
 247 561 l 1,171,-1
 262 567 l 1,172,-1
 388 567 l 1,173,-1
 404 561 l 1,174,-1
 415 551 l 1,175,-1
 425 540 l 1,176,-1
 436 530 l 1,177,-1
 451 525 l 1,178,-1
 472 525 l 1,179,-1
 488 519 l 1,180,-1
 499 509 l 1,181,-1
 509 498 l 1,182,-1
 520 488 l 1,183,-1
 530 477 l 1,184,-1
 536 461 l 1,185,-1
 541 446 l 1,186,-1
 551 435 l 1,187,-1
 557 419 l 1,188,-1
 562 404 l 1,189,-1
 572 393 l 1,190,-1
 578 377 l 1,191,-1
 578 230 l 1,192,-1
 572 215 l 1,193,-1
 562 204 l 1,0,-1
389 293 m 1,194,-1
 389 335 l 1,195,-1
 383 351 l 1,196,-1
 373 362 l 1,197,-1
 362 372 l 1,198,-1
 352 383 l 1,199,-1
 341 393 l 1,200,-1
 325 399 l 1,201,-1
 283 399 l 1,202,-1
 268 393 l 1,203,-1
 257 383 l 1,204,-1
 241 378 l 1,205,-1
 226 372 l 1,206,-1
 221 356 l 1,207,-1
 215 341 l 1,208,-1
 205 330 l 1,209,-1
 200 314 l 1,210,-1
 200 251 l 1,211,-1
 205 236 l 1,212,-1
 215 225 l 1,213,-1
 221 209 l 1,214,-1
 226 194 l 1,215,-1
 241 189 l 1,216,-1
 262 189 l 1,217,-1
 278 183 l 1,218,-1
 289 173 l 1,219,-1
 299 173 l 1,220,-1
 310 183 l 1,221,-1
 325 189 l 1,222,-1
 341 194 l 1,223,-1
 352 204 l 1,224,-1
 362 215 l 1,225,-1
 368 230 l 1,226,-1
 368 251 l 1,227,-1
 373 267 l 1,228,-1
 383 278 l 1,229,-1
 389 293 l 1,194,-1
EndSplineSet
Validated: 1
EndChar

StartChar: A
Encoding: 53 65 36
Width: 463
GlyphClass: 2
Flags: W
LayerCount: 2
Fore
SplineSet
409 -21 m 1,0,-1
 394 -16 l 1,1,-1
 383 -6 l 1,2,-1
 373 5 l 1,3,-1
 368 20 l 1,4,-1
 368 41 l 1,5,-1
 362 57 l 1,6,-1
 352 68 l 1,7,-1
 347 83 l 1,8,-1
 341 99 l 1,9,-1
 325 105 l 1,10,-1
 178 105 l 1,11,-1
 163 110 l 1,12,-1
 152 120 l 1,13,-1
 136 126 l 1,14,-1
 121 120 l 1,15,-1
 116 104 l 1,16,-1
 110 89 l 1,17,-1
 100 78 l 1,18,-1
 95 62 l 1,19,-1
 95 41 l 1,20,-1
 89 26 l 1,21,-1
 79 15 l 1,22,-1
 74 -1 l 1,23,-1
 74 -22 l 1,24,-1
 68 -37 l 1,25,-1
 52 -42 l 1,26,-1
 37 -37 l 1,27,-1
 32 -22 l 1,28,-1
 32 20 l 1,29,-1
 37 36 l 1,30,-1
 47 47 l 1,31,-1
 53 62 l 1,32,-1
 53 83 l 1,33,-1
 58 99 l 1,34,-1
 68 110 l 1,35,-1
 74 125 l 1,36,-1
 74 146 l 1,37,-1
 79 162 l 1,38,-1
 89 173 l 1,39,-1
 100 183 l 1,40,-1
 110 194 l 1,41,-1
 116 209 l 1,42,-1
 116 230 l 1,43,-1
 121 246 l 1,44,-1
 131 257 l 1,45,-1
 137 272 l 1,46,-1
 137 314 l 1,47,-1
 142 330 l 1,48,-1
 152 341 l 1,49,-1
 163 351 l 1,50,-1
 173 362 l 1,51,-1
 179 377 l 1,52,-1
 179 398 l 1,53,-1
 184 414 l 1,54,-1
 194 425 l 1,55,-1
 205 435 l 1,56,-1
 220 441 l 1,57,-1
 241 441 l 1,58,-1
 257 435 l 1,59,-1
 268 425 l 1,60,-1
 278 414 l 1,61,-1
 284 398 l 1,62,-1
 289 383 l 1,63,-1
 299 372 l 1,64,-1
 305 356 l 1,65,-1
 305 335 l 1,66,-1
 310 320 l 1,67,-1
 320 309 l 1,68,-1
 326 293 l 1,69,-1
 331 278 l 1,70,-1
 341 267 l 1,71,-1
 347 251 l 1,72,-1
 347 209 l 1,73,-1
 352 194 l 1,74,-1
 362 183 l 1,75,-1
 368 167 l 1,76,-1
 373 152 l 1,77,-1
 383 141 l 1,78,-1
 389 125 l 1,79,-1
 389 104 l 1,80,-1
 394 89 l 1,81,-1
 404 78 l 1,82,-1
 410 62 l 1,83,-1
 410 41 l 1,84,-1
 415 26 l 1,85,-1
 425 15 l 1,86,-1
 431 -1 l 1,87,-1
 425 -16 l 1,88,-1
 409 -21 l 1,0,-1
320 162 m 1,89,-1
 310 173 l 1,90,-1
 305 188 l 1,91,-1
 305 230 l 1,92,-1
 299 246 l 1,93,-1
 289 257 l 1,94,-1
 284 272 l 1,95,-1
 278 288 l 1,96,-1
 268 299 l 1,97,-1
 263 314 l 1,98,-1
 263 335 l 1,99,-1
 257 351 l 1,100,-1
 247 362 l 1,101,-1
 236 372 l 1,102,-1
 226 372 l 1,103,-1
 221 356 l 1,104,-1
 215 341 l 1,105,-1
 205 330 l 1,106,-1
 194 320 l 1,107,-1
 184 309 l 1,108,-1
 179 293 l 1,109,-1
 179 251 l 1,110,-1
 173 236 l 1,111,-1
 163 225 l 1,112,-1
 158 209 l 1,113,-1
 158 188 l 1,114,-1
 163 173 l 1,115,-1
 173 162 l 1,116,-1
 184 152 l 1,117,-1
 199 147 l 1,118,-1
 304 147 l 1,119,-1
 320 152 l 1,120,-1
 320 162 l 1,89,-1
EndSplineSet
Validated: 1
EndChar

StartChar: B
Encoding: 54 66 37
Width: 463
GlyphClass: 2
Flags: W
LayerCount: 2
Fore
SplineSet
415 36 m 1,0,-1
 404 26 l 1,1,-1
 394 15 l 1,2,-1
 383 5 l 1,3,-1
 367 0 l 1,4,-1
 346 0 l 1,5,-1
 331 -6 l 1,6,-1
 320 -16 l 1,7,-1
 304 -21 l 1,8,-1
 136 -21 l 1,9,-1
 121 -27 l 1,10,-1
 110 -37 l 1,11,-1
 94 -42 l 1,12,-1
 79 -37 l 1,13,-1
 74 -22 l 1,14,-1
 74 167 l 1,15,-1
 68 183 l 1,16,-1
 52 189 l 1,17,-1
 37 194 l 1,18,-1
 32 209 l 1,19,-1
 37 225 l 1,20,-1
 52 231 l 1,21,-1
 68 236 l 1,22,-1
 74 251 l 1,23,-1
 74 356 l 1,24,-1
 79 372 l 1,25,-1
 89 383 l 1,26,-1
 100 393 l 1,27,-1
 115 399 l 1,28,-1
 157 399 l 1,29,-1
 173 404 l 1,30,-1
 184 414 l 1,31,-1
 199 420 l 1,32,-1
 241 420 l 1,33,-1
 257 414 l 1,34,-1
 268 404 l 1,35,-1
 283 399 l 1,36,-1
 299 393 l 1,37,-1
 305 377 l 1,38,-1
 305 272 l 1,39,-1
 299 257 l 1,40,-1
 289 246 l 1,41,-1
 289 236 l 1,42,-1
 299 225 l 1,43,-1
 310 215 l 1,44,-1
 325 210 l 1,45,-1
 346 210 l 1,46,-1
 362 204 l 1,47,-1
 373 194 l 1,48,-1
 383 183 l 1,49,-1
 394 173 l 1,50,-1
 404 162 l 1,51,-1
 410 146 l 1,52,-1
 415 131 l 1,53,-1
 425 120 l 1,54,-1
 431 104 l 1,55,-1
 431 62 l 1,56,-1
 425 47 l 1,57,-1
 415 36 l 1,0,-1
389 83 m 1,58,-1
 383 99 l 1,59,-1
 373 110 l 1,60,-1
 362 120 l 1,61,-1
 352 131 l 1,62,-1
 341 141 l 1,63,-1
 331 152 l 1,64,-1
 320 162 l 1,65,-1
 304 168 l 1,66,-1
 289 173 l 1,67,-1
 278 183 l 1,68,-1
 262 189 l 1,69,-1
 136 189 l 1,70,-1
 121 183 l 1,71,-1
 116 167 l 1,72,-1
 116 62 l 1,73,-1
 121 47 l 1,74,-1
 131 36 l 1,75,-1
 142 26 l 1,76,-1
 157 21 l 1,77,-1
 283 21 l 1,78,-1
 299 26 l 1,79,-1
 310 36 l 1,80,-1
 325 42 l 1,81,-1
 346 42 l 1,82,-1
 362 47 l 1,83,-1
 373 57 l 1,84,-1
 383 68 l 1,85,-1
 389 83 l 1,58,-1
263 314 m 1,86,-1
 263 335 l 1,87,-1
 257 351 l 1,88,-1
 247 362 l 1,89,-1
 236 372 l 1,90,-1
 220 378 l 1,91,-1
 205 372 l 1,92,-1
 194 362 l 1,93,-1
 178 357 l 1,94,-1
 136 357 l 1,95,-1
 121 351 l 1,96,-1
 116 335 l 1,97,-1
 116 251 l 1,98,-1
 121 236 l 1,99,-1
 131 236 l 1,100,-1
 142 246 l 1,101,-1
 157 252 l 1,102,-1
 178 252 l 1,103,-1
 194 257 l 1,104,-1
 205 267 l 1,105,-1
 220 273 l 1,106,-1
 236 278 l 1,107,-1
 247 288 l 1,108,-1
 257 299 l 1,109,-1
 263 314 l 1,86,-1
EndSplineSet
Validated: 1
EndChar

StartChar: C
Encoding: 55 67 38
Width: 442
GlyphClass: 2
Flags: W
LayerCount: 2
Fore
SplineSet
388 -42 m 1,0,-1
 373 -48 l 1,1,-1
 362 -58 l 1,2,-1
 346 -63 l 1,3,-1
 157 -63 l 1,4,-1
 142 -58 l 1,5,-1
 131 -48 l 1,6,-1
 115 -42 l 1,7,-1
 100 -37 l 1,8,-1
 89 -27 l 1,9,-1
 79 -16 l 1,10,-1
 68 -6 l 1,11,-1
 58 5 l 1,12,-1
 47 15 l 1,13,-1
 37 26 l 1,14,-1
 32 41 l 1,15,-1
 32 188 l 1,16,-1
 37 204 l 1,17,-1
 47 215 l 1,18,-1
 53 230 l 1,19,-1
 53 251 l 1,20,-1
 58 267 l 1,21,-1
 68 278 l 1,22,-1
 79 288 l 1,23,-1
 89 299 l 1,24,-1
 100 309 l 1,25,-1
 110 320 l 1,26,-1
 121 330 l 1,27,-1
 136 336 l 1,28,-1
 262 336 l 1,29,-1
 278 330 l 1,30,-1
 289 320 l 1,31,-1
 304 315 l 1,32,-1
 320 309 l 1,33,-1
 331 299 l 1,34,-1
 341 288 l 1,35,-1
 352 278 l 1,36,-1
 362 267 l 1,37,-1
 368 251 l 1,38,-1
 373 236 l 1,39,-1
 383 225 l 1,40,-1
 394 215 l 1,41,-1
 404 204 l 1,42,-1
 410 188 l 1,43,-1
 410 167 l 1,44,-1
 404 152 l 1,45,-1
 388 147 l 1,46,-1
 373 152 l 1,47,-1
 368 167 l 1,48,-1
 362 183 l 1,49,-1
 352 194 l 1,50,-1
 341 204 l 1,51,-1
 331 215 l 1,52,-1
 326 230 l 1,53,-1
 320 246 l 1,54,-1
 310 257 l 1,55,-1
 299 267 l 1,56,-1
 283 273 l 1,57,-1
 268 278 l 1,58,-1
 257 288 l 1,59,-1
 241 294 l 1,60,-1
 178 294 l 1,61,-1
 163 288 l 1,62,-1
 152 278 l 1,63,-1
 136 273 l 1,64,-1
 121 267 l 1,65,-1
 116 251 l 1,66,-1
 110 236 l 1,67,-1
 100 225 l 1,68,-1
 95 209 l 1,69,-1
 89 194 l 1,70,-1
 79 183 l 1,71,-1
 74 167 l 1,72,-1
 74 83 l 1,73,-1
 79 68 l 1,74,-1
 89 57 l 1,75,-1
 95 41 l 1,76,-1
 100 26 l 1,77,-1
 110 15 l 1,78,-1
 121 5 l 1,79,-1
 136 0 l 1,80,-1
 152 -6 l 1,81,-1
 163 -16 l 1,82,-1
 178 -21 l 1,83,-1
 304 -21 l 1,84,-1
 320 -16 l 1,85,-1
 331 -6 l 1,86,-1
 346 0 l 1,87,-1
 362 5 l 1,88,-1
 373 15 l 1,89,-1
 388 21 l 1,90,-1
 404 15 l 1,91,-1
 410 -1 l 1,92,-1
 410 -22 l 1,93,-1
 404 -37 l 1,94,-1
 388 -42 l 1,0,-1
EndSplineSet
Validated: 1
EndChar

StartChar: D
Encoding: 56 68 39
Width: 421
GlyphClass: 2
Flags: W
LayerCount: 2
Fore
SplineSet
373 57 m 1,0,-1
 368 41 l 1,1,-1
 362 26 l 1,2,-1
 352 15 l 1,3,-1
 341 5 l 1,4,-1
 325 0 l 1,5,-1
 310 -6 l 1,6,-1
 299 -16 l 1,7,-1
 289 -27 l 1,8,-1
 278 -37 l 1,9,-1
 262 -42 l 1,10,-1
 247 -48 l 1,11,-1
 236 -58 l 1,12,-1
 220 -63 l 1,13,-1
 199 -63 l 1,14,-1
 184 -69 l 1,15,-1
 173 -79 l 1,16,-1
 157 -84 l 1,17,-1
 73 -84 l 1,18,-1
 58 -79 l 1,19,-1
 47 -69 l 1,20,-1
 37 -58 l 1,21,-1
 32 -43 l 1,22,-1
 32 83 l 1,23,-1
 37 99 l 1,24,-1
 47 110 l 1,25,-1
 53 125 l 1,26,-1
 53 356 l 1,27,-1
 58 372 l 1,28,-1
 73 378 l 1,29,-1
 199 378 l 1,30,-1
 215 372 l 1,31,-1
 226 362 l 1,32,-1
 241 357 l 1,33,-1
 262 357 l 1,34,-1
 278 351 l 1,35,-1
 289 341 l 1,36,-1
 299 330 l 1,37,-1
 310 320 l 1,38,-1
 325 315 l 1,39,-1
 341 309 l 1,40,-1
 347 293 l 1,41,-1
 352 278 l 1,42,-1
 362 267 l 1,43,-1
 368 251 l 1,44,-1
 368 209 l 1,45,-1
 373 194 l 1,46,-1
 383 183 l 1,47,-1
 389 167 l 1,48,-1
 389 83 l 1,49,-1
 383 68 l 1,50,-1
 373 57 l 1,0,-1
347 104 m 1,51,-1
 347 146 l 1,52,-1
 341 162 l 1,53,-1
 331 173 l 1,54,-1
 326 188 l 1,55,-1
 326 209 l 1,56,-1
 320 225 l 1,57,-1
 310 236 l 1,58,-1
 305 251 l 1,59,-1
 299 267 l 1,60,-1
 289 278 l 1,61,-1
 278 288 l 1,62,-1
 262 294 l 1,63,-1
 247 299 l 1,64,-1
 236 309 l 1,65,-1
 220 315 l 1,66,-1
 205 320 l 1,67,-1
 194 330 l 1,68,-1
 178 336 l 1,69,-1
 115 336 l 1,70,-1
 100 330 l 1,71,-1
 95 314 l 1,72,-1
 95 104 l 1,73,-1
 89 89 l 1,74,-1
 79 78 l 1,75,-1
 74 62 l 1,76,-1
 74 -22 l 1,77,-1
 79 -37 l 1,78,-1
 94 -42 l 1,79,-1
 115 -42 l 1,80,-1
 131 -37 l 1,81,-1
 142 -27 l 1,82,-1
 157 -21 l 1,83,-1
 178 -21 l 1,84,-1
 194 -16 l 1,85,-1
 205 -6 l 1,86,-1
 220 0 l 1,87,-1
 241 0 l 1,88,-1
 257 5 l 1,89,-1
 268 15 l 1,90,-1
 278 26 l 1,91,-1
 289 36 l 1,92,-1
 299 47 l 1,93,-1
 310 57 l 1,94,-1
 320 68 l 1,95,-1
 331 78 l 1,96,-1
 341 89 l 1,97,-1
 347 104 l 1,51,-1
EndSplineSet
Validated: 1
EndChar

StartChar: E
Encoding: 57 69 40
Width: 379
GlyphClass: 2
Flags: W
LayerCount: 2
Fore
SplineSet
325 -42 m 1,0,-1
 52 -42 l 1,1,-1
 37 -37 l 1,2,-1
 32 -22 l 1,3,-1
 32 356 l 1,4,-1
 37 372 l 1,5,-1
 52 378 l 1,6,-1
 304 378 l 1,7,-1
 320 372 l 1,8,-1
 326 356 l 1,9,-1
 320 341 l 1,10,-1
 304 336 l 1,11,-1
 94 336 l 1,12,-1
 79 330 l 1,13,-1
 74 314 l 1,14,-1
 74 230 l 1,15,-1
 79 215 l 1,16,-1
 94 210 l 1,17,-1
 241 210 l 1,18,-1
 257 204 l 1,19,-1
 263 188 l 1,20,-1
 257 173 l 1,21,-1
 241 168 l 1,22,-1
 136 168 l 1,23,-1
 121 162 l 1,24,-1
 110 152 l 1,25,-1
 94 147 l 1,26,-1
 79 141 l 1,27,-1
 74 125 l 1,28,-1
 74 20 l 1,29,-1
 79 5 l 1,30,-1
 94 0 l 1,31,-1
 325 0 l 1,32,-1
 341 -6 l 1,33,-1
 347 -22 l 1,34,-1
 341 -37 l 1,35,-1
 325 -42 l 1,0,-1
EndSplineSet
Validated: 1
EndChar

StartChar: F
Encoding: 58 70 41
Width: 337
GlyphClass: 2
Flags: W
LayerCount: 2
Fore
SplineSet
283 126 m 1,0,-1
 199 126 l 1,1,-1
 184 131 l 1,2,-1
 173 141 l 1,3,-1
 157 147 l 1,4,-1
 94 147 l 1,5,-1
 79 141 l 1,6,-1
 74 125 l 1,7,-1
 74 -22 l 1,8,-1
 68 -37 l 1,9,-1
 52 -42 l 1,10,-1
 37 -37 l 1,11,-1
 32 -22 l 1,12,-1
 32 356 l 1,13,-1
 37 372 l 1,14,-1
 52 378 l 1,15,-1
 283 378 l 1,16,-1
 299 372 l 1,17,-1
 305 356 l 1,18,-1
 299 341 l 1,19,-1
 283 336 l 1,20,-1
 94 336 l 1,21,-1
 79 330 l 1,22,-1
 74 314 l 1,23,-1
 74 209 l 1,24,-1
 79 194 l 1,25,-1
 94 189 l 1,26,-1
 178 189 l 1,27,-1
 194 183 l 1,28,-1
 205 173 l 1,29,-1
 220 168 l 1,30,-1
 283 168 l 1,31,-1
 299 162 l 1,32,-1
 305 146 l 1,33,-1
 299 131 l 1,34,-1
 283 126 l 1,0,-1
EndSplineSet
Validated: 1
EndChar

StartChar: G
Encoding: 59 71 42
Width: 463
GlyphClass: 2
Flags: W
LayerCount: 2
Fore
SplineSet
415 -27 m 1,0,-1
 404 -37 l 1,1,-1
 394 -48 l 1,2,-1
 383 -58 l 1,3,-1
 367 -63 l 1,4,-1
 325 -63 l 1,5,-1
 310 -69 l 1,6,-1
 299 -79 l 1,7,-1
 283 -84 l 1,8,-1
 220 -84 l 1,9,-1
 205 -79 l 1,10,-1
 194 -69 l 1,11,-1
 178 -63 l 1,12,-1
 157 -63 l 1,13,-1
 142 -58 l 1,14,-1
 131 -48 l 1,15,-1
 115 -42 l 1,16,-1
 100 -37 l 1,17,-1
 89 -27 l 1,18,-1
 73 -21 l 1,19,-1
 58 -16 l 1,20,-1
 53 -1 l 1,21,-1
 47 15 l 1,22,-1
 37 26 l 1,23,-1
 32 41 l 1,24,-1
 32 251 l 1,25,-1
 37 267 l 1,26,-1
 47 278 l 1,27,-1
 53 293 l 1,28,-1
 53 335 l 1,29,-1
 58 351 l 1,30,-1
 68 362 l 1,31,-1
 79 372 l 1,32,-1
 89 383 l 1,33,-1
 100 393 l 1,34,-1
 115 399 l 1,35,-1
 325 399 l 1,36,-1
 341 393 l 1,37,-1
 352 383 l 1,38,-1
 367 378 l 1,39,-1
 383 372 l 1,40,-1
 394 362 l 1,41,-1
 404 351 l 1,42,-1
 415 341 l 1,43,-1
 425 330 l 1,44,-1
 431 314 l 1,45,-1
 431 293 l 1,46,-1
 425 278 l 1,47,-1
 409 273 l 1,48,-1
 394 278 l 1,49,-1
 383 288 l 1,50,-1
 373 299 l 1,51,-1
 362 309 l 1,52,-1
 352 320 l 1,53,-1
 341 330 l 1,54,-1
 331 341 l 1,55,-1
 320 351 l 1,56,-1
 304 357 l 1,57,-1
 157 357 l 1,58,-1
 142 351 l 1,59,-1
 131 341 l 1,60,-1
 121 330 l 1,61,-1
 110 320 l 1,62,-1
 100 309 l 1,63,-1
 95 293 l 1,64,-1
 95 272 l 1,65,-1
 89 257 l 1,66,-1
 79 246 l 1,67,-1
 74 230 l 1,68,-1
 74 62 l 1,69,-1
 79 47 l 1,70,-1
 89 36 l 1,71,-1
 100 26 l 1,72,-1
 110 15 l 1,73,-1
 121 5 l 1,74,-1
 136 0 l 1,75,-1
 157 0 l 1,76,-1
 173 -6 l 1,77,-1
 184 -16 l 1,78,-1
 199 -21 l 1,79,-1
 220 -21 l 1,80,-1
 236 -27 l 1,81,-1
 247 -37 l 1,82,-1
 262 -42 l 1,83,-1
 278 -37 l 1,84,-1
 289 -27 l 1,85,-1
 304 -21 l 1,86,-1
 325 -21 l 1,87,-1
 341 -16 l 1,88,-1
 352 -6 l 1,89,-1
 362 5 l 1,90,-1
 373 15 l 1,91,-1
 383 26 l 1,92,-1
 389 41 l 1,93,-1
 389 104 l 1,94,-1
 383 120 l 1,95,-1
 373 131 l 1,96,-1
 362 141 l 1,97,-1
 346 147 l 1,98,-1
 331 141 l 1,99,-1
 320 131 l 1,100,-1
 304 126 l 1,101,-1
 199 126 l 1,102,-1
 184 131 l 1,103,-1
 179 146 l 1,104,-1
 184 162 l 1,105,-1
 199 168 l 1,106,-1
 283 168 l 1,107,-1
 299 173 l 1,108,-1
 310 183 l 1,109,-1
 325 189 l 1,110,-1
 388 189 l 1,111,-1
 404 183 l 1,112,-1
 415 173 l 1,113,-1
 425 162 l 1,114,-1
 431 146 l 1,115,-1
 431 -1 l 1,116,-1
 425 -16 l 1,117,-1
 415 -27 l 1,0,-1
EndSplineSet
Validated: 1
EndChar

StartChar: H
Encoding: 60 72 43
Width: 442
GlyphClass: 2
Flags: W
LayerCount: 2
Fore
SplineSet
388 -63 m 1,0,-1
 373 -58 l 1,1,-1
 368 -43 l 1,2,-1
 368 83 l 1,3,-1
 362 99 l 1,4,-1
 352 110 l 1,5,-1
 341 120 l 1,6,-1
 325 126 l 1,7,-1
 94 126 l 1,8,-1
 79 120 l 1,9,-1
 74 104 l 1,10,-1
 74 20 l 1,11,-1
 79 5 l 1,12,-1
 89 -6 l 1,13,-1
 95 -22 l 1,14,-1
 95 -43 l 1,15,-1
 89 -58 l 1,16,-1
 73 -63 l 1,17,-1
 52 -63 l 1,18,-1
 37 -58 l 1,19,-1
 32 -43 l 1,20,-1
 32 314 l 1,21,-1
 37 330 l 1,22,-1
 47 341 l 1,23,-1
 58 351 l 1,24,-1
 73 357 l 1,25,-1
 89 351 l 1,26,-1
 95 335 l 1,27,-1
 95 314 l 1,28,-1
 89 299 l 1,29,-1
 79 288 l 1,30,-1
 74 272 l 1,31,-1
 74 188 l 1,32,-1
 79 173 l 1,33,-1
 94 168 l 1,34,-1
 304 168 l 1,35,-1
 320 173 l 1,36,-1
 331 183 l 1,37,-1
 341 194 l 1,38,-1
 347 209 l 1,39,-1
 347 335 l 1,40,-1
 352 351 l 1,41,-1
 362 362 l 1,42,-1
 373 372 l 1,43,-1
 388 378 l 1,44,-1
 404 372 l 1,45,-1
 410 356 l 1,46,-1
 404 341 l 1,47,-1
 394 330 l 1,48,-1
 389 314 l 1,49,-1
 389 146 l 1,50,-1
 394 131 l 1,51,-1
 404 120 l 1,52,-1
 410 104 l 1,53,-1
 410 -43 l 1,54,-1
 404 -58 l 1,55,-1
 388 -63 l 1,0,-1
EndSplineSet
Validated: 1
EndChar

StartChar: I
Encoding: 61 73 44
Width: 253
GlyphClass: 2
Flags: W
LayerCount: 2
Fore
SplineSet
199 -42 m 1,0,-1
 52 -42 l 1,1,-1
 37 -37 l 1,2,-1
 32 -22 l 1,3,-1
 37 -6 l 1,4,-1
 52 0 l 1,5,-1
 73 0 l 1,6,-1
 89 5 l 1,7,-1
 95 20 l 1,8,-1
 95 41 l 1,9,-1
 100 57 l 1,10,-1
 110 68 l 1,11,-1
 116 83 l 1,12,-1
 116 272 l 1,13,-1
 110 288 l 1,14,-1
 94 294 l 1,15,-1
 52 294 l 1,16,-1
 37 299 l 1,17,-1
 32 314 l 1,18,-1
 37 330 l 1,19,-1
 52 336 l 1,20,-1
 68 341 l 1,21,-1
 79 351 l 1,22,-1
 94 357 l 1,23,-1
 199 357 l 1,24,-1
 215 351 l 1,25,-1
 221 335 l 1,26,-1
 215 320 l 1,27,-1
 199 315 l 1,28,-1
 178 315 l 1,29,-1
 163 309 l 1,30,-1
 158 293 l 1,31,-1
 158 62 l 1,32,-1
 152 47 l 1,33,-1
 142 36 l 1,34,-1
 137 20 l 1,35,-1
 142 5 l 1,36,-1
 157 0 l 1,37,-1
 199 0 l 1,38,-1
 215 -6 l 1,39,-1
 221 -22 l 1,40,-1
 215 -37 l 1,41,-1
 199 -42 l 1,0,-1
EndSplineSet
Validated: 1
EndChar

StartChar: J
Encoding: 62 74 45
Width: 400
GlyphClass: 2
Flags: W
LayerCount: 2
Fore
SplineSet
346 336 m 1,0,-1
 262 336 l 1,1,-1
 247 330 l 1,2,-1
 242 314 l 1,3,-1
 247 299 l 1,4,-1
 257 288 l 1,5,-1
 263 272 l 1,6,-1
 268 257 l 1,7,-1
 278 246 l 1,8,-1
 284 230 l 1,9,-1
 284 209 l 1,10,-1
 289 194 l 1,11,-1
 299 183 l 1,12,-1
 305 167 l 1,13,-1
 305 41 l 1,14,-1
 299 26 l 1,15,-1
 289 15 l 1,16,-1
 278 5 l 1,17,-1
 262 0 l 1,18,-1
 247 -6 l 1,19,-1
 236 -16 l 1,20,-1
 226 -27 l 1,21,-1
 215 -37 l 1,22,-1
 199 -42 l 1,23,-1
 115 -42 l 1,24,-1
 100 -37 l 1,25,-1
 89 -27 l 1,26,-1
 79 -16 l 1,27,-1
 74 -1 l 1,28,-1
 74 41 l 1,29,-1
 79 57 l 1,30,-1
 94 63 l 1,31,-1
 110 57 l 1,32,-1
 116 41 l 1,33,-1
 116 20 l 1,34,-1
 121 5 l 1,35,-1
 136 0 l 1,36,-1
 157 0 l 1,37,-1
 173 5 l 1,38,-1
 184 15 l 1,39,-1
 199 21 l 1,40,-1
 215 26 l 1,41,-1
 226 36 l 1,42,-1
 236 47 l 1,43,-1
 247 57 l 1,44,-1
 257 68 l 1,45,-1
 263 83 l 1,46,-1
 263 146 l 1,47,-1
 257 162 l 1,48,-1
 247 173 l 1,49,-1
 242 188 l 1,50,-1
 242 209 l 1,51,-1
 236 225 l 1,52,-1
 226 236 l 1,53,-1
 221 251 l 1,54,-1
 215 267 l 1,55,-1
 205 278 l 1,56,-1
 200 293 l 1,57,-1
 194 309 l 1,58,-1
 178 315 l 1,59,-1
 52 315 l 1,60,-1
 37 320 l 1,61,-1
 32 335 l 1,62,-1
 37 351 l 1,63,-1
 52 357 l 1,64,-1
 157 357 l 1,65,-1
 173 362 l 1,66,-1
 184 372 l 1,67,-1
 199 378 l 1,68,-1
 346 378 l 1,69,-1
 362 372 l 1,70,-1
 368 356 l 1,71,-1
 362 341 l 1,72,-1
 346 336 l 1,0,-1
EndSplineSet
Validated: 1
EndChar

StartChar: K
Encoding: 63 75 46
Width: 400
GlyphClass: 2
Flags: W
LayerCount: 2
Fore
SplineSet
346 -42 m 1,0,-1
 325 -42 l 1,1,-1
 310 -37 l 1,2,-1
 299 -27 l 1,3,-1
 289 -16 l 1,4,-1
 278 -6 l 1,5,-1
 268 5 l 1,6,-1
 257 15 l 1,7,-1
 241 21 l 1,8,-1
 226 26 l 1,9,-1
 215 36 l 1,10,-1
 205 47 l 1,11,-1
 194 57 l 1,12,-1
 184 68 l 1,13,-1
 173 78 l 1,14,-1
 163 89 l 1,15,-1
 152 99 l 1,16,-1
 136 105 l 1,17,-1
 121 110 l 1,18,-1
 110 120 l 1,19,-1
 100 120 l 1,20,-1
 95 104 l 1,21,-1
 95 -64 l 1,22,-1
 89 -79 l 1,23,-1
 73 -84 l 1,24,-1
 58 -79 l 1,25,-1
 53 -64 l 1,26,-1
 53 104 l 1,27,-1
 47 120 l 1,28,-1
 37 131 l 1,29,-1
 32 146 l 1,30,-1
 32 335 l 1,31,-1
 37 351 l 1,32,-1
 52 357 l 1,33,-1
 73 357 l 1,34,-1
 89 351 l 1,35,-1
 95 335 l 1,36,-1
 89 320 l 1,37,-1
 79 309 l 1,38,-1
 74 293 l 1,39,-1
 74 209 l 1,40,-1
 79 194 l 1,41,-1
 89 194 l 1,42,-1
 100 204 l 1,43,-1
 115 210 l 1,44,-1
 131 215 l 1,45,-1
 142 225 l 1,46,-1
 152 236 l 1,47,-1
 163 246 l 1,48,-1
 178 252 l 1,49,-1
 194 257 l 1,50,-1
 205 267 l 1,51,-1
 215 278 l 1,52,-1
 226 288 l 1,53,-1
 236 299 l 1,54,-1
 247 309 l 1,55,-1
 257 320 l 1,56,-1
 268 330 l 1,57,-1
 278 341 l 1,58,-1
 289 351 l 1,59,-1
 304 357 l 1,60,-1
 320 351 l 1,61,-1
 326 335 l 1,62,-1
 320 320 l 1,63,-1
 310 309 l 1,64,-1
 299 299 l 1,65,-1
 289 288 l 1,66,-1
 278 278 l 1,67,-1
 268 267 l 1,68,-1
 257 257 l 1,69,-1
 247 246 l 1,70,-1
 236 236 l 1,71,-1
 226 225 l 1,72,-1
 215 215 l 1,73,-1
 199 210 l 1,74,-1
 184 204 l 1,75,-1
 173 194 l 1,76,-1
 163 183 l 1,77,-1
 152 173 l 1,78,-1
 142 162 l 1,79,-1
 142 152 l 1,80,-1
 157 147 l 1,81,-1
 173 141 l 1,82,-1
 184 131 l 1,83,-1
 194 120 l 1,84,-1
 205 110 l 1,85,-1
 215 99 l 1,86,-1
 226 89 l 1,87,-1
 241 84 l 1,88,-1
 257 78 l 1,89,-1
 268 68 l 1,90,-1
 278 57 l 1,91,-1
 289 47 l 1,92,-1
 304 42 l 1,93,-1
 320 36 l 1,94,-1
 331 26 l 1,95,-1
 341 15 l 1,96,-1
 352 5 l 1,97,-1
 362 -6 l 1,98,-1
 368 -22 l 1,99,-1
 362 -37 l 1,100,-1
 346 -42 l 1,0,-1
EndSplineSet
Validated: 1
EndChar

StartChar: L
Encoding: 64 76 47
Width: 379
GlyphClass: 2
Flags: W
LayerCount: 2
Fore
SplineSet
325 0 m 1,0,-1
 220 0 l 1,1,-1
 205 -6 l 1,2,-1
 194 -16 l 1,3,-1
 178 -21 l 1,4,-1
 52 -21 l 1,5,-1
 37 -16 l 1,6,-1
 32 -1 l 1,7,-1
 32 419 l 1,8,-1
 37 435 l 1,9,-1
 52 441 l 1,10,-1
 68 435 l 1,11,-1
 74 419 l 1,12,-1
 74 41 l 1,13,-1
 79 26 l 1,14,-1
 94 21 l 1,15,-1
 157 21 l 1,16,-1
 173 26 l 1,17,-1
 184 36 l 1,18,-1
 199 42 l 1,19,-1
 325 42 l 1,20,-1
 341 36 l 1,21,-1
 347 20 l 1,22,-1
 341 5 l 1,23,-1
 325 0 l 1,0,-1
EndSplineSet
Validated: 1
EndChar

StartChar: M
Encoding: 65 77 48
Width: 505
GlyphClass: 2
Flags: W
LayerCount: 2
Fore
SplineSet
451 -42 m 1,0,-1
 436 -37 l 1,1,-1
 431 -22 l 1,2,-1
 431 230 l 1,3,-1
 425 246 l 1,4,-1
 415 246 l 1,5,-1
 404 236 l 1,6,-1
 394 225 l 1,7,-1
 383 215 l 1,8,-1
 373 204 l 1,9,-1
 362 194 l 1,10,-1
 352 183 l 1,11,-1
 347 167 l 1,12,-1
 341 152 l 1,13,-1
 331 141 l 1,14,-1
 320 131 l 1,15,-1
 310 120 l 1,16,-1
 299 110 l 1,17,-1
 289 99 l 1,18,-1
 278 89 l 1,19,-1
 262 84 l 1,20,-1
 220 84 l 1,21,-1
 205 89 l 1,22,-1
 200 104 l 1,23,-1
 194 120 l 1,24,-1
 184 131 l 1,25,-1
 173 141 l 1,26,-1
 163 152 l 1,27,-1
 152 162 l 1,28,-1
 142 173 l 1,29,-1
 137 188 l 1,30,-1
 131 204 l 1,31,-1
 121 215 l 1,32,-1
 116 230 l 1,33,-1
 110 246 l 1,34,-1
 100 246 l 1,35,-1
 95 230 l 1,36,-1
 95 62 l 1,37,-1
 89 47 l 1,38,-1
 79 36 l 1,39,-1
 74 20 l 1,40,-1
 74 -43 l 1,41,-1
 68 -58 l 1,42,-1
 52 -63 l 1,43,-1
 37 -58 l 1,44,-1
 32 -43 l 1,45,-1
 32 41 l 1,46,-1
 37 57 l 1,47,-1
 47 68 l 1,48,-1
 53 83 l 1,49,-1
 53 251 l 1,50,-1
 47 267 l 1,51,-1
 37 278 l 1,52,-1
 32 293 l 1,53,-1
 32 377 l 1,54,-1
 37 393 l 1,55,-1
 52 399 l 1,56,-1
 68 393 l 1,57,-1
 79 383 l 1,58,-1
 89 372 l 1,59,-1
 95 356 l 1,60,-1
 100 341 l 1,61,-1
 110 330 l 1,62,-1
 116 314 l 1,63,-1
 121 299 l 1,64,-1
 131 288 l 1,65,-1
 142 278 l 1,66,-1
 152 267 l 1,67,-1
 158 251 l 1,68,-1
 163 236 l 1,69,-1
 173 225 l 1,70,-1
 179 209 l 1,71,-1
 184 194 l 1,72,-1
 194 183 l 1,73,-1
 205 173 l 1,74,-1
 215 162 l 1,75,-1
 226 152 l 1,76,-1
 241 147 l 1,77,-1
 257 152 l 1,78,-1
 268 162 l 1,79,-1
 278 173 l 1,80,-1
 289 183 l 1,81,-1
 299 194 l 1,82,-1
 310 204 l 1,83,-1
 320 215 l 1,84,-1
 331 225 l 1,85,-1
 341 236 l 1,86,-1
 352 246 l 1,87,-1
 362 257 l 1,88,-1
 368 272 l 1,89,-1
 373 288 l 1,90,-1
 383 299 l 1,91,-1
 394 309 l 1,92,-1
 404 320 l 1,93,-1
 410 335 l 1,94,-1
 415 351 l 1,95,-1
 430 357 l 1,96,-1
 451 357 l 1,97,-1
 467 351 l 1,98,-1
 473 335 l 1,99,-1
 473 -22 l 1,100,-1
 467 -37 l 1,101,-1
 451 -42 l 1,0,-1
EndSplineSet
Validated: 1
EndChar

StartChar: N
Encoding: 66 78 49
Width: 421
GlyphClass: 2
Flags: W
LayerCount: 2
Fore
SplineSet
367 -42 m 1,0,-1
 346 -42 l 1,1,-1
 331 -37 l 1,2,-1
 320 -27 l 1,3,-1
 310 -16 l 1,4,-1
 305 -1 l 1,5,-1
 299 15 l 1,6,-1
 289 26 l 1,7,-1
 284 41 l 1,8,-1
 278 57 l 1,9,-1
 268 68 l 1,10,-1
 257 78 l 1,11,-1
 247 89 l 1,12,-1
 236 99 l 1,13,-1
 226 110 l 1,14,-1
 221 125 l 1,15,-1
 215 141 l 1,16,-1
 205 152 l 1,17,-1
 194 162 l 1,18,-1
 184 173 l 1,19,-1
 173 183 l 1,20,-1
 163 194 l 1,21,-1
 158 209 l 1,22,-1
 152 225 l 1,23,-1
 142 236 l 1,24,-1
 131 246 l 1,25,-1
 121 257 l 1,26,-1
 110 267 l 1,27,-1
 100 267 l 1,28,-1
 95 251 l 1,29,-1
 95 62 l 1,30,-1
 89 47 l 1,31,-1
 79 36 l 1,32,-1
 74 20 l 1,33,-1
 74 -22 l 1,34,-1
 68 -37 l 1,35,-1
 52 -42 l 1,36,-1
 37 -37 l 1,37,-1
 32 -22 l 1,38,-1
 32 41 l 1,39,-1
 37 57 l 1,40,-1
 47 68 l 1,41,-1
 53 83 l 1,42,-1
 53 356 l 1,43,-1
 58 372 l 1,44,-1
 73 378 l 1,45,-1
 94 378 l 1,46,-1
 110 372 l 1,47,-1
 116 356 l 1,48,-1
 121 341 l 1,49,-1
 131 330 l 1,50,-1
 142 320 l 1,51,-1
 152 309 l 1,52,-1
 158 293 l 1,53,-1
 163 278 l 1,54,-1
 173 267 l 1,55,-1
 184 257 l 1,56,-1
 194 246 l 1,57,-1
 200 230 l 1,58,-1
 205 215 l 1,59,-1
 220 210 l 1,60,-1
 236 204 l 1,61,-1
 242 188 l 1,62,-1
 247 173 l 1,63,-1
 257 162 l 1,64,-1
 268 152 l 1,65,-1
 278 141 l 1,66,-1
 284 125 l 1,67,-1
 289 110 l 1,68,-1
 299 99 l 1,69,-1
 310 89 l 1,70,-1
 320 78 l 1,71,-1
 326 62 l 1,72,-1
 331 47 l 1,73,-1
 341 47 l 1,74,-1
 347 62 l 1,75,-1
 347 356 l 1,76,-1
 352 372 l 1,77,-1
 367 378 l 1,78,-1
 383 372 l 1,79,-1
 389 356 l 1,80,-1
 389 -22 l 1,81,-1
 383 -37 l 1,82,-1
 367 -42 l 1,0,-1
EndSplineSet
Validated: 1
EndChar

StartChar: O
Encoding: 67 79 50
Width: 421
GlyphClass: 2
Flags: W
LayerCount: 2
Fore
SplineSet
373 78 m 1,0,-1
 368 62 l 1,1,-1
 368 41 l 1,2,-1
 362 26 l 1,3,-1
 352 15 l 1,4,-1
 341 5 l 1,5,-1
 331 -6 l 1,6,-1
 320 -16 l 1,7,-1
 310 -27 l 1,8,-1
 299 -37 l 1,9,-1
 283 -42 l 1,10,-1
 136 -42 l 1,11,-1
 121 -37 l 1,12,-1
 110 -27 l 1,13,-1
 100 -16 l 1,14,-1
 89 -6 l 1,15,-1
 79 5 l 1,16,-1
 74 20 l 1,17,-1
 68 36 l 1,18,-1
 58 47 l 1,19,-1
 53 62 l 1,20,-1
 47 78 l 1,21,-1
 37 89 l 1,22,-1
 32 104 l 1,23,-1
 32 230 l 1,24,-1
 37 246 l 1,25,-1
 47 257 l 1,26,-1
 53 272 l 1,27,-1
 58 288 l 1,28,-1
 68 299 l 1,29,-1
 74 314 l 1,30,-1
 79 330 l 1,31,-1
 89 341 l 1,32,-1
 100 351 l 1,33,-1
 115 357 l 1,34,-1
 131 362 l 1,35,-1
 142 372 l 1,36,-1
 157 378 l 1,37,-1
 283 378 l 1,38,-1
 299 372 l 1,39,-1
 310 362 l 1,40,-1
 325 357 l 1,41,-1
 341 351 l 1,42,-1
 347 335 l 1,43,-1
 352 320 l 1,44,-1
 362 309 l 1,45,-1
 368 293 l 1,46,-1
 373 278 l 1,47,-1
 383 267 l 1,48,-1
 389 251 l 1,49,-1
 389 104 l 1,50,-1
 383 89 l 1,51,-1
 373 78 l 1,0,-1
347 125 m 1,52,-1
 347 209 l 1,53,-1
 341 225 l 1,54,-1
 331 236 l 1,55,-1
 326 251 l 1,56,-1
 320 267 l 1,57,-1
 310 278 l 1,58,-1
 305 293 l 1,59,-1
 299 309 l 1,60,-1
 283 315 l 1,61,-1
 268 320 l 1,62,-1
 257 330 l 1,63,-1
 241 336 l 1,64,-1
 178 336 l 1,65,-1
 163 330 l 1,66,-1
 152 320 l 1,67,-1
 142 309 l 1,68,-1
 131 299 l 1,69,-1
 121 288 l 1,70,-1
 110 278 l 1,71,-1
 100 267 l 1,72,-1
 95 251 l 1,73,-1
 95 230 l 1,74,-1
 89 215 l 1,75,-1
 79 204 l 1,76,-1
 74 188 l 1,77,-1
 74 125 l 1,78,-1
 79 110 l 1,79,-1
 89 99 l 1,80,-1
 95 83 l 1,81,-1
 100 68 l 1,82,-1
 110 57 l 1,83,-1
 121 47 l 1,84,-1
 131 36 l 1,85,-1
 142 26 l 1,86,-1
 152 15 l 1,87,-1
 163 5 l 1,88,-1
 178 0 l 1,89,-1
 241 0 l 1,90,-1
 257 5 l 1,91,-1
 268 15 l 1,92,-1
 283 21 l 1,93,-1
 299 26 l 1,94,-1
 305 41 l 1,95,-1
 310 57 l 1,96,-1
 320 68 l 1,97,-1
 326 83 l 1,98,-1
 331 99 l 1,99,-1
 341 110 l 1,100,-1
 347 125 l 1,52,-1
EndSplineSet
Validated: 1
EndChar

StartChar: P
Encoding: 68 80 51
Width: 358
GlyphClass: 2
Flags: W
LayerCount: 2
Fore
SplineSet
310 204 m 1,0,-1
 299 194 l 1,1,-1
 289 183 l 1,2,-1
 278 173 l 1,3,-1
 262 168 l 1,4,-1
 247 162 l 1,5,-1
 236 152 l 1,6,-1
 220 147 l 1,7,-1
 94 147 l 1,8,-1
 79 141 l 1,9,-1
 74 125 l 1,10,-1
 79 110 l 1,11,-1
 89 99 l 1,12,-1
 95 83 l 1,13,-1
 95 -43 l 1,14,-1
 89 -58 l 1,15,-1
 73 -63 l 1,16,-1
 58 -58 l 1,17,-1
 53 -43 l 1,18,-1
 53 62 l 1,19,-1
 47 78 l 1,20,-1
 37 89 l 1,21,-1
 32 104 l 1,22,-1
 32 356 l 1,23,-1
 37 372 l 1,24,-1
 52 378 l 1,25,-1
 283 378 l 1,26,-1
 299 372 l 1,27,-1
 310 362 l 1,28,-1
 320 351 l 1,29,-1
 326 335 l 1,30,-1
 326 230 l 1,31,-1
 320 215 l 1,32,-1
 310 204 l 1,0,-1
284 251 m 1,33,-1
 284 293 l 1,34,-1
 278 309 l 1,35,-1
 268 320 l 1,36,-1
 257 330 l 1,37,-1
 241 336 l 1,38,-1
 94 336 l 1,39,-1
 79 330 l 1,40,-1
 74 314 l 1,41,-1
 74 209 l 1,42,-1
 79 194 l 1,43,-1
 94 189 l 1,44,-1
 178 189 l 1,45,-1
 194 194 l 1,46,-1
 205 204 l 1,47,-1
 220 210 l 1,48,-1
 241 210 l 1,49,-1
 257 215 l 1,50,-1
 268 225 l 1,51,-1
 278 236 l 1,52,-1
 284 251 l 1,33,-1
EndSplineSet
Validated: 1
EndChar

StartChar: Q
Encoding: 69 81 52
Width: 526
GlyphClass: 2
Flags: W
LayerCount: 2
Fore
SplineSet
472 -42 m 1,0,-1
 451 -42 l 1,1,-1
 436 -37 l 1,2,-1
 425 -27 l 1,3,-1
 415 -16 l 1,4,-1
 404 -6 l 1,5,-1
 394 5 l 1,6,-1
 383 15 l 1,7,-1
 373 15 l 1,8,-1
 362 5 l 1,9,-1
 352 -6 l 1,10,-1
 341 -16 l 1,11,-1
 325 -21 l 1,12,-1
 310 -27 l 1,13,-1
 299 -37 l 1,14,-1
 289 -48 l 1,15,-1
 278 -58 l 1,16,-1
 262 -63 l 1,17,-1
 157 -63 l 1,18,-1
 142 -58 l 1,19,-1
 131 -48 l 1,20,-1
 115 -42 l 1,21,-1
 100 -37 l 1,22,-1
 89 -27 l 1,23,-1
 79 -16 l 1,24,-1
 74 -1 l 1,25,-1
 68 15 l 1,26,-1
 58 26 l 1,27,-1
 53 41 l 1,28,-1
 47 57 l 1,29,-1
 37 68 l 1,30,-1
 32 83 l 1,31,-1
 32 251 l 1,32,-1
 37 267 l 1,33,-1
 47 278 l 1,34,-1
 53 293 l 1,35,-1
 58 309 l 1,36,-1
 68 320 l 1,37,-1
 79 330 l 1,38,-1
 89 341 l 1,39,-1
 100 351 l 1,40,-1
 110 362 l 1,41,-1
 121 372 l 1,42,-1
 131 383 l 1,43,-1
 142 393 l 1,44,-1
 157 399 l 1,45,-1
 173 404 l 1,46,-1
 184 414 l 1,47,-1
 199 420 l 1,48,-1
 304 420 l 1,49,-1
 320 414 l 1,50,-1
 331 404 l 1,51,-1
 341 393 l 1,52,-1
 352 383 l 1,53,-1
 367 378 l 1,54,-1
 383 372 l 1,55,-1
 394 362 l 1,56,-1
 404 351 l 1,57,-1
 415 341 l 1,58,-1
 425 330 l 1,59,-1
 436 320 l 1,60,-1
 446 309 l 1,61,-1
 452 293 l 1,62,-1
 457 278 l 1,63,-1
 467 267 l 1,64,-1
 473 251 l 1,65,-1
 473 188 l 1,66,-1
 467 173 l 1,67,-1
 457 162 l 1,68,-1
 452 146 l 1,69,-1
 452 104 l 1,70,-1
 446 89 l 1,71,-1
 436 78 l 1,72,-1
 431 62 l 1,73,-1
 431 41 l 1,74,-1
 436 26 l 1,75,-1
 451 21 l 1,76,-1
 467 15 l 1,77,-1
 478 5 l 1,78,-1
 488 -6 l 1,79,-1
 494 -22 l 1,80,-1
 488 -37 l 1,81,-1
 472 -42 l 1,0,-1
431 230 m 1,82,-1
 425 246 l 1,83,-1
 415 257 l 1,84,-1
 404 267 l 1,85,-1
 394 278 l 1,86,-1
 383 288 l 1,87,-1
 373 299 l 1,88,-1
 362 309 l 1,89,-1
 352 320 l 1,90,-1
 341 330 l 1,91,-1
 325 336 l 1,92,-1
 310 341 l 1,93,-1
 299 351 l 1,94,-1
 289 362 l 1,95,-1
 278 372 l 1,96,-1
 262 378 l 1,97,-1
 220 378 l 1,98,-1
 205 372 l 1,99,-1
 194 362 l 1,100,-1
 184 351 l 1,101,-1
 173 341 l 1,102,-1
 157 336 l 1,103,-1
 142 330 l 1,104,-1
 137 314 l 1,105,-1
 131 299 l 1,106,-1
 121 288 l 1,107,-1
 110 278 l 1,108,-1
 100 267 l 1,109,-1
 89 257 l 1,110,-1
 79 246 l 1,111,-1
 74 230 l 1,112,-1
 74 104 l 1,113,-1
 79 89 l 1,114,-1
 89 78 l 1,115,-1
 95 62 l 1,116,-1
 100 47 l 1,117,-1
 110 36 l 1,118,-1
 121 26 l 1,119,-1
 131 15 l 1,120,-1
 142 5 l 1,121,-1
 157 0 l 1,122,-1
 173 -6 l 1,123,-1
 184 -16 l 1,124,-1
 199 -21 l 1,125,-1
 241 -21 l 1,126,-1
 257 -16 l 1,127,-1
 268 -6 l 1,128,-1
 278 5 l 1,129,-1
 289 15 l 1,130,-1
 304 21 l 1,131,-1
 320 26 l 1,132,-1
 326 41 l 1,133,-1
 320 57 l 1,134,-1
 304 63 l 1,135,-1
 289 68 l 1,136,-1
 278 78 l 1,137,-1
 268 89 l 1,138,-1
 263 104 l 1,139,-1
 268 120 l 1,140,-1
 283 126 l 1,141,-1
 304 126 l 1,142,-1
 320 120 l 1,143,-1
 331 110 l 1,144,-1
 341 99 l 1,145,-1
 352 89 l 1,146,-1
 367 84 l 1,147,-1
 383 89 l 1,148,-1
 394 99 l 1,149,-1
 404 110 l 1,150,-1
 410 125 l 1,151,-1
 410 188 l 1,152,-1
 415 204 l 1,153,-1
 425 215 l 1,154,-1
 431 230 l 1,82,-1
EndSplineSet
Validated: 1
EndChar

StartChar: R
Encoding: 70 82 53
Width: 484
GlyphClass: 2
Flags: W
LayerCount: 2
Fore
SplineSet
430 0 m 1,0,-1
 415 5 l 1,1,-1
 404 15 l 1,2,-1
 394 26 l 1,3,-1
 389 41 l 1,4,-1
 383 57 l 1,5,-1
 373 68 l 1,6,-1
 368 83 l 1,7,-1
 362 99 l 1,8,-1
 352 110 l 1,9,-1
 341 120 l 1,10,-1
 325 126 l 1,11,-1
 310 131 l 1,12,-1
 299 141 l 1,13,-1
 289 152 l 1,14,-1
 278 162 l 1,15,-1
 262 168 l 1,16,-1
 199 168 l 1,17,-1
 184 173 l 1,18,-1
 173 183 l 1,19,-1
 157 189 l 1,20,-1
 115 189 l 1,21,-1
 100 183 l 1,22,-1
 95 167 l 1,23,-1
 100 152 l 1,24,-1
 110 141 l 1,25,-1
 116 125 l 1,26,-1
 116 -1 l 1,27,-1
 110 -16 l 1,28,-1
 94 -21 l 1,29,-1
 79 -16 l 1,30,-1
 74 -1 l 1,31,-1
 74 104 l 1,32,-1
 68 120 l 1,33,-1
 58 131 l 1,34,-1
 53 146 l 1,35,-1
 53 251 l 1,36,-1
 47 267 l 1,37,-1
 37 278 l 1,38,-1
 32 293 l 1,39,-1
 32 440 l 1,40,-1
 37 456 l 1,41,-1
 52 462 l 1,42,-1
 304 462 l 1,43,-1
 320 456 l 1,44,-1
 331 446 l 1,45,-1
 341 435 l 1,46,-1
 352 425 l 1,47,-1
 362 414 l 1,48,-1
 373 404 l 1,49,-1
 383 393 l 1,50,-1
 389 377 l 1,51,-1
 389 335 l 1,52,-1
 383 320 l 1,53,-1
 373 309 l 1,54,-1
 362 299 l 1,55,-1
 352 288 l 1,56,-1
 341 278 l 1,57,-1
 331 267 l 1,58,-1
 320 257 l 1,59,-1
 310 246 l 1,60,-1
 299 236 l 1,61,-1
 283 231 l 1,62,-1
 268 225 l 1,63,-1
 268 215 l 1,64,-1
 283 210 l 1,65,-1
 299 204 l 1,66,-1
 310 194 l 1,67,-1
 325 189 l 1,68,-1
 341 183 l 1,69,-1
 352 173 l 1,70,-1
 362 162 l 1,71,-1
 373 152 l 1,72,-1
 383 141 l 1,73,-1
 394 131 l 1,74,-1
 404 120 l 1,75,-1
 415 110 l 1,76,-1
 425 99 l 1,77,-1
 431 83 l 1,78,-1
 436 68 l 1,79,-1
 446 57 l 1,80,-1
 452 41 l 1,81,-1
 452 20 l 1,82,-1
 446 5 l 1,83,-1
 430 0 l 1,0,-1
347 356 m 1,84,-1
 341 372 l 1,85,-1
 331 383 l 1,86,-1
 320 393 l 1,87,-1
 304 399 l 1,88,-1
 289 404 l 1,89,-1
 278 414 l 1,90,-1
 262 420 l 1,91,-1
 94 420 l 1,92,-1
 79 414 l 1,93,-1
 74 398 l 1,94,-1
 74 314 l 1,95,-1
 79 299 l 1,96,-1
 89 288 l 1,97,-1
 95 272 l 1,98,-1
 95 251 l 1,99,-1
 100 236 l 1,100,-1
 115 231 l 1,101,-1
 136 231 l 1,102,-1
 152 236 l 1,103,-1
 163 246 l 1,104,-1
 178 252 l 1,105,-1
 220 252 l 1,106,-1
 236 257 l 1,107,-1
 247 267 l 1,108,-1
 262 273 l 1,109,-1
 278 278 l 1,110,-1
 289 288 l 1,111,-1
 299 299 l 1,112,-1
 310 309 l 1,113,-1
 320 320 l 1,114,-1
 331 330 l 1,115,-1
 341 341 l 1,116,-1
 347 356 l 1,84,-1
EndSplineSet
Validated: 1
EndChar

StartChar: S
Encoding: 71 83 54
Width: 421
GlyphClass: 2
Flags: W
LayerCount: 2
Fore
SplineSet
373 36 m 1,0,-1
 362 26 l 1,1,-1
 352 15 l 1,2,-1
 341 5 l 1,3,-1
 331 -6 l 1,4,-1
 320 -16 l 1,5,-1
 304 -21 l 1,6,-1
 262 -21 l 1,7,-1
 247 -27 l 1,8,-1
 236 -37 l 1,9,-1
 220 -42 l 1,10,-1
 136 -42 l 1,11,-1
 121 -37 l 1,12,-1
 110 -27 l 1,13,-1
 94 -21 l 1,14,-1
 79 -16 l 1,15,-1
 68 -6 l 1,16,-1
 58 5 l 1,17,-1
 53 20 l 1,18,-1
 58 36 l 1,19,-1
 73 42 l 1,20,-1
 94 42 l 1,21,-1
 110 36 l 1,22,-1
 121 26 l 1,23,-1
 131 15 l 1,24,-1
 142 5 l 1,25,-1
 157 0 l 1,26,-1
 199 0 l 1,27,-1
 215 5 l 1,28,-1
 226 15 l 1,29,-1
 241 21 l 1,30,-1
 262 21 l 1,31,-1
 278 26 l 1,32,-1
 289 36 l 1,33,-1
 304 42 l 1,34,-1
 320 47 l 1,35,-1
 331 57 l 1,36,-1
 341 68 l 1,37,-1
 347 83 l 1,38,-1
 341 99 l 1,39,-1
 331 110 l 1,40,-1
 320 120 l 1,41,-1
 310 131 l 1,42,-1
 299 141 l 1,43,-1
 283 147 l 1,44,-1
 241 147 l 1,45,-1
 226 152 l 1,46,-1
 215 162 l 1,47,-1
 199 168 l 1,48,-1
 157 168 l 1,49,-1
 142 173 l 1,50,-1
 131 183 l 1,51,-1
 115 189 l 1,52,-1
 100 194 l 1,53,-1
 89 204 l 1,54,-1
 73 210 l 1,55,-1
 58 215 l 1,56,-1
 47 225 l 1,57,-1
 37 236 l 1,58,-1
 32 251 l 1,59,-1
 32 314 l 1,60,-1
 37 330 l 1,61,-1
 47 341 l 1,62,-1
 53 356 l 1,63,-1
 58 372 l 1,64,-1
 73 378 l 1,65,-1
 89 383 l 1,66,-1
 100 393 l 1,67,-1
 115 399 l 1,68,-1
 283 399 l 1,69,-1
 299 393 l 1,70,-1
 310 383 l 1,71,-1
 320 372 l 1,72,-1
 326 356 l 1,73,-1
 326 335 l 1,74,-1
 320 320 l 1,75,-1
 304 315 l 1,76,-1
 289 320 l 1,77,-1
 278 330 l 1,78,-1
 268 341 l 1,79,-1
 257 351 l 1,80,-1
 241 357 l 1,81,-1
 136 357 l 1,82,-1
 121 351 l 1,83,-1
 110 341 l 1,84,-1
 100 330 l 1,85,-1
 89 320 l 1,86,-1
 79 309 l 1,87,-1
 74 293 l 1,88,-1
 79 278 l 1,89,-1
 89 267 l 1,90,-1
 100 257 l 1,91,-1
 110 246 l 1,92,-1
 121 236 l 1,93,-1
 136 231 l 1,94,-1
 157 231 l 1,95,-1
 173 225 l 1,96,-1
 184 215 l 1,97,-1
 199 210 l 1,98,-1
 220 210 l 1,99,-1
 236 204 l 1,100,-1
 247 194 l 1,101,-1
 262 189 l 1,102,-1
 304 189 l 1,103,-1
 320 183 l 1,104,-1
 331 173 l 1,105,-1
 346 168 l 1,106,-1
 362 162 l 1,107,-1
 373 152 l 1,108,-1
 383 141 l 1,109,-1
 389 125 l 1,110,-1
 389 62 l 1,111,-1
 383 47 l 1,112,-1
 373 36 l 1,0,-1
EndSplineSet
Validated: 1
EndChar

StartChar: T
Encoding: 72 84 55
Width: 505
GlyphClass: 2
Flags: W
LayerCount: 2
Fore
SplineSet
451 378 m 1,0,-1
 283 378 l 1,1,-1
 268 372 l 1,2,-1
 263 356 l 1,3,-1
 263 -1 l 1,4,-1
 257 -16 l 1,5,-1
 241 -21 l 1,6,-1
 226 -16 l 1,7,-1
 221 -1 l 1,8,-1
 221 356 l 1,9,-1
 215 372 l 1,10,-1
 199 378 l 1,11,-1
 94 378 l 1,12,-1
 79 372 l 1,13,-1
 68 362 l 1,14,-1
 52 357 l 1,15,-1
 37 362 l 1,16,-1
 32 377 l 1,17,-1
 32 398 l 1,18,-1
 37 414 l 1,19,-1
 52 420 l 1,20,-1
 451 420 l 1,21,-1
 467 414 l 1,22,-1
 473 398 l 1,23,-1
 467 383 l 1,24,-1
 451 378 l 1,0,-1
EndSplineSet
Validated: 1
EndChar

StartChar: U
Encoding: 73 85 56
Width: 421
GlyphClass: 2
Flags: W
LayerCount: 2
Fore
SplineSet
373 183 m 1,0,-1
 368 167 l 1,1,-1
 368 104 l 1,2,-1
 362 89 l 1,3,-1
 352 78 l 1,4,-1
 347 62 l 1,5,-1
 347 41 l 1,6,-1
 341 26 l 1,7,-1
 331 15 l 1,8,-1
 320 5 l 1,9,-1
 310 -6 l 1,10,-1
 299 -16 l 1,11,-1
 289 -27 l 1,12,-1
 278 -37 l 1,13,-1
 268 -48 l 1,14,-1
 257 -58 l 1,15,-1
 241 -63 l 1,16,-1
 157 -63 l 1,17,-1
 142 -58 l 1,18,-1
 131 -48 l 1,19,-1
 115 -42 l 1,20,-1
 100 -37 l 1,21,-1
 89 -27 l 1,22,-1
 79 -16 l 1,23,-1
 74 -1 l 1,24,-1
 68 15 l 1,25,-1
 58 26 l 1,26,-1
 47 36 l 1,27,-1
 37 47 l 1,28,-1
 32 62 l 1,29,-1
 32 377 l 1,30,-1
 37 393 l 1,31,-1
 52 399 l 1,32,-1
 68 393 l 1,33,-1
 74 377 l 1,34,-1
 74 104 l 1,35,-1
 79 89 l 1,36,-1
 89 78 l 1,37,-1
 95 62 l 1,38,-1
 100 47 l 1,39,-1
 110 36 l 1,40,-1
 121 26 l 1,41,-1
 131 15 l 1,42,-1
 142 5 l 1,43,-1
 157 0 l 1,44,-1
 173 -6 l 1,45,-1
 184 -16 l 1,46,-1
 199 -21 l 1,47,-1
 215 -16 l 1,48,-1
 226 -6 l 1,49,-1
 241 0 l 1,50,-1
 257 5 l 1,51,-1
 268 15 l 1,52,-1
 278 26 l 1,53,-1
 284 41 l 1,54,-1
 289 57 l 1,55,-1
 299 68 l 1,56,-1
 305 83 l 1,57,-1
 310 99 l 1,58,-1
 320 110 l 1,59,-1
 326 125 l 1,60,-1
 326 188 l 1,61,-1
 331 204 l 1,62,-1
 341 215 l 1,63,-1
 347 230 l 1,64,-1
 341 246 l 1,65,-1
 331 257 l 1,66,-1
 326 272 l 1,67,-1
 326 293 l 1,68,-1
 320 309 l 1,69,-1
 310 320 l 1,70,-1
 305 335 l 1,71,-1
 305 356 l 1,72,-1
 310 372 l 1,73,-1
 325 378 l 1,74,-1
 341 372 l 1,75,-1
 347 356 l 1,76,-1
 352 341 l 1,77,-1
 362 330 l 1,78,-1
 368 314 l 1,79,-1
 368 293 l 1,80,-1
 373 278 l 1,81,-1
 383 267 l 1,82,-1
 389 251 l 1,83,-1
 389 209 l 1,84,-1
 383 194 l 1,85,-1
 373 183 l 1,0,-1
EndSplineSet
Validated: 1
EndChar

StartChar: V
Encoding: 74 86 57
Width: 484
GlyphClass: 2
Flags: W
LayerCount: 2
Fore
SplineSet
436 288 m 1,0,-1
 425 278 l 1,1,-1
 415 267 l 1,2,-1
 410 251 l 1,3,-1
 410 230 l 1,4,-1
 404 215 l 1,5,-1
 394 204 l 1,6,-1
 389 188 l 1,7,-1
 389 167 l 1,8,-1
 383 152 l 1,9,-1
 373 141 l 1,10,-1
 368 125 l 1,11,-1
 362 110 l 1,12,-1
 352 99 l 1,13,-1
 341 89 l 1,14,-1
 331 78 l 1,15,-1
 326 62 l 1,16,-1
 320 47 l 1,17,-1
 310 36 l 1,18,-1
 305 20 l 1,19,-1
 299 5 l 1,20,-1
 289 -6 l 1,21,-1
 278 -16 l 1,22,-1
 268 -27 l 1,23,-1
 257 -37 l 1,24,-1
 241 -42 l 1,25,-1
 220 -42 l 1,26,-1
 205 -37 l 1,27,-1
 194 -27 l 1,28,-1
 184 -16 l 1,29,-1
 173 -6 l 1,30,-1
 163 5 l 1,31,-1
 158 20 l 1,32,-1
 152 36 l 1,33,-1
 142 47 l 1,34,-1
 137 62 l 1,35,-1
 137 104 l 1,36,-1
 131 120 l 1,37,-1
 121 131 l 1,38,-1
 116 146 l 1,39,-1
 116 167 l 1,40,-1
 110 183 l 1,41,-1
 100 194 l 1,42,-1
 95 209 l 1,43,-1
 95 230 l 1,44,-1
 89 246 l 1,45,-1
 79 257 l 1,46,-1
 74 272 l 1,47,-1
 74 293 l 1,48,-1
 68 309 l 1,49,-1
 58 320 l 1,50,-1
 47 330 l 1,51,-1
 37 341 l 1,52,-1
 32 356 l 1,53,-1
 32 377 l 1,54,-1
 37 393 l 1,55,-1
 52 399 l 1,56,-1
 68 393 l 1,57,-1
 74 377 l 1,58,-1
 79 362 l 1,59,-1
 89 351 l 1,60,-1
 100 341 l 1,61,-1
 110 330 l 1,62,-1
 116 314 l 1,63,-1
 116 293 l 1,64,-1
 121 278 l 1,65,-1
 131 267 l 1,66,-1
 137 251 l 1,67,-1
 137 230 l 1,68,-1
 142 215 l 1,69,-1
 152 204 l 1,70,-1
 158 188 l 1,71,-1
 158 167 l 1,72,-1
 163 152 l 1,73,-1
 173 141 l 1,74,-1
 179 125 l 1,75,-1
 179 83 l 1,76,-1
 184 68 l 1,77,-1
 194 57 l 1,78,-1
 205 47 l 1,79,-1
 215 36 l 1,80,-1
 221 20 l 1,81,-1
 226 5 l 1,82,-1
 236 5 l 1,83,-1
 242 20 l 1,84,-1
 247 36 l 1,85,-1
 257 47 l 1,86,-1
 268 57 l 1,87,-1
 278 68 l 1,88,-1
 284 83 l 1,89,-1
 289 99 l 1,90,-1
 299 110 l 1,91,-1
 310 120 l 1,92,-1
 320 131 l 1,93,-1
 326 146 l 1,94,-1
 331 162 l 1,95,-1
 341 173 l 1,96,-1
 347 188 l 1,97,-1
 347 209 l 1,98,-1
 352 225 l 1,99,-1
 362 236 l 1,100,-1
 368 251 l 1,101,-1
 368 272 l 1,102,-1
 373 288 l 1,103,-1
 383 299 l 1,104,-1
 389 314 l 1,105,-1
 394 330 l 1,106,-1
 404 341 l 1,107,-1
 410 356 l 1,108,-1
 415 372 l 1,109,-1
 430 378 l 1,110,-1
 446 372 l 1,111,-1
 452 356 l 1,112,-1
 452 314 l 1,113,-1
 446 299 l 1,114,-1
 436 288 l 1,0,-1
EndSplineSet
Validated: 1
EndChar

StartChar: W
Encoding: 75 87 58
Width: 610
GlyphClass: 2
Flags: W
LayerCount: 2
Fore
SplineSet
562 372 m 1,0,-1
 557 356 l 1,1,-1
 557 272 l 1,2,-1
 551 257 l 1,3,-1
 541 246 l 1,4,-1
 536 230 l 1,5,-1
 536 125 l 1,6,-1
 530 110 l 1,7,-1
 520 99 l 1,8,-1
 515 83 l 1,9,-1
 515 41 l 1,10,-1
 509 26 l 1,11,-1
 499 15 l 1,12,-1
 494 -1 l 1,13,-1
 488 -16 l 1,14,-1
 472 -21 l 1,15,-1
 430 -21 l 1,16,-1
 415 -16 l 1,17,-1
 410 -1 l 1,18,-1
 404 15 l 1,19,-1
 394 26 l 1,20,-1
 383 36 l 1,21,-1
 373 47 l 1,22,-1
 368 62 l 1,23,-1
 362 78 l 1,24,-1
 352 89 l 1,25,-1
 341 99 l 1,26,-1
 331 110 l 1,27,-1
 326 125 l 1,28,-1
 320 141 l 1,29,-1
 310 152 l 1,30,-1
 299 162 l 1,31,-1
 289 173 l 1,32,-1
 278 183 l 1,33,-1
 268 183 l 1,34,-1
 263 167 l 1,35,-1
 257 152 l 1,36,-1
 247 141 l 1,37,-1
 236 131 l 1,38,-1
 226 120 l 1,39,-1
 221 104 l 1,40,-1
 215 89 l 1,41,-1
 205 78 l 1,42,-1
 194 68 l 1,43,-1
 184 57 l 1,44,-1
 173 47 l 1,45,-1
 163 36 l 1,46,-1
 152 26 l 1,47,-1
 142 15 l 1,48,-1
 131 5 l 1,49,-1
 121 -6 l 1,50,-1
 110 -16 l 1,51,-1
 94 -21 l 1,52,-1
 79 -16 l 1,53,-1
 74 -1 l 1,54,-1
 74 41 l 1,55,-1
 68 57 l 1,56,-1
 58 68 l 1,57,-1
 53 83 l 1,58,-1
 53 293 l 1,59,-1
 47 309 l 1,60,-1
 37 320 l 1,61,-1
 32 335 l 1,62,-1
 32 419 l 1,63,-1
 37 435 l 1,64,-1
 52 441 l 1,65,-1
 73 441 l 1,66,-1
 89 435 l 1,67,-1
 95 419 l 1,68,-1
 89 404 l 1,69,-1
 79 393 l 1,70,-1
 74 377 l 1,71,-1
 74 356 l 1,72,-1
 79 341 l 1,73,-1
 89 330 l 1,74,-1
 95 314 l 1,75,-1
 95 104 l 1,76,-1
 100 89 l 1,77,-1
 115 84 l 1,78,-1
 131 89 l 1,79,-1
 142 99 l 1,80,-1
 152 110 l 1,81,-1
 163 120 l 1,82,-1
 173 131 l 1,83,-1
 184 141 l 1,84,-1
 194 152 l 1,85,-1
 200 167 l 1,86,-1
 205 183 l 1,87,-1
 215 194 l 1,88,-1
 226 204 l 1,89,-1
 236 215 l 1,90,-1
 242 230 l 1,91,-1
 247 246 l 1,92,-1
 262 252 l 1,93,-1
 283 252 l 1,94,-1
 299 246 l 1,95,-1
 310 236 l 1,96,-1
 320 225 l 1,97,-1
 331 215 l 1,98,-1
 341 204 l 1,99,-1
 347 188 l 1,100,-1
 352 173 l 1,101,-1
 362 162 l 1,102,-1
 368 146 l 1,103,-1
 373 131 l 1,104,-1
 383 120 l 1,105,-1
 394 110 l 1,106,-1
 404 99 l 1,107,-1
 410 83 l 1,108,-1
 415 68 l 1,109,-1
 425 57 l 1,110,-1
 436 47 l 1,111,-1
 446 47 l 1,112,-1
 457 57 l 1,113,-1
 467 68 l 1,114,-1
 473 83 l 1,115,-1
 473 104 l 1,116,-1
 478 120 l 1,117,-1
 488 131 l 1,118,-1
 494 146 l 1,119,-1
 494 251 l 1,120,-1
 499 267 l 1,121,-1
 509 278 l 1,122,-1
 515 293 l 1,123,-1
 515 377 l 1,124,-1
 520 393 l 1,125,-1
 530 404 l 1,126,-1
 536 419 l 1,127,-1
 541 435 l 1,128,-1
 556 441 l 1,129,-1
 572 435 l 1,130,-1
 578 419 l 1,131,-1
 578 398 l 1,132,-1
 572 383 l 1,133,-1
 562 372 l 1,0,-1
EndSplineSet
Validated: 1
EndChar

StartChar: X
Encoding: 76 88 59
Width: 463
GlyphClass: 2
Flags: W
LayerCount: 2
Fore
SplineSet
415 477 m 1,0,-1
 404 467 l 1,1,-1
 394 456 l 1,2,-1
 383 446 l 1,3,-1
 373 435 l 1,4,-1
 368 419 l 1,5,-1
 362 404 l 1,6,-1
 352 393 l 1,7,-1
 347 377 l 1,8,-1
 341 362 l 1,9,-1
 331 351 l 1,10,-1
 320 341 l 1,11,-1
 310 330 l 1,12,-1
 305 314 l 1,13,-1
 299 299 l 1,14,-1
 289 288 l 1,15,-1
 278 278 l 1,16,-1
 268 267 l 1,17,-1
 263 251 l 1,18,-1
 268 236 l 1,19,-1
 278 225 l 1,20,-1
 284 209 l 1,21,-1
 284 188 l 1,22,-1
 289 173 l 1,23,-1
 299 162 l 1,24,-1
 310 152 l 1,25,-1
 320 141 l 1,26,-1
 326 125 l 1,27,-1
 331 110 l 1,28,-1
 341 99 l 1,29,-1
 347 83 l 1,30,-1
 352 68 l 1,31,-1
 362 57 l 1,32,-1
 373 47 l 1,33,-1
 388 42 l 1,34,-1
 404 36 l 1,35,-1
 410 20 l 1,36,-1
 404 5 l 1,37,-1
 388 0 l 1,38,-1
 367 0 l 1,39,-1
 352 5 l 1,40,-1
 341 15 l 1,41,-1
 331 26 l 1,42,-1
 320 36 l 1,43,-1
 310 47 l 1,44,-1
 305 62 l 1,45,-1
 299 78 l 1,46,-1
 289 89 l 1,47,-1
 284 104 l 1,48,-1
 278 120 l 1,49,-1
 268 131 l 1,50,-1
 257 141 l 1,51,-1
 247 152 l 1,52,-1
 242 167 l 1,53,-1
 236 183 l 1,54,-1
 226 183 l 1,55,-1
 215 173 l 1,56,-1
 205 162 l 1,57,-1
 200 146 l 1,58,-1
 194 131 l 1,59,-1
 184 120 l 1,60,-1
 173 110 l 1,61,-1
 163 99 l 1,62,-1
 152 89 l 1,63,-1
 136 84 l 1,64,-1
 121 78 l 1,65,-1
 116 62 l 1,66,-1
 110 47 l 1,67,-1
 100 36 l 1,68,-1
 89 26 l 1,69,-1
 79 15 l 1,70,-1
 68 5 l 1,71,-1
 52 0 l 1,72,-1
 37 5 l 1,73,-1
 32 20 l 1,74,-1
 32 41 l 1,75,-1
 37 57 l 1,76,-1
 52 63 l 1,77,-1
 68 68 l 1,78,-1
 74 83 l 1,79,-1
 79 99 l 1,80,-1
 89 110 l 1,81,-1
 100 120 l 1,82,-1
 115 126 l 1,83,-1
 131 131 l 1,84,-1
 142 141 l 1,85,-1
 152 152 l 1,86,-1
 158 167 l 1,87,-1
 163 183 l 1,88,-1
 173 194 l 1,89,-1
 184 204 l 1,90,-1
 194 215 l 1,91,-1
 194 225 l 1,92,-1
 184 236 l 1,93,-1
 179 251 l 1,94,-1
 173 267 l 1,95,-1
 163 278 l 1,96,-1
 152 288 l 1,97,-1
 142 299 l 1,98,-1
 137 314 l 1,99,-1
 131 330 l 1,100,-1
 121 341 l 1,101,-1
 110 351 l 1,102,-1
 100 362 l 1,103,-1
 89 372 l 1,104,-1
 79 383 l 1,105,-1
 68 393 l 1,106,-1
 58 404 l 1,107,-1
 53 419 l 1,108,-1
 58 435 l 1,109,-1
 73 441 l 1,110,-1
 94 441 l 1,111,-1
 110 435 l 1,112,-1
 121 425 l 1,113,-1
 131 414 l 1,114,-1
 137 398 l 1,115,-1
 142 383 l 1,116,-1
 152 372 l 1,117,-1
 163 362 l 1,118,-1
 173 351 l 1,119,-1
 179 335 l 1,120,-1
 184 320 l 1,121,-1
 194 309 l 1,122,-1
 205 299 l 1,123,-1
 220 294 l 1,124,-1
 236 299 l 1,125,-1
 247 309 l 1,126,-1
 257 320 l 1,127,-1
 263 335 l 1,128,-1
 268 351 l 1,129,-1
 278 362 l 1,130,-1
 289 372 l 1,131,-1
 299 383 l 1,132,-1
 305 398 l 1,133,-1
 310 414 l 1,134,-1
 320 425 l 1,135,-1
 326 440 l 1,136,-1
 331 456 l 1,137,-1
 341 467 l 1,138,-1
 352 477 l 1,139,-1
 362 488 l 1,140,-1
 373 498 l 1,141,-1
 383 509 l 1,142,-1
 394 519 l 1,143,-1
 409 525 l 1,144,-1
 425 519 l 1,145,-1
 431 503 l 1,146,-1
 425 488 l 1,147,-1
 415 477 l 1,0,-1
EndSplineSet
Validated: 1
EndChar

StartChar: Y
Encoding: 77 89 60
Width: 484
GlyphClass: 2
Flags: W
LayerCount: 2
Fore
SplineSet
436 393 m 1,0,-1
 425 383 l 1,1,-1
 415 372 l 1,2,-1
 404 362 l 1,3,-1
 394 351 l 1,4,-1
 383 341 l 1,5,-1
 373 330 l 1,6,-1
 362 320 l 1,7,-1
 352 309 l 1,8,-1
 341 299 l 1,9,-1
 331 288 l 1,10,-1
 320 278 l 1,11,-1
 310 267 l 1,12,-1
 299 257 l 1,13,-1
 289 246 l 1,14,-1
 284 230 l 1,15,-1
 284 20 l 1,16,-1
 278 5 l 1,17,-1
 262 0 l 1,18,-1
 247 5 l 1,19,-1
 242 20 l 1,20,-1
 242 209 l 1,21,-1
 236 225 l 1,22,-1
 226 236 l 1,23,-1
 215 246 l 1,24,-1
 205 257 l 1,25,-1
 194 267 l 1,26,-1
 184 278 l 1,27,-1
 179 293 l 1,28,-1
 173 309 l 1,29,-1
 163 320 l 1,30,-1
 152 330 l 1,31,-1
 142 341 l 1,32,-1
 131 351 l 1,33,-1
 121 362 l 1,34,-1
 110 372 l 1,35,-1
 100 383 l 1,36,-1
 89 393 l 1,37,-1
 79 404 l 1,38,-1
 68 414 l 1,39,-1
 52 420 l 1,40,-1
 37 425 l 1,41,-1
 32 440 l 1,42,-1
 37 456 l 1,43,-1
 52 462 l 1,44,-1
 94 462 l 1,45,-1
 110 456 l 1,46,-1
 116 440 l 1,47,-1
 121 425 l 1,48,-1
 131 414 l 1,49,-1
 142 404 l 1,50,-1
 152 393 l 1,51,-1
 163 383 l 1,52,-1
 173 372 l 1,53,-1
 184 362 l 1,54,-1
 194 351 l 1,55,-1
 205 341 l 1,56,-1
 215 330 l 1,57,-1
 226 320 l 1,58,-1
 236 309 l 1,59,-1
 247 299 l 1,60,-1
 257 299 l 1,61,-1
 268 309 l 1,62,-1
 278 320 l 1,63,-1
 289 330 l 1,64,-1
 304 336 l 1,65,-1
 320 341 l 1,66,-1
 331 351 l 1,67,-1
 341 362 l 1,68,-1
 347 377 l 1,69,-1
 352 393 l 1,70,-1
 367 399 l 1,71,-1
 383 404 l 1,72,-1
 389 419 l 1,73,-1
 394 435 l 1,74,-1
 409 441 l 1,75,-1
 430 441 l 1,76,-1
 446 435 l 1,77,-1
 452 419 l 1,78,-1
 446 404 l 1,79,-1
 436 393 l 1,0,-1
EndSplineSet
Validated: 1
EndChar

StartChar: Z
Encoding: 78 90 61
Width: 505
GlyphClass: 2
Flags: W
LayerCount: 2
Fore
SplineSet
451 -21 m 1,0,-1
 220 -21 l 1,1,-1
 205 -27 l 1,2,-1
 194 -37 l 1,3,-1
 178 -42 l 1,4,-1
 115 -42 l 1,5,-1
 100 -48 l 1,6,-1
 89 -58 l 1,7,-1
 73 -63 l 1,8,-1
 52 -63 l 1,9,-1
 37 -58 l 1,10,-1
 32 -43 l 1,11,-1
 32 -22 l 1,12,-1
 37 -6 l 1,13,-1
 47 5 l 1,14,-1
 58 15 l 1,15,-1
 68 26 l 1,16,-1
 79 36 l 1,17,-1
 89 47 l 1,18,-1
 100 57 l 1,19,-1
 110 68 l 1,20,-1
 121 78 l 1,21,-1
 136 84 l 1,22,-1
 152 89 l 1,23,-1
 163 99 l 1,24,-1
 173 110 l 1,25,-1
 184 120 l 1,26,-1
 194 131 l 1,27,-1
 205 141 l 1,28,-1
 215 152 l 1,29,-1
 226 162 l 1,30,-1
 236 173 l 1,31,-1
 247 183 l 1,32,-1
 257 194 l 1,33,-1
 268 204 l 1,34,-1
 278 215 l 1,35,-1
 289 225 l 1,36,-1
 299 236 l 1,37,-1
 310 246 l 1,38,-1
 320 257 l 1,39,-1
 331 267 l 1,40,-1
 341 278 l 1,41,-1
 347 293 l 1,42,-1
 341 309 l 1,43,-1
 325 315 l 1,44,-1
 94 315 l 1,45,-1
 79 309 l 1,46,-1
 68 299 l 1,47,-1
 52 294 l 1,48,-1
 37 299 l 1,49,-1
 32 314 l 1,50,-1
 32 335 l 1,51,-1
 37 351 l 1,52,-1
 52 357 l 1,53,-1
 409 357 l 1,54,-1
 425 351 l 1,55,-1
 431 335 l 1,56,-1
 431 314 l 1,57,-1
 425 299 l 1,58,-1
 415 288 l 1,59,-1
 404 278 l 1,60,-1
 394 267 l 1,61,-1
 383 257 l 1,62,-1
 373 246 l 1,63,-1
 362 236 l 1,64,-1
 352 225 l 1,65,-1
 347 209 l 1,66,-1
 341 194 l 1,67,-1
 325 189 l 1,68,-1
 310 183 l 1,69,-1
 299 173 l 1,70,-1
 289 162 l 1,71,-1
 284 146 l 1,72,-1
 278 131 l 1,73,-1
 262 126 l 1,74,-1
 247 120 l 1,75,-1
 236 110 l 1,76,-1
 226 99 l 1,77,-1
 215 89 l 1,78,-1
 205 78 l 1,79,-1
 194 68 l 1,80,-1
 184 57 l 1,81,-1
 173 47 l 1,82,-1
 163 36 l 1,83,-1
 152 26 l 1,84,-1
 142 15 l 1,85,-1
 142 5 l 1,86,-1
 157 0 l 1,87,-1
 173 5 l 1,88,-1
 184 15 l 1,89,-1
 199 21 l 1,90,-1
 451 21 l 1,91,-1
 467 15 l 1,92,-1
 473 -1 l 1,93,-1
 467 -16 l 1,94,-1
 451 -21 l 1,0,-1
EndSplineSet
Validated: 1
EndChar

StartChar: bracketleft
Encoding: 79 91 62
Width: 232
GlyphClass: 2
Flags: W
LayerCount: 2
Fore
SplineSet
178 -42 m 1,0,-1
 73 -42 l 1,1,-1
 58 -37 l 1,2,-1
 53 -22 l 1,3,-1
 53 377 l 1,4,-1
 47 393 l 1,5,-1
 37 404 l 1,6,-1
 32 419 l 1,7,-1
 32 608 l 1,8,-1
 37 624 l 1,9,-1
 52 630 l 1,10,-1
 157 630 l 1,11,-1
 173 624 l 1,12,-1
 179 608 l 1,13,-1
 173 593 l 1,14,-1
 157 588 l 1,15,-1
 94 588 l 1,16,-1
 79 582 l 1,17,-1
 74 566 l 1,18,-1
 74 440 l 1,19,-1
 79 425 l 1,20,-1
 89 414 l 1,21,-1
 95 398 l 1,22,-1
 95 20 l 1,23,-1
 100 5 l 1,24,-1
 115 0 l 1,25,-1
 178 0 l 1,26,-1
 194 -6 l 1,27,-1
 200 -22 l 1,28,-1
 194 -37 l 1,29,-1
 178 -42 l 1,0,-1
EndSplineSet
Validated: 1
EndChar

StartChar: backslash
Encoding: 80 92 63
Width: 337
GlyphClass: 2
Flags: W
LayerCount: 2
Fore
SplineSet
283 0 m 1,0,-1
 268 5 l 1,1,-1
 257 15 l 1,2,-1
 247 26 l 1,3,-1
 236 36 l 1,4,-1
 226 47 l 1,5,-1
 221 62 l 1,6,-1
 215 78 l 1,7,-1
 205 89 l 1,8,-1
 200 104 l 1,9,-1
 200 146 l 1,10,-1
 194 162 l 1,11,-1
 184 173 l 1,12,-1
 179 188 l 1,13,-1
 173 204 l 1,14,-1
 163 215 l 1,15,-1
 158 230 l 1,16,-1
 158 251 l 1,17,-1
 152 267 l 1,18,-1
 142 278 l 1,19,-1
 137 293 l 1,20,-1
 137 314 l 1,21,-1
 131 330 l 1,22,-1
 121 341 l 1,23,-1
 116 356 l 1,24,-1
 110 372 l 1,25,-1
 100 383 l 1,26,-1
 95 398 l 1,27,-1
 89 414 l 1,28,-1
 79 425 l 1,29,-1
 74 440 l 1,30,-1
 68 456 l 1,31,-1
 58 467 l 1,32,-1
 47 477 l 1,33,-1
 37 488 l 1,34,-1
 32 503 l 1,35,-1
 32 524 l 1,36,-1
 37 540 l 1,37,-1
 52 546 l 1,38,-1
 68 540 l 1,39,-1
 79 530 l 1,40,-1
 89 519 l 1,41,-1
 95 503 l 1,42,-1
 100 488 l 1,43,-1
 110 477 l 1,44,-1
 116 461 l 1,45,-1
 121 446 l 1,46,-1
 131 435 l 1,47,-1
 137 419 l 1,48,-1
 142 404 l 1,49,-1
 152 393 l 1,50,-1
 158 377 l 1,51,-1
 163 362 l 1,52,-1
 173 351 l 1,53,-1
 179 335 l 1,54,-1
 179 314 l 1,55,-1
 184 299 l 1,56,-1
 194 288 l 1,57,-1
 200 272 l 1,58,-1
 200 251 l 1,59,-1
 205 236 l 1,60,-1
 215 225 l 1,61,-1
 221 209 l 1,62,-1
 226 194 l 1,63,-1
 236 183 l 1,64,-1
 242 167 l 1,65,-1
 242 125 l 1,66,-1
 247 110 l 1,67,-1
 257 99 l 1,68,-1
 263 83 l 1,69,-1
 268 68 l 1,70,-1
 278 57 l 1,71,-1
 289 47 l 1,72,-1
 299 36 l 1,73,-1
 305 20 l 1,74,-1
 299 5 l 1,75,-1
 283 0 l 1,0,-1
EndSplineSet
Validated: 1
EndChar

StartChar: bracketright
Encoding: 81 93 64
Width: 253
GlyphClass: 2
Flags: W
LayerCount: 2
Fore
SplineSet
205 -6 m 1,0,-1
 194 -16 l 1,1,-1
 178 -21 l 1,2,-1
 52 -21 l 1,3,-1
 37 -16 l 1,4,-1
 32 -1 l 1,5,-1
 37 15 l 1,6,-1
 52 21 l 1,7,-1
 136 21 l 1,8,-1
 152 26 l 1,9,-1
 158 41 l 1,10,-1
 158 608 l 1,11,-1
 152 624 l 1,12,-1
 136 630 l 1,13,-1
 52 630 l 1,14,-1
 37 635 l 1,15,-1
 32 650 l 1,16,-1
 37 666 l 1,17,-1
 52 672 l 1,18,-1
 178 672 l 1,19,-1
 194 666 l 1,20,-1
 200 650 l 1,21,-1
 200 104 l 1,22,-1
 205 89 l 1,23,-1
 215 78 l 1,24,-1
 221 62 l 1,25,-1
 221 20 l 1,26,-1
 215 5 l 1,27,-1
 205 -6 l 1,0,-1
EndSplineSet
Validated: 1
EndChar

StartChar: asciicircum
Encoding: 82 94 65
Width: 295
GlyphClass: 2
Flags: W
LayerCount: 2
Fore
SplineSet
241 525 m 1,0,-1
 220 525 l 1,1,-1
 205 530 l 1,2,-1
 194 540 l 1,3,-1
 184 551 l 1,4,-1
 179 566 l 1,5,-1
 179 587 l 1,6,-1
 173 603 l 1,7,-1
 163 614 l 1,8,-1
 152 624 l 1,9,-1
 142 624 l 1,10,-1
 137 608 l 1,11,-1
 131 593 l 1,12,-1
 121 582 l 1,13,-1
 116 566 l 1,14,-1
 110 551 l 1,15,-1
 100 540 l 1,16,-1
 89 530 l 1,17,-1
 73 525 l 1,18,-1
 52 525 l 1,19,-1
 37 530 l 1,20,-1
 32 545 l 1,21,-1
 37 561 l 1,22,-1
 47 572 l 1,23,-1
 58 582 l 1,24,-1
 68 593 l 1,25,-1
 74 608 l 1,26,-1
 79 624 l 1,27,-1
 89 635 l 1,28,-1
 100 645 l 1,29,-1
 110 656 l 1,30,-1
 116 671 l 1,31,-1
 121 687 l 1,32,-1
 136 693 l 1,33,-1
 157 693 l 1,34,-1
 173 687 l 1,35,-1
 184 677 l 1,36,-1
 194 666 l 1,37,-1
 200 650 l 1,38,-1
 205 635 l 1,39,-1
 215 624 l 1,40,-1
 221 608 l 1,41,-1
 226 593 l 1,42,-1
 236 582 l 1,43,-1
 242 566 l 1,44,-1
 247 551 l 1,45,-1
 257 540 l 1,46,-1
 257 530 l 1,47,-1
 241 525 l 1,0,-1
EndSplineSet
Validated: 1
EndChar

StartChar: underscore
Encoding: 83 95 66
Width: 358
GlyphClass: 2
Flags: W
LayerCount: 2
Fore
SplineSet
304 -42 m 1,0,-1
 52 -42 l 1,1,-1
 37 -37 l 1,2,-1
 32 -22 l 1,3,-1
 37 -6 l 1,4,-1
 52 0 l 1,5,-1
 304 0 l 1,6,-1
 320 -6 l 1,7,-1
 326 -22 l 1,8,-1
 320 -37 l 1,9,-1
 304 -42 l 1,0,-1
EndSplineSet
Validated: 1
EndChar

StartChar: grave
Encoding: 84 96 67
Width: 190
GlyphClass: 2
Flags: W
LayerCount: 2
Fore
SplineSet
136 483 m 1,0,-1
 115 483 l 1,1,-1
 100 488 l 1,2,-1
 95 503 l 1,3,-1
 89 519 l 1,4,-1
 79 530 l 1,5,-1
 68 540 l 1,6,-1
 58 551 l 1,7,-1
 47 561 l 1,8,-1
 37 572 l 1,9,-1
 32 587 l 1,10,-1
 37 603 l 1,11,-1
 52 609 l 1,12,-1
 73 609 l 1,13,-1
 89 603 l 1,14,-1
 95 587 l 1,15,-1
 100 572 l 1,16,-1
 110 561 l 1,17,-1
 121 551 l 1,18,-1
 131 540 l 1,19,-1
 142 530 l 1,20,-1
 152 519 l 1,21,-1
 158 503 l 1,22,-1
 152 488 l 1,23,-1
 136 483 l 1,0,-1
EndSplineSet
Validated: 1
EndChar

StartChar: a
Encoding: 85 97 68
Width: 421
GlyphClass: 2
Flags: W
LayerCount: 2
Fore
SplineSet
373 36 m 1,0,-1
 368 20 l 1,1,-1
 362 5 l 1,2,-1
 346 0 l 1,3,-1
 73 0 l 1,4,-1
 58 5 l 1,5,-1
 47 15 l 1,6,-1
 37 26 l 1,7,-1
 32 41 l 1,8,-1
 32 62 l 1,9,-1
 37 78 l 1,10,-1
 47 89 l 1,11,-1
 53 104 l 1,12,-1
 53 125 l 1,13,-1
 58 141 l 1,14,-1
 68 152 l 1,15,-1
 79 162 l 1,16,-1
 94 168 l 1,17,-1
 283 168 l 1,18,-1
 299 162 l 1,19,-1
 310 152 l 1,20,-1
 320 152 l 1,21,-1
 326 167 l 1,22,-1
 326 209 l 1,23,-1
 320 225 l 1,24,-1
 310 236 l 1,25,-1
 305 251 l 1,26,-1
 299 267 l 1,27,-1
 289 278 l 1,28,-1
 278 288 l 1,29,-1
 262 294 l 1,30,-1
 178 294 l 1,31,-1
 163 288 l 1,32,-1
 152 278 l 1,33,-1
 142 267 l 1,34,-1
 131 257 l 1,35,-1
 121 246 l 1,36,-1
 110 236 l 1,37,-1
 94 231 l 1,38,-1
 79 236 l 1,39,-1
 74 251 l 1,40,-1
 74 272 l 1,41,-1
 79 288 l 1,42,-1
 89 299 l 1,43,-1
 100 309 l 1,44,-1
 115 315 l 1,45,-1
 131 320 l 1,46,-1
 142 330 l 1,47,-1
 157 336 l 1,48,-1
 283 336 l 1,49,-1
 299 330 l 1,50,-1
 310 320 l 1,51,-1
 320 309 l 1,52,-1
 331 299 l 1,53,-1
 341 288 l 1,54,-1
 352 278 l 1,55,-1
 362 267 l 1,56,-1
 368 251 l 1,57,-1
 368 104 l 1,58,-1
 373 89 l 1,59,-1
 383 78 l 1,60,-1
 389 62 l 1,61,-1
 383 47 l 1,62,-1
 373 36 l 1,0,-1
320 78 m 1,63,-1
 310 89 l 1,64,-1
 299 99 l 1,65,-1
 283 105 l 1,66,-1
 268 110 l 1,67,-1
 257 120 l 1,68,-1
 241 126 l 1,69,-1
 136 126 l 1,70,-1
 121 120 l 1,71,-1
 110 110 l 1,72,-1
 100 99 l 1,73,-1
 95 83 l 1,74,-1
 95 62 l 1,75,-1
 100 47 l 1,76,-1
 115 42 l 1,77,-1
 262 42 l 1,78,-1
 278 47 l 1,79,-1
 289 57 l 1,80,-1
 304 63 l 1,81,-1
 320 68 l 1,82,-1
 320 78 l 1,63,-1
EndSplineSet
Validated: 1
EndChar

StartChar: b
Encoding: 86 98 69
Width: 379
GlyphClass: 2
Flags: W
LayerCount: 2
Fore
SplineSet
331 57 m 1,0,-1
 320 47 l 1,1,-1
 310 36 l 1,2,-1
 299 26 l 1,3,-1
 289 15 l 1,4,-1
 278 5 l 1,5,-1
 262 0 l 1,6,-1
 220 0 l 1,7,-1
 205 -6 l 1,8,-1
 194 -16 l 1,9,-1
 178 -21 l 1,10,-1
 52 -21 l 1,11,-1
 37 -16 l 1,12,-1
 32 -1 l 1,13,-1
 32 461 l 1,14,-1
 37 477 l 1,15,-1
 52 483 l 1,16,-1
 68 477 l 1,17,-1
 74 461 l 1,18,-1
 74 230 l 1,19,-1
 79 215 l 1,20,-1
 89 215 l 1,21,-1
 100 225 l 1,22,-1
 115 231 l 1,23,-1
 131 236 l 1,24,-1
 142 246 l 1,25,-1
 157 252 l 1,26,-1
 262 252 l 1,27,-1
 278 246 l 1,28,-1
 289 236 l 1,29,-1
 299 225 l 1,30,-1
 310 215 l 1,31,-1
 320 204 l 1,32,-1
 326 188 l 1,33,-1
 331 173 l 1,34,-1
 341 162 l 1,35,-1
 347 146 l 1,36,-1
 347 83 l 1,37,-1
 341 68 l 1,38,-1
 331 57 l 1,0,-1
305 104 m 1,39,-1
 305 125 l 1,40,-1
 299 141 l 1,41,-1
 289 152 l 1,42,-1
 284 167 l 1,43,-1
 278 183 l 1,44,-1
 262 189 l 1,45,-1
 247 194 l 1,46,-1
 236 204 l 1,47,-1
 220 210 l 1,48,-1
 178 210 l 1,49,-1
 163 204 l 1,50,-1
 152 194 l 1,51,-1
 136 189 l 1,52,-1
 121 183 l 1,53,-1
 116 167 l 1,54,-1
 110 152 l 1,55,-1
 100 141 l 1,56,-1
 95 125 l 1,57,-1
 95 83 l 1,58,-1
 100 68 l 1,59,-1
 110 57 l 1,60,-1
 116 41 l 1,61,-1
 121 26 l 1,62,-1
 136 21 l 1,63,-1
 157 21 l 1,64,-1
 173 26 l 1,65,-1
 184 36 l 1,66,-1
 199 42 l 1,67,-1
 241 42 l 1,68,-1
 257 47 l 1,69,-1
 268 57 l 1,70,-1
 278 68 l 1,71,-1
 289 78 l 1,72,-1
 299 89 l 1,73,-1
 305 104 l 1,39,-1
EndSplineSet
Validated: 1
EndChar

StartChar: c
Encoding: 87 99 70
Width: 358
GlyphClass: 2
Flags: W
LayerCount: 2
Fore
SplineSet
304 21 m 1,0,-1
 289 15 l 1,1,-1
 278 5 l 1,2,-1
 262 0 l 1,3,-1
 94 0 l 1,4,-1
 79 5 l 1,5,-1
 68 15 l 1,6,-1
 58 26 l 1,7,-1
 53 41 l 1,8,-1
 47 57 l 1,9,-1
 37 68 l 1,10,-1
 32 83 l 1,11,-1
 32 188 l 1,12,-1
 37 204 l 1,13,-1
 47 215 l 1,14,-1
 53 230 l 1,15,-1
 58 246 l 1,16,-1
 68 257 l 1,17,-1
 79 267 l 1,18,-1
 89 278 l 1,19,-1
 100 288 l 1,20,-1
 115 294 l 1,21,-1
 131 299 l 1,22,-1
 142 309 l 1,23,-1
 157 315 l 1,24,-1
 199 315 l 1,25,-1
 215 309 l 1,26,-1
 226 299 l 1,27,-1
 241 294 l 1,28,-1
 257 288 l 1,29,-1
 268 278 l 1,30,-1
 278 267 l 1,31,-1
 284 251 l 1,32,-1
 278 236 l 1,33,-1
 262 231 l 1,34,-1
 241 231 l 1,35,-1
 226 236 l 1,36,-1
 215 246 l 1,37,-1
 199 252 l 1,38,-1
 184 257 l 1,39,-1
 173 267 l 1,40,-1
 163 267 l 1,41,-1
 152 257 l 1,42,-1
 136 252 l 1,43,-1
 121 246 l 1,44,-1
 110 236 l 1,45,-1
 100 225 l 1,46,-1
 95 209 l 1,47,-1
 89 194 l 1,48,-1
 79 183 l 1,49,-1
 74 167 l 1,50,-1
 74 104 l 1,51,-1
 79 89 l 1,52,-1
 89 78 l 1,53,-1
 100 68 l 1,54,-1
 110 57 l 1,55,-1
 121 47 l 1,56,-1
 136 42 l 1,57,-1
 241 42 l 1,58,-1
 257 47 l 1,59,-1
 268 57 l 1,60,-1
 283 63 l 1,61,-1
 304 63 l 1,62,-1
 320 57 l 1,63,-1
 326 41 l 1,64,-1
 320 26 l 1,65,-1
 304 21 l 1,0,-1
EndSplineSet
Validated: 1
EndChar

StartChar: d
Encoding: 88 100 71
Width: 442
GlyphClass: 2
Flags: W
LayerCount: 2
Fore
SplineSet
388 -42 m 1,0,-1
 373 -37 l 1,1,-1
 362 -27 l 1,2,-1
 352 -16 l 1,3,-1
 347 -1 l 1,4,-1
 347 83 l 1,5,-1
 341 99 l 1,6,-1
 331 99 l 1,7,-1
 326 83 l 1,8,-1
 320 68 l 1,9,-1
 310 57 l 1,10,-1
 299 47 l 1,11,-1
 289 36 l 1,12,-1
 278 26 l 1,13,-1
 262 21 l 1,14,-1
 157 21 l 1,15,-1
 142 26 l 1,16,-1
 131 36 l 1,17,-1
 115 42 l 1,18,-1
 100 47 l 1,19,-1
 89 57 l 1,20,-1
 73 63 l 1,21,-1
 58 68 l 1,22,-1
 47 78 l 1,23,-1
 37 89 l 1,24,-1
 32 104 l 1,25,-1
 32 167 l 1,26,-1
 37 183 l 1,27,-1
 47 194 l 1,28,-1
 58 204 l 1,29,-1
 68 215 l 1,30,-1
 79 225 l 1,31,-1
 89 236 l 1,32,-1
 95 251 l 1,33,-1
 100 267 l 1,34,-1
 115 273 l 1,35,-1
 131 278 l 1,36,-1
 142 288 l 1,37,-1
 157 294 l 1,38,-1
 283 294 l 1,39,-1
 299 288 l 1,40,-1
 310 278 l 1,41,-1
 320 278 l 1,42,-1
 326 293 l 1,43,-1
 326 335 l 1,44,-1
 320 351 l 1,45,-1
 310 362 l 1,46,-1
 305 377 l 1,47,-1
 305 482 l 1,48,-1
 310 498 l 1,49,-1
 325 504 l 1,50,-1
 341 498 l 1,51,-1
 347 482 l 1,52,-1
 352 467 l 1,53,-1
 362 456 l 1,54,-1
 368 440 l 1,55,-1
 368 377 l 1,56,-1
 373 362 l 1,57,-1
 383 351 l 1,58,-1
 389 335 l 1,59,-1
 389 41 l 1,60,-1
 394 26 l 1,61,-1
 404 15 l 1,62,-1
 410 -1 l 1,63,-1
 410 -22 l 1,64,-1
 404 -37 l 1,65,-1
 388 -42 l 1,0,-1
320 204 m 1,66,-1
 310 215 l 1,67,-1
 299 225 l 1,68,-1
 289 236 l 1,69,-1
 278 246 l 1,70,-1
 262 252 l 1,71,-1
 199 252 l 1,72,-1
 184 246 l 1,73,-1
 173 236 l 1,74,-1
 157 231 l 1,75,-1
 142 225 l 1,76,-1
 131 215 l 1,77,-1
 121 204 l 1,78,-1
 110 194 l 1,79,-1
 100 183 l 1,80,-1
 95 167 l 1,81,-1
 89 152 l 1,82,-1
 79 141 l 1,83,-1
 79 131 l 1,84,-1
 89 120 l 1,85,-1
 100 110 l 1,86,-1
 110 99 l 1,87,-1
 121 89 l 1,88,-1
 136 84 l 1,89,-1
 152 78 l 1,90,-1
 163 68 l 1,91,-1
 178 63 l 1,92,-1
 241 63 l 1,93,-1
 257 68 l 1,94,-1
 263 83 l 1,95,-1
 268 99 l 1,96,-1
 278 110 l 1,97,-1
 289 120 l 1,98,-1
 299 131 l 1,99,-1
 305 146 l 1,100,-1
 305 167 l 1,101,-1
 310 183 l 1,102,-1
 320 194 l 1,103,-1
 320 204 l 1,66,-1
EndSplineSet
Validated: 1
EndChar

StartChar: e
Encoding: 89 101 72
Width: 379
GlyphClass: 2
Flags: W
LayerCount: 2
Fore
SplineSet
325 21 m 1,0,-1
 304 21 l 1,1,-1
 289 15 l 1,2,-1
 278 5 l 1,3,-1
 262 0 l 1,4,-1
 115 0 l 1,5,-1
 100 5 l 1,6,-1
 89 15 l 1,7,-1
 73 21 l 1,8,-1
 58 26 l 1,9,-1
 47 36 l 1,10,-1
 37 47 l 1,11,-1
 32 62 l 1,12,-1
 32 188 l 1,13,-1
 37 204 l 1,14,-1
 47 215 l 1,15,-1
 53 230 l 1,16,-1
 58 246 l 1,17,-1
 68 257 l 1,18,-1
 79 267 l 1,19,-1
 89 278 l 1,20,-1
 100 288 l 1,21,-1
 115 294 l 1,22,-1
 131 299 l 1,23,-1
 142 309 l 1,24,-1
 157 315 l 1,25,-1
 220 315 l 1,26,-1
 236 309 l 1,27,-1
 247 299 l 1,28,-1
 262 294 l 1,29,-1
 278 288 l 1,30,-1
 289 278 l 1,31,-1
 299 267 l 1,32,-1
 310 257 l 1,33,-1
 320 246 l 1,34,-1
 326 230 l 1,35,-1
 326 188 l 1,36,-1
 320 173 l 1,37,-1
 304 168 l 1,38,-1
 157 168 l 1,39,-1
 142 162 l 1,40,-1
 131 152 l 1,41,-1
 115 147 l 1,42,-1
 94 147 l 1,43,-1
 79 141 l 1,44,-1
 74 125 l 1,45,-1
 74 104 l 1,46,-1
 79 89 l 1,47,-1
 89 78 l 1,48,-1
 100 68 l 1,49,-1
 110 57 l 1,50,-1
 121 47 l 1,51,-1
 136 42 l 1,52,-1
 220 42 l 1,53,-1
 236 47 l 1,54,-1
 247 57 l 1,55,-1
 262 63 l 1,56,-1
 283 63 l 1,57,-1
 299 68 l 1,58,-1
 310 78 l 1,59,-1
 325 84 l 1,60,-1
 341 78 l 1,61,-1
 347 62 l 1,62,-1
 347 41 l 1,63,-1
 341 26 l 1,64,-1
 325 21 l 1,0,-1
257 225 m 1,65,-1
 247 236 l 1,66,-1
 236 246 l 1,67,-1
 220 252 l 1,68,-1
 205 257 l 1,69,-1
 194 267 l 1,70,-1
 178 273 l 1,71,-1
 163 267 l 1,72,-1
 152 257 l 1,73,-1
 136 252 l 1,74,-1
 121 246 l 1,75,-1
 110 236 l 1,76,-1
 100 225 l 1,77,-1
 100 215 l 1,78,-1
 115 210 l 1,79,-1
 241 210 l 1,80,-1
 257 215 l 1,81,-1
 257 225 l 1,65,-1
EndSplineSet
Validated: 1
EndChar

StartChar: f
Encoding: 90 102 73
Width: 400
GlyphClass: 2
Flags: W
LayerCount: 2
Fore
SplineSet
346 357 m 1,0,-1
 331 362 l 1,1,-1
 320 372 l 1,2,-1
 310 383 l 1,3,-1
 299 393 l 1,4,-1
 289 404 l 1,5,-1
 278 414 l 1,6,-1
 268 425 l 1,7,-1
 257 435 l 1,8,-1
 241 441 l 1,9,-1
 226 435 l 1,10,-1
 215 425 l 1,11,-1
 205 414 l 1,12,-1
 200 398 l 1,13,-1
 194 383 l 1,14,-1
 184 372 l 1,15,-1
 179 356 l 1,16,-1
 179 230 l 1,17,-1
 184 215 l 1,18,-1
 199 210 l 1,19,-1
 325 210 l 1,20,-1
 341 204 l 1,21,-1
 347 188 l 1,22,-1
 341 173 l 1,23,-1
 325 168 l 1,24,-1
 199 168 l 1,25,-1
 184 162 l 1,26,-1
 179 146 l 1,27,-1
 179 104 l 1,28,-1
 184 89 l 1,29,-1
 194 78 l 1,30,-1
 200 62 l 1,31,-1
 200 -1 l 1,32,-1
 194 -16 l 1,33,-1
 178 -21 l 1,34,-1
 163 -16 l 1,35,-1
 158 -1 l 1,36,-1
 158 41 l 1,37,-1
 152 57 l 1,38,-1
 142 68 l 1,39,-1
 137 83 l 1,40,-1
 137 146 l 1,41,-1
 131 162 l 1,42,-1
 115 168 l 1,43,-1
 94 168 l 1,44,-1
 79 162 l 1,45,-1
 68 152 l 1,46,-1
 52 147 l 1,47,-1
 37 152 l 1,48,-1
 32 167 l 1,49,-1
 37 183 l 1,50,-1
 47 194 l 1,51,-1
 58 204 l 1,52,-1
 73 210 l 1,53,-1
 115 210 l 1,54,-1
 131 215 l 1,55,-1
 137 230 l 1,56,-1
 137 377 l 1,57,-1
 142 393 l 1,58,-1
 152 404 l 1,59,-1
 158 419 l 1,60,-1
 158 440 l 1,61,-1
 163 456 l 1,62,-1
 173 467 l 1,63,-1
 184 477 l 1,64,-1
 199 483 l 1,65,-1
 262 483 l 1,66,-1
 278 477 l 1,67,-1
 289 467 l 1,68,-1
 304 462 l 1,69,-1
 320 456 l 1,70,-1
 331 446 l 1,71,-1
 341 435 l 1,72,-1
 352 425 l 1,73,-1
 362 414 l 1,74,-1
 368 398 l 1,75,-1
 368 377 l 1,76,-1
 362 362 l 1,77,-1
 346 357 l 1,0,-1
EndSplineSet
Validated: 1
EndChar

StartChar: g
Encoding: 91 103 74
Width: 400
GlyphClass: 2
Flags: W
LayerCount: 2
Fore
SplineSet
352 -132 m 1,0,-1
 347 -148 l 1,1,-1
 341 -163 l 1,2,-1
 331 -174 l 1,3,-1
 320 -184 l 1,4,-1
 304 -189 l 1,5,-1
 289 -195 l 1,6,-1
 278 -205 l 1,7,-1
 262 -210 l 1,8,-1
 136 -210 l 1,9,-1
 121 -205 l 1,10,-1
 110 -195 l 1,11,-1
 100 -184 l 1,12,-1
 89 -174 l 1,13,-1
 79 -163 l 1,14,-1
 68 -153 l 1,15,-1
 58 -142 l 1,16,-1
 53 -127 l 1,17,-1
 58 -111 l 1,18,-1
 68 -100 l 1,19,-1
 79 -90 l 1,20,-1
 94 -84 l 1,21,-1
 110 -90 l 1,22,-1
 116 -106 l 1,23,-1
 116 -127 l 1,24,-1
 121 -142 l 1,25,-1
 131 -153 l 1,26,-1
 142 -163 l 1,27,-1
 157 -168 l 1,28,-1
 220 -168 l 1,29,-1
 236 -163 l 1,30,-1
 247 -153 l 1,31,-1
 262 -147 l 1,32,-1
 278 -142 l 1,33,-1
 289 -132 l 1,34,-1
 299 -121 l 1,35,-1
 310 -111 l 1,36,-1
 320 -100 l 1,37,-1
 326 -85 l 1,38,-1
 326 83 l 1,39,-1
 320 99 l 1,40,-1
 310 99 l 1,41,-1
 299 89 l 1,42,-1
 289 78 l 1,43,-1
 278 68 l 1,44,-1
 268 57 l 1,45,-1
 257 47 l 1,46,-1
 241 42 l 1,47,-1
 94 42 l 1,48,-1
 79 47 l 1,49,-1
 68 57 l 1,50,-1
 52 63 l 1,51,-1
 37 68 l 1,52,-1
 32 83 l 1,53,-1
 32 209 l 1,54,-1
 37 225 l 1,55,-1
 47 236 l 1,56,-1
 53 251 l 1,57,-1
 58 267 l 1,58,-1
 68 278 l 1,59,-1
 79 288 l 1,60,-1
 89 299 l 1,61,-1
 100 309 l 1,62,-1
 115 315 l 1,63,-1
 262 315 l 1,64,-1
 278 309 l 1,65,-1
 289 299 l 1,66,-1
 299 288 l 1,67,-1
 305 272 l 1,68,-1
 310 257 l 1,69,-1
 320 246 l 1,70,-1
 326 230 l 1,71,-1
 326 209 l 1,72,-1
 331 194 l 1,73,-1
 341 183 l 1,74,-1
 347 167 l 1,75,-1
 347 146 l 1,76,-1
 352 131 l 1,77,-1
 362 120 l 1,78,-1
 368 104 l 1,79,-1
 368 -106 l 1,80,-1
 362 -121 l 1,81,-1
 352 -132 l 1,0,-1
284 167 m 1,82,-1
 284 209 l 1,83,-1
 278 225 l 1,84,-1
 268 236 l 1,85,-1
 257 246 l 1,86,-1
 247 257 l 1,87,-1
 236 267 l 1,88,-1
 220 273 l 1,89,-1
 157 273 l 1,90,-1
 142 267 l 1,91,-1
 131 257 l 1,92,-1
 121 246 l 1,93,-1
 110 236 l 1,94,-1
 100 225 l 1,95,-1
 95 209 l 1,96,-1
 89 194 l 1,97,-1
 79 183 l 1,98,-1
 74 167 l 1,99,-1
 74 125 l 1,100,-1
 79 110 l 1,101,-1
 89 99 l 1,102,-1
 100 89 l 1,103,-1
 115 84 l 1,104,-1
 199 84 l 1,105,-1
 215 89 l 1,106,-1
 226 99 l 1,107,-1
 241 105 l 1,108,-1
 257 110 l 1,109,-1
 263 125 l 1,110,-1
 268 141 l 1,111,-1
 278 152 l 1,112,-1
 284 167 l 1,82,-1
EndSplineSet
Validated: 1
EndChar

StartChar: h
Encoding: 92 104 75
Width: 337
GlyphClass: 2
Flags: W
LayerCount: 2
Fore
SplineSet
283 0 m 1,0,-1
 268 5 l 1,1,-1
 263 20 l 1,2,-1
 263 167 l 1,3,-1
 257 183 l 1,4,-1
 247 194 l 1,5,-1
 242 209 l 1,6,-1
 236 225 l 1,7,-1
 220 231 l 1,8,-1
 157 231 l 1,9,-1
 142 225 l 1,10,-1
 131 215 l 1,11,-1
 121 204 l 1,12,-1
 110 194 l 1,13,-1
 100 183 l 1,14,-1
 95 167 l 1,15,-1
 89 152 l 1,16,-1
 79 141 l 1,17,-1
 74 125 l 1,18,-1
 74 41 l 1,19,-1
 68 26 l 1,20,-1
 52 21 l 1,21,-1
 37 26 l 1,22,-1
 32 41 l 1,23,-1
 32 482 l 1,24,-1
 37 498 l 1,25,-1
 52 504 l 1,26,-1
 68 498 l 1,27,-1
 74 482 l 1,28,-1
 74 272 l 1,29,-1
 79 257 l 1,30,-1
 94 252 l 1,31,-1
 110 257 l 1,32,-1
 121 267 l 1,33,-1
 136 273 l 1,34,-1
 241 273 l 1,35,-1
 257 267 l 1,36,-1
 268 257 l 1,37,-1
 278 246 l 1,38,-1
 284 230 l 1,39,-1
 289 215 l 1,40,-1
 299 204 l 1,41,-1
 305 188 l 1,42,-1
 305 20 l 1,43,-1
 299 5 l 1,44,-1
 283 0 l 1,0,-1
EndSplineSet
Validated: 1
EndChar

StartChar: i
Encoding: 93 105 76
Width: 148
GlyphClass: 2
Flags: W
LayerCount: 2
Fore
SplineSet
100 183 m 1,0,-1
 95 167 l 1,1,-1
 95 -1 l 1,2,-1
 89 -16 l 1,3,-1
 73 -21 l 1,4,-1
 58 -16 l 1,5,-1
 53 -1 l 1,6,-1
 53 209 l 1,7,-1
 58 225 l 1,8,-1
 68 236 l 1,9,-1
 79 246 l 1,10,-1
 94 252 l 1,11,-1
 110 246 l 1,12,-1
 116 230 l 1,13,-1
 116 209 l 1,14,-1
 110 194 l 1,15,-1
 100 183 l 1,0,-1
52 336 m 1,16,-1
 37 341 l 1,17,-1
 32 356 l 1,18,-1
 37 372 l 1,19,-1
 52 378 l 1,20,-1
 68 372 l 1,21,-1
 74 356 l 1,22,-1
 68 341 l 1,23,-1
 52 336 l 1,16,-1
EndSplineSet
Validated: 1
EndChar

StartChar: j
Encoding: 94 106 77
Width: 253
GlyphClass: 2
Flags: W
LayerCount: 2
Fore
SplineSet
199 -189 m 1,0,-1
 94 -189 l 1,1,-1
 79 -184 l 1,2,-1
 68 -174 l 1,3,-1
 58 -163 l 1,4,-1
 53 -148 l 1,5,-1
 47 -132 l 1,6,-1
 37 -121 l 1,7,-1
 32 -106 l 1,8,-1
 32 -64 l 1,9,-1
 37 -48 l 1,10,-1
 52 -42 l 1,11,-1
 68 -48 l 1,12,-1
 74 -64 l 1,13,-1
 79 -79 l 1,14,-1
 89 -90 l 1,15,-1
 95 -106 l 1,16,-1
 100 -121 l 1,17,-1
 110 -132 l 1,18,-1
 121 -142 l 1,19,-1
 136 -147 l 1,20,-1
 157 -147 l 1,21,-1
 173 -142 l 1,22,-1
 179 -127 l 1,23,-1
 179 -1 l 1,24,-1
 173 15 l 1,25,-1
 163 26 l 1,26,-1
 158 41 l 1,27,-1
 158 104 l 1,28,-1
 152 120 l 1,29,-1
 142 131 l 1,30,-1
 137 146 l 1,31,-1
 137 188 l 1,32,-1
 131 204 l 1,33,-1
 121 215 l 1,34,-1
 116 230 l 1,35,-1
 116 293 l 1,36,-1
 121 309 l 1,37,-1
 136 315 l 1,38,-1
 152 309 l 1,39,-1
 158 293 l 1,40,-1
 158 251 l 1,41,-1
 163 236 l 1,42,-1
 173 225 l 1,43,-1
 179 209 l 1,44,-1
 179 167 l 1,45,-1
 184 152 l 1,46,-1
 194 141 l 1,47,-1
 200 125 l 1,48,-1
 200 62 l 1,49,-1
 205 47 l 1,50,-1
 215 36 l 1,51,-1
 221 20 l 1,52,-1
 221 -169 l 1,53,-1
 215 -184 l 1,54,-1
 199 -189 l 1,0,-1
115 399 m 1,55,-1
 94 399 l 1,56,-1
 79 404 l 1,57,-1
 74 419 l 1,58,-1
 74 440 l 1,59,-1
 79 456 l 1,60,-1
 94 462 l 1,61,-1
 115 462 l 1,62,-1
 131 456 l 1,63,-1
 137 440 l 1,64,-1
 137 419 l 1,65,-1
 131 404 l 1,66,-1
 115 399 l 1,55,-1
EndSplineSet
Validated: 1
EndChar

StartChar: k
Encoding: 95 107 78
Width: 379
GlyphClass: 2
Flags: W
LayerCount: 2
Fore
SplineSet
325 21 m 1,0,-1
 310 26 l 1,1,-1
 299 36 l 1,2,-1
 289 47 l 1,3,-1
 278 57 l 1,4,-1
 262 63 l 1,5,-1
 247 68 l 1,6,-1
 236 78 l 1,7,-1
 220 84 l 1,8,-1
 205 89 l 1,9,-1
 194 99 l 1,10,-1
 178 105 l 1,11,-1
 157 105 l 1,12,-1
 142 110 l 1,13,-1
 131 120 l 1,14,-1
 115 126 l 1,15,-1
 94 126 l 1,16,-1
 79 120 l 1,17,-1
 74 104 l 1,18,-1
 74 20 l 1,19,-1
 68 5 l 1,20,-1
 52 0 l 1,21,-1
 37 5 l 1,22,-1
 32 20 l 1,23,-1
 32 461 l 1,24,-1
 37 477 l 1,25,-1
 52 483 l 1,26,-1
 68 477 l 1,27,-1
 74 461 l 1,28,-1
 74 230 l 1,29,-1
 79 215 l 1,30,-1
 89 215 l 1,31,-1
 100 225 l 1,32,-1
 115 231 l 1,33,-1
 131 236 l 1,34,-1
 142 246 l 1,35,-1
 157 252 l 1,36,-1
 173 257 l 1,37,-1
 184 267 l 1,38,-1
 194 278 l 1,39,-1
 205 288 l 1,40,-1
 215 299 l 1,41,-1
 226 309 l 1,42,-1
 236 320 l 1,43,-1
 247 330 l 1,44,-1
 262 336 l 1,45,-1
 278 330 l 1,46,-1
 284 314 l 1,47,-1
 284 293 l 1,48,-1
 278 278 l 1,49,-1
 268 267 l 1,50,-1
 257 257 l 1,51,-1
 241 252 l 1,52,-1
 226 246 l 1,53,-1
 215 236 l 1,54,-1
 205 225 l 1,55,-1
 194 215 l 1,56,-1
 178 210 l 1,57,-1
 163 204 l 1,58,-1
 152 194 l 1,59,-1
 142 183 l 1,60,-1
 142 173 l 1,61,-1
 152 162 l 1,62,-1
 163 152 l 1,63,-1
 178 147 l 1,64,-1
 199 147 l 1,65,-1
 215 141 l 1,66,-1
 226 131 l 1,67,-1
 241 126 l 1,68,-1
 257 120 l 1,69,-1
 268 110 l 1,70,-1
 283 105 l 1,71,-1
 299 99 l 1,72,-1
 310 89 l 1,73,-1
 325 84 l 1,74,-1
 341 78 l 1,75,-1
 347 62 l 1,76,-1
 347 41 l 1,77,-1
 341 26 l 1,78,-1
 325 21 l 1,0,-1
EndSplineSet
Validated: 1
EndChar

StartChar: l
Encoding: 96 108 79
Width: 127
GlyphClass: 2
Flags: W
LayerCount: 2
Fore
SplineSet
79 267 m 1,0,-1
 74 251 l 1,1,-1
 74 62 l 1,2,-1
 68 47 l 1,3,-1
 52 42 l 1,4,-1
 37 47 l 1,5,-1
 32 62 l 1,6,-1
 32 272 l 1,7,-1
 37 288 l 1,8,-1
 47 299 l 1,9,-1
 53 314 l 1,10,-1
 53 503 l 1,11,-1
 58 519 l 1,12,-1
 73 525 l 1,13,-1
 89 519 l 1,14,-1
 95 503 l 1,15,-1
 95 293 l 1,16,-1
 89 278 l 1,17,-1
 79 267 l 1,0,-1
EndSplineSet
Validated: 1
EndChar

StartChar: m
Encoding: 97 109 80
Width: 505
GlyphClass: 2
Flags: W
LayerCount: 2
Fore
SplineSet
451 0 m 1,0,-1
 430 0 l 1,1,-1
 415 5 l 1,2,-1
 410 20 l 1,3,-1
 410 167 l 1,4,-1
 404 183 l 1,5,-1
 394 194 l 1,6,-1
 383 204 l 1,7,-1
 373 215 l 1,8,-1
 362 225 l 1,9,-1
 352 225 l 1,10,-1
 341 215 l 1,11,-1
 325 210 l 1,12,-1
 310 204 l 1,13,-1
 299 194 l 1,14,-1
 289 183 l 1,15,-1
 278 173 l 1,16,-1
 268 162 l 1,17,-1
 263 146 l 1,18,-1
 263 41 l 1,19,-1
 257 26 l 1,20,-1
 241 21 l 1,21,-1
 226 26 l 1,22,-1
 221 41 l 1,23,-1
 221 188 l 1,24,-1
 215 204 l 1,25,-1
 205 215 l 1,26,-1
 194 225 l 1,27,-1
 178 231 l 1,28,-1
 157 231 l 1,29,-1
 142 225 l 1,30,-1
 131 215 l 1,31,-1
 121 204 l 1,32,-1
 110 194 l 1,33,-1
 100 183 l 1,34,-1
 89 173 l 1,35,-1
 79 162 l 1,36,-1
 74 146 l 1,37,-1
 74 41 l 1,38,-1
 68 26 l 1,39,-1
 52 21 l 1,40,-1
 37 26 l 1,41,-1
 32 41 l 1,42,-1
 32 272 l 1,43,-1
 37 288 l 1,44,-1
 52 294 l 1,45,-1
 68 288 l 1,46,-1
 74 272 l 1,47,-1
 79 257 l 1,48,-1
 94 252 l 1,49,-1
 110 257 l 1,50,-1
 121 267 l 1,51,-1
 136 273 l 1,52,-1
 220 273 l 1,53,-1
 236 267 l 1,54,-1
 247 257 l 1,55,-1
 262 252 l 1,56,-1
 304 252 l 1,57,-1
 320 257 l 1,58,-1
 331 267 l 1,59,-1
 346 273 l 1,60,-1
 388 273 l 1,61,-1
 404 267 l 1,62,-1
 410 251 l 1,63,-1
 415 236 l 1,64,-1
 425 225 l 1,65,-1
 436 215 l 1,66,-1
 446 204 l 1,67,-1
 452 188 l 1,68,-1
 452 62 l 1,69,-1
 457 47 l 1,70,-1
 467 36 l 1,71,-1
 473 20 l 1,72,-1
 467 5 l 1,73,-1
 451 0 l 1,0,-1
EndSplineSet
Validated: 1
EndChar

StartChar: n
Encoding: 98 110 81
Width: 358
GlyphClass: 2
Flags: W
LayerCount: 2
Fore
SplineSet
310 15 m 1,0,-1
 305 -1 l 1,1,-1
 299 -16 l 1,2,-1
 283 -21 l 1,3,-1
 268 -16 l 1,4,-1
 263 -1 l 1,5,-1
 263 41 l 1,6,-1
 268 57 l 1,7,-1
 278 68 l 1,8,-1
 284 83 l 1,9,-1
 284 167 l 1,10,-1
 278 183 l 1,11,-1
 268 194 l 1,12,-1
 257 204 l 1,13,-1
 247 215 l 1,14,-1
 236 225 l 1,15,-1
 220 231 l 1,16,-1
 205 225 l 1,17,-1
 194 215 l 1,18,-1
 178 210 l 1,19,-1
 163 204 l 1,20,-1
 152 194 l 1,21,-1
 136 189 l 1,22,-1
 121 183 l 1,23,-1
 110 173 l 1,24,-1
 100 162 l 1,25,-1
 95 146 l 1,26,-1
 89 131 l 1,27,-1
 79 120 l 1,28,-1
 74 104 l 1,29,-1
 74 20 l 1,30,-1
 68 5 l 1,31,-1
 52 0 l 1,32,-1
 37 5 l 1,33,-1
 32 20 l 1,34,-1
 32 251 l 1,35,-1
 37 267 l 1,36,-1
 52 273 l 1,37,-1
 68 267 l 1,38,-1
 74 251 l 1,39,-1
 74 230 l 1,40,-1
 79 215 l 1,41,-1
 89 215 l 1,42,-1
 100 225 l 1,43,-1
 110 236 l 1,44,-1
 121 246 l 1,45,-1
 136 252 l 1,46,-1
 157 252 l 1,47,-1
 173 257 l 1,48,-1
 184 267 l 1,49,-1
 199 273 l 1,50,-1
 262 273 l 1,51,-1
 278 267 l 1,52,-1
 289 257 l 1,53,-1
 299 246 l 1,54,-1
 305 230 l 1,55,-1
 310 215 l 1,56,-1
 320 204 l 1,57,-1
 326 188 l 1,58,-1
 326 41 l 1,59,-1
 320 26 l 1,60,-1
 310 15 l 1,0,-1
EndSplineSet
Validated: 1
EndChar

StartChar: o
Encoding: 99 111 82
Width: 379
GlyphClass: 2
Flags: W
LayerCount: 2
Fore
SplineSet
331 57 m 1,0,-1
 320 47 l 1,1,-1
 310 36 l 1,2,-1
 299 26 l 1,3,-1
 289 15 l 1,4,-1
 278 5 l 1,5,-1
 262 0 l 1,6,-1
 157 0 l 1,7,-1
 142 5 l 1,8,-1
 131 15 l 1,9,-1
 115 21 l 1,10,-1
 100 26 l 1,11,-1
 89 36 l 1,12,-1
 79 47 l 1,13,-1
 68 57 l 1,14,-1
 58 68 l 1,15,-1
 47 78 l 1,16,-1
 37 89 l 1,17,-1
 32 104 l 1,18,-1
 32 188 l 1,19,-1
 37 204 l 1,20,-1
 47 215 l 1,21,-1
 53 230 l 1,22,-1
 58 246 l 1,23,-1
 68 257 l 1,24,-1
 79 267 l 1,25,-1
 89 278 l 1,26,-1
 100 288 l 1,27,-1
 110 299 l 1,28,-1
 121 309 l 1,29,-1
 136 315 l 1,30,-1
 262 315 l 1,31,-1
 278 309 l 1,32,-1
 289 299 l 1,33,-1
 299 288 l 1,34,-1
 310 278 l 1,35,-1
 320 267 l 1,36,-1
 331 257 l 1,37,-1
 341 246 l 1,38,-1
 347 230 l 1,39,-1
 347 83 l 1,40,-1
 341 68 l 1,41,-1
 331 57 l 1,0,-1
305 125 m 1,42,-1
 305 209 l 1,43,-1
 299 225 l 1,44,-1
 289 236 l 1,45,-1
 278 246 l 1,46,-1
 262 252 l 1,47,-1
 247 257 l 1,48,-1
 236 267 l 1,49,-1
 220 273 l 1,50,-1
 178 273 l 1,51,-1
 163 267 l 1,52,-1
 152 257 l 1,53,-1
 136 252 l 1,54,-1
 121 246 l 1,55,-1
 110 236 l 1,56,-1
 100 225 l 1,57,-1
 95 209 l 1,58,-1
 95 188 l 1,59,-1
 89 173 l 1,60,-1
 79 162 l 1,61,-1
 74 146 l 1,62,-1
 79 131 l 1,63,-1
 89 120 l 1,64,-1
 95 104 l 1,65,-1
 100 89 l 1,66,-1
 110 78 l 1,67,-1
 121 68 l 1,68,-1
 136 63 l 1,69,-1
 152 57 l 1,70,-1
 163 47 l 1,71,-1
 178 42 l 1,72,-1
 220 42 l 1,73,-1
 236 47 l 1,74,-1
 247 57 l 1,75,-1
 262 63 l 1,76,-1
 278 68 l 1,77,-1
 284 83 l 1,78,-1
 289 99 l 1,79,-1
 299 110 l 1,80,-1
 305 125 l 1,42,-1
EndSplineSet
Validated: 1
EndChar

StartChar: p
Encoding: 100 112 83
Width: 379
GlyphClass: 2
Flags: W
LayerCount: 2
Fore
SplineSet
331 57 m 1,0,-1
 320 47 l 1,1,-1
 310 36 l 1,2,-1
 299 26 l 1,3,-1
 289 15 l 1,4,-1
 278 5 l 1,5,-1
 262 0 l 1,6,-1
 94 0 l 1,7,-1
 79 -6 l 1,8,-1
 74 -22 l 1,9,-1
 74 -211 l 1,10,-1
 68 -226 l 1,11,-1
 52 -231 l 1,12,-1
 37 -226 l 1,13,-1
 32 -211 l 1,14,-1
 32 230 l 1,15,-1
 37 246 l 1,16,-1
 47 257 l 1,17,-1
 58 267 l 1,18,-1
 73 273 l 1,19,-1
 262 273 l 1,20,-1
 278 267 l 1,21,-1
 289 257 l 1,22,-1
 299 246 l 1,23,-1
 310 236 l 1,24,-1
 320 225 l 1,25,-1
 326 209 l 1,26,-1
 331 194 l 1,27,-1
 341 183 l 1,28,-1
 347 167 l 1,29,-1
 347 83 l 1,30,-1
 341 68 l 1,31,-1
 331 57 l 1,0,-1
305 104 m 1,32,-1
 305 146 l 1,33,-1
 299 162 l 1,34,-1
 289 173 l 1,35,-1
 284 188 l 1,36,-1
 278 204 l 1,37,-1
 262 210 l 1,38,-1
 247 215 l 1,39,-1
 236 225 l 1,40,-1
 220 231 l 1,41,-1
 136 231 l 1,42,-1
 121 225 l 1,43,-1
 110 215 l 1,44,-1
 94 210 l 1,45,-1
 79 204 l 1,46,-1
 74 188 l 1,47,-1
 74 62 l 1,48,-1
 79 47 l 1,49,-1
 94 42 l 1,50,-1
 220 42 l 1,51,-1
 236 47 l 1,52,-1
 247 57 l 1,53,-1
 262 63 l 1,54,-1
 278 68 l 1,55,-1
 289 78 l 1,56,-1
 299 89 l 1,57,-1
 305 104 l 1,32,-1
EndSplineSet
Validated: 1
EndChar

StartChar: q
Encoding: 101 113 84
Width: 400
GlyphClass: 2
Flags: W
LayerCount: 2
Fore
SplineSet
352 -153 m 1,0,-1
 341 -163 l 1,1,-1
 331 -174 l 1,2,-1
 326 -190 l 1,3,-1
 320 -205 l 1,4,-1
 304 -210 l 1,5,-1
 289 -205 l 1,6,-1
 284 -190 l 1,7,-1
 278 -174 l 1,8,-1
 268 -163 l 1,9,-1
 263 -148 l 1,10,-1
 263 20 l 1,11,-1
 257 36 l 1,12,-1
 247 36 l 1,13,-1
 236 26 l 1,14,-1
 226 15 l 1,15,-1
 215 5 l 1,16,-1
 199 0 l 1,17,-1
 136 0 l 1,18,-1
 121 5 l 1,19,-1
 110 15 l 1,20,-1
 94 21 l 1,21,-1
 79 26 l 1,22,-1
 68 36 l 1,23,-1
 58 47 l 1,24,-1
 47 57 l 1,25,-1
 37 68 l 1,26,-1
 32 83 l 1,27,-1
 32 167 l 1,28,-1
 37 183 l 1,29,-1
 47 194 l 1,30,-1
 53 209 l 1,31,-1
 58 225 l 1,32,-1
 68 236 l 1,33,-1
 79 246 l 1,34,-1
 94 252 l 1,35,-1
 110 257 l 1,36,-1
 121 267 l 1,37,-1
 131 278 l 1,38,-1
 142 288 l 1,39,-1
 157 294 l 1,40,-1
 241 294 l 1,41,-1
 257 288 l 1,42,-1
 268 278 l 1,43,-1
 283 273 l 1,44,-1
 299 267 l 1,45,-1
 305 251 l 1,46,-1
 310 236 l 1,47,-1
 320 225 l 1,48,-1
 326 209 l 1,49,-1
 326 167 l 1,50,-1
 320 152 l 1,51,-1
 310 141 l 1,52,-1
 305 125 l 1,53,-1
 305 -85 l 1,54,-1
 310 -100 l 1,55,-1
 325 -105 l 1,56,-1
 346 -105 l 1,57,-1
 362 -111 l 1,58,-1
 368 -127 l 1,59,-1
 362 -142 l 1,60,-1
 352 -153 l 1,0,-1
263 146 m 1,61,-1
 263 188 l 1,62,-1
 257 204 l 1,63,-1
 247 215 l 1,64,-1
 242 230 l 1,65,-1
 236 246 l 1,66,-1
 220 252 l 1,67,-1
 178 252 l 1,68,-1
 163 246 l 1,69,-1
 152 236 l 1,70,-1
 142 225 l 1,71,-1
 131 215 l 1,72,-1
 121 204 l 1,73,-1
 110 194 l 1,74,-1
 100 183 l 1,75,-1
 89 173 l 1,76,-1
 79 162 l 1,77,-1
 74 146 l 1,78,-1
 74 125 l 1,79,-1
 79 110 l 1,80,-1
 89 99 l 1,81,-1
 100 89 l 1,82,-1
 110 78 l 1,83,-1
 121 68 l 1,84,-1
 136 63 l 1,85,-1
 152 57 l 1,86,-1
 163 47 l 1,87,-1
 178 42 l 1,88,-1
 194 47 l 1,89,-1
 205 57 l 1,90,-1
 215 68 l 1,91,-1
 226 78 l 1,92,-1
 236 89 l 1,93,-1
 242 104 l 1,94,-1
 247 120 l 1,95,-1
 257 131 l 1,96,-1
 263 146 l 1,61,-1
EndSplineSet
Validated: 1
EndChar

StartChar: r
Encoding: 102 114 85
Width: 316
GlyphClass: 2
Flags: W
LayerCount: 2
Fore
SplineSet
262 231 m 1,0,-1
 247 236 l 1,1,-1
 236 246 l 1,2,-1
 220 252 l 1,3,-1
 178 252 l 1,4,-1
 163 246 l 1,5,-1
 152 236 l 1,6,-1
 142 225 l 1,7,-1
 131 215 l 1,8,-1
 121 204 l 1,9,-1
 110 194 l 1,10,-1
 100 183 l 1,11,-1
 95 167 l 1,12,-1
 95 20 l 1,13,-1
 89 5 l 1,14,-1
 73 0 l 1,15,-1
 58 5 l 1,16,-1
 53 20 l 1,17,-1
 53 83 l 1,18,-1
 47 99 l 1,19,-1
 37 110 l 1,20,-1
 32 125 l 1,21,-1
 32 293 l 1,22,-1
 37 309 l 1,23,-1
 52 315 l 1,24,-1
 73 315 l 1,25,-1
 89 309 l 1,26,-1
 95 293 l 1,27,-1
 100 278 l 1,28,-1
 115 273 l 1,29,-1
 131 278 l 1,30,-1
 142 288 l 1,31,-1
 157 294 l 1,32,-1
 241 294 l 1,33,-1
 257 288 l 1,34,-1
 268 278 l 1,35,-1
 278 267 l 1,36,-1
 284 251 l 1,37,-1
 278 236 l 1,38,-1
 262 231 l 1,0,-1
89 267 m 1,39,-1
 79 267 l 1,40,-1
 79 257 l 1,41,-1
 89 257 l 1,42,-1
 89 267 l 1,39,-1
EndSplineSet
Validated: 1
EndChar

StartChar: s
Encoding: 103 115 86
Width: 379
GlyphClass: 2
Flags: W
LayerCount: 2
Fore
SplineSet
331 15 m 1,0,-1
 320 5 l 1,1,-1
 310 -6 l 1,2,-1
 299 -16 l 1,3,-1
 283 -21 l 1,4,-1
 220 -21 l 1,5,-1
 205 -27 l 1,6,-1
 194 -37 l 1,7,-1
 178 -42 l 1,8,-1
 136 -42 l 1,9,-1
 121 -37 l 1,10,-1
 110 -27 l 1,11,-1
 94 -21 l 1,12,-1
 79 -16 l 1,13,-1
 74 -1 l 1,14,-1
 68 15 l 1,15,-1
 52 21 l 1,16,-1
 37 26 l 1,17,-1
 32 41 l 1,18,-1
 37 57 l 1,19,-1
 52 63 l 1,20,-1
 73 63 l 1,21,-1
 89 57 l 1,22,-1
 100 47 l 1,23,-1
 110 36 l 1,24,-1
 121 26 l 1,25,-1
 131 15 l 1,26,-1
 142 5 l 1,27,-1
 157 0 l 1,28,-1
 173 5 l 1,29,-1
 184 15 l 1,30,-1
 199 21 l 1,31,-1
 241 21 l 1,32,-1
 257 26 l 1,33,-1
 268 36 l 1,34,-1
 278 47 l 1,35,-1
 289 57 l 1,36,-1
 299 68 l 1,37,-1
 305 83 l 1,38,-1
 299 99 l 1,39,-1
 289 110 l 1,40,-1
 278 120 l 1,41,-1
 262 126 l 1,42,-1
 157 126 l 1,43,-1
 142 131 l 1,44,-1
 131 141 l 1,45,-1
 115 147 l 1,46,-1
 100 152 l 1,47,-1
 89 162 l 1,48,-1
 79 173 l 1,49,-1
 74 188 l 1,50,-1
 74 230 l 1,51,-1
 79 246 l 1,52,-1
 89 257 l 1,53,-1
 95 272 l 1,54,-1
 100 288 l 1,55,-1
 110 299 l 1,56,-1
 121 309 l 1,57,-1
 136 315 l 1,58,-1
 241 315 l 1,59,-1
 257 309 l 1,60,-1
 268 299 l 1,61,-1
 283 294 l 1,62,-1
 299 288 l 1,63,-1
 305 272 l 1,64,-1
 305 251 l 1,65,-1
 299 236 l 1,66,-1
 283 231 l 1,67,-1
 262 231 l 1,68,-1
 247 236 l 1,69,-1
 236 246 l 1,70,-1
 226 257 l 1,71,-1
 215 267 l 1,72,-1
 199 273 l 1,73,-1
 178 273 l 1,74,-1
 163 267 l 1,75,-1
 152 257 l 1,76,-1
 142 246 l 1,77,-1
 131 236 l 1,78,-1
 121 225 l 1,79,-1
 116 209 l 1,80,-1
 121 194 l 1,81,-1
 136 189 l 1,82,-1
 157 189 l 1,83,-1
 173 183 l 1,84,-1
 184 173 l 1,85,-1
 199 168 l 1,86,-1
 304 168 l 1,87,-1
 320 162 l 1,88,-1
 331 152 l 1,89,-1
 341 141 l 1,90,-1
 347 125 l 1,91,-1
 347 41 l 1,92,-1
 341 26 l 1,93,-1
 331 15 l 1,0,-1
EndSplineSet
Validated: 1
EndChar

StartChar: t
Encoding: 104 116 87
Width: 337
GlyphClass: 2
Flags: W
LayerCount: 2
Fore
SplineSet
283 0 m 1,0,-1
 268 -6 l 1,1,-1
 257 -16 l 1,2,-1
 241 -21 l 1,3,-1
 199 -21 l 1,4,-1
 184 -16 l 1,5,-1
 173 -6 l 1,6,-1
 157 0 l 1,7,-1
 142 5 l 1,8,-1
 131 15 l 1,9,-1
 121 26 l 1,10,-1
 116 41 l 1,11,-1
 116 188 l 1,12,-1
 110 204 l 1,13,-1
 94 210 l 1,14,-1
 52 210 l 1,15,-1
 37 215 l 1,16,-1
 32 230 l 1,17,-1
 37 246 l 1,18,-1
 52 252 l 1,19,-1
 94 252 l 1,20,-1
 110 257 l 1,21,-1
 116 272 l 1,22,-1
 116 314 l 1,23,-1
 121 330 l 1,24,-1
 131 341 l 1,25,-1
 137 356 l 1,26,-1
 137 419 l 1,27,-1
 142 435 l 1,28,-1
 157 441 l 1,29,-1
 173 435 l 1,30,-1
 179 419 l 1,31,-1
 179 335 l 1,32,-1
 173 320 l 1,33,-1
 163 309 l 1,34,-1
 158 293 l 1,35,-1
 158 272 l 1,36,-1
 163 257 l 1,37,-1
 178 252 l 1,38,-1
 220 252 l 1,39,-1
 236 246 l 1,40,-1
 242 230 l 1,41,-1
 236 215 l 1,42,-1
 220 210 l 1,43,-1
 178 210 l 1,44,-1
 163 204 l 1,45,-1
 158 188 l 1,46,-1
 158 62 l 1,47,-1
 163 47 l 1,48,-1
 178 42 l 1,49,-1
 194 36 l 1,50,-1
 205 26 l 1,51,-1
 220 21 l 1,52,-1
 236 26 l 1,53,-1
 247 36 l 1,54,-1
 257 47 l 1,55,-1
 268 57 l 1,56,-1
 283 63 l 1,57,-1
 299 57 l 1,58,-1
 305 41 l 1,59,-1
 305 20 l 1,60,-1
 299 5 l 1,61,-1
 283 0 l 1,0,-1
EndSplineSet
Validated: 1
EndChar

StartChar: u
Encoding: 105 117 88
Width: 358
GlyphClass: 2
Flags: W
LayerCount: 2
Fore
SplineSet
304 21 m 1,0,-1
 289 26 l 1,1,-1
 284 41 l 1,2,-1
 284 104 l 1,3,-1
 278 120 l 1,4,-1
 268 120 l 1,5,-1
 257 110 l 1,6,-1
 247 99 l 1,7,-1
 242 83 l 1,8,-1
 236 68 l 1,9,-1
 226 57 l 1,10,-1
 215 47 l 1,11,-1
 199 42 l 1,12,-1
 184 36 l 1,13,-1
 173 26 l 1,14,-1
 157 21 l 1,15,-1
 94 21 l 1,16,-1
 79 26 l 1,17,-1
 68 36 l 1,18,-1
 58 47 l 1,19,-1
 47 57 l 1,20,-1
 37 68 l 1,21,-1
 32 83 l 1,22,-1
 32 314 l 1,23,-1
 37 330 l 1,24,-1
 52 336 l 1,25,-1
 68 330 l 1,26,-1
 74 314 l 1,27,-1
 74 125 l 1,28,-1
 79 110 l 1,29,-1
 89 99 l 1,30,-1
 100 89 l 1,31,-1
 110 78 l 1,32,-1
 121 68 l 1,33,-1
 136 63 l 1,34,-1
 152 68 l 1,35,-1
 163 78 l 1,36,-1
 173 89 l 1,37,-1
 184 99 l 1,38,-1
 194 110 l 1,39,-1
 205 120 l 1,40,-1
 215 131 l 1,41,-1
 221 146 l 1,42,-1
 221 167 l 1,43,-1
 226 183 l 1,44,-1
 236 194 l 1,45,-1
 242 209 l 1,46,-1
 242 314 l 1,47,-1
 247 330 l 1,48,-1
 262 336 l 1,49,-1
 278 330 l 1,50,-1
 284 314 l 1,51,-1
 284 293 l 1,52,-1
 289 278 l 1,53,-1
 299 267 l 1,54,-1
 305 251 l 1,55,-1
 305 167 l 1,56,-1
 310 152 l 1,57,-1
 320 141 l 1,58,-1
 326 125 l 1,59,-1
 326 41 l 1,60,-1
 320 26 l 1,61,-1
 304 21 l 1,0,-1
EndSplineSet
Validated: 1
EndChar

StartChar: v
Encoding: 106 118 89
Width: 442
GlyphClass: 2
Flags: W
LayerCount: 2
Fore
SplineSet
394 267 m 1,0,-1
 389 251 l 1,1,-1
 383 236 l 1,2,-1
 373 225 l 1,3,-1
 368 209 l 1,4,-1
 362 194 l 1,5,-1
 352 183 l 1,6,-1
 341 173 l 1,7,-1
 331 162 l 1,8,-1
 326 146 l 1,9,-1
 320 131 l 1,10,-1
 310 120 l 1,11,-1
 299 110 l 1,12,-1
 289 99 l 1,13,-1
 284 83 l 1,14,-1
 284 62 l 1,15,-1
 278 47 l 1,16,-1
 268 36 l 1,17,-1
 257 26 l 1,18,-1
 247 15 l 1,19,-1
 242 -1 l 1,20,-1
 236 -16 l 1,21,-1
 220 -21 l 1,22,-1
 205 -16 l 1,23,-1
 194 -6 l 1,24,-1
 184 5 l 1,25,-1
 179 20 l 1,26,-1
 179 41 l 1,27,-1
 173 57 l 1,28,-1
 163 68 l 1,29,-1
 158 83 l 1,30,-1
 152 99 l 1,31,-1
 142 110 l 1,32,-1
 137 125 l 1,33,-1
 131 141 l 1,34,-1
 121 152 l 1,35,-1
 110 162 l 1,36,-1
 100 173 l 1,37,-1
 89 183 l 1,38,-1
 79 194 l 1,39,-1
 68 204 l 1,40,-1
 58 215 l 1,41,-1
 47 225 l 1,42,-1
 37 236 l 1,43,-1
 32 251 l 1,44,-1
 37 267 l 1,45,-1
 52 273 l 1,46,-1
 73 273 l 1,47,-1
 89 267 l 1,48,-1
 100 257 l 1,49,-1
 110 246 l 1,50,-1
 121 236 l 1,51,-1
 131 225 l 1,52,-1
 137 209 l 1,53,-1
 142 194 l 1,54,-1
 152 183 l 1,55,-1
 163 173 l 1,56,-1
 173 162 l 1,57,-1
 179 146 l 1,58,-1
 184 131 l 1,59,-1
 194 120 l 1,60,-1
 200 104 l 1,61,-1
 205 89 l 1,62,-1
 220 84 l 1,63,-1
 236 89 l 1,64,-1
 242 104 l 1,65,-1
 247 120 l 1,66,-1
 257 131 l 1,67,-1
 268 141 l 1,68,-1
 278 152 l 1,69,-1
 284 167 l 1,70,-1
 289 183 l 1,71,-1
 299 194 l 1,72,-1
 305 209 l 1,73,-1
 310 225 l 1,74,-1
 320 236 l 1,75,-1
 326 251 l 1,76,-1
 331 267 l 1,77,-1
 341 278 l 1,78,-1
 347 293 l 1,79,-1
 352 309 l 1,80,-1
 367 315 l 1,81,-1
 388 315 l 1,82,-1
 404 309 l 1,83,-1
 410 293 l 1,84,-1
 404 278 l 1,85,-1
 394 267 l 1,0,-1
EndSplineSet
Validated: 1
EndChar

StartChar: w
Encoding: 107 119 90
Width: 526
GlyphClass: 2
Flags: W
LayerCount: 2
Fore
SplineSet
478 204 m 1,0,-1
 467 194 l 1,1,-1
 457 183 l 1,2,-1
 452 167 l 1,3,-1
 446 152 l 1,4,-1
 436 141 l 1,5,-1
 431 125 l 1,6,-1
 425 110 l 1,7,-1
 415 99 l 1,8,-1
 410 83 l 1,9,-1
 404 68 l 1,10,-1
 394 57 l 1,11,-1
 389 41 l 1,12,-1
 383 26 l 1,13,-1
 373 15 l 1,14,-1
 362 5 l 1,15,-1
 346 0 l 1,16,-1
 331 5 l 1,17,-1
 320 15 l 1,18,-1
 310 26 l 1,19,-1
 305 41 l 1,20,-1
 299 57 l 1,21,-1
 289 68 l 1,22,-1
 278 78 l 1,23,-1
 268 89 l 1,24,-1
 263 104 l 1,25,-1
 257 120 l 1,26,-1
 247 120 l 1,27,-1
 236 110 l 1,28,-1
 226 99 l 1,29,-1
 215 89 l 1,30,-1
 205 78 l 1,31,-1
 194 68 l 1,32,-1
 184 57 l 1,33,-1
 173 47 l 1,34,-1
 163 36 l 1,35,-1
 158 20 l 1,36,-1
 152 5 l 1,37,-1
 136 0 l 1,38,-1
 115 0 l 1,39,-1
 100 5 l 1,40,-1
 95 20 l 1,41,-1
 89 36 l 1,42,-1
 79 47 l 1,43,-1
 74 62 l 1,44,-1
 74 125 l 1,45,-1
 68 141 l 1,46,-1
 58 152 l 1,47,-1
 53 167 l 1,48,-1
 53 230 l 1,49,-1
 47 246 l 1,50,-1
 37 257 l 1,51,-1
 32 272 l 1,52,-1
 32 293 l 1,53,-1
 37 309 l 1,54,-1
 52 315 l 1,55,-1
 68 309 l 1,56,-1
 74 293 l 1,57,-1
 79 278 l 1,58,-1
 89 267 l 1,59,-1
 95 251 l 1,60,-1
 95 188 l 1,61,-1
 100 173 l 1,62,-1
 110 162 l 1,63,-1
 116 146 l 1,64,-1
 116 83 l 1,65,-1
 121 68 l 1,66,-1
 131 68 l 1,67,-1
 142 78 l 1,68,-1
 152 89 l 1,69,-1
 163 99 l 1,70,-1
 173 110 l 1,71,-1
 184 120 l 1,72,-1
 194 131 l 1,73,-1
 205 141 l 1,74,-1
 215 152 l 1,75,-1
 221 167 l 1,76,-1
 226 183 l 1,77,-1
 236 194 l 1,78,-1
 247 204 l 1,79,-1
 262 210 l 1,80,-1
 278 204 l 1,81,-1
 284 188 l 1,82,-1
 289 173 l 1,83,-1
 299 162 l 1,84,-1
 305 146 l 1,85,-1
 305 125 l 1,86,-1
 310 110 l 1,87,-1
 320 99 l 1,88,-1
 331 89 l 1,89,-1
 346 84 l 1,90,-1
 362 89 l 1,91,-1
 368 104 l 1,92,-1
 373 120 l 1,93,-1
 383 131 l 1,94,-1
 389 146 l 1,95,-1
 394 162 l 1,96,-1
 404 173 l 1,97,-1
 410 188 l 1,98,-1
 415 204 l 1,99,-1
 425 215 l 1,100,-1
 431 230 l 1,101,-1
 436 246 l 1,102,-1
 446 257 l 1,103,-1
 452 272 l 1,104,-1
 457 288 l 1,105,-1
 472 294 l 1,106,-1
 488 288 l 1,107,-1
 494 272 l 1,108,-1
 494 230 l 1,109,-1
 488 215 l 1,110,-1
 478 204 l 1,0,-1
EndSplineSet
Validated: 1
EndChar

StartChar: x
Encoding: 108 120 91
Width: 379
GlyphClass: 2
Flags: W
LayerCount: 2
Fore
SplineSet
325 -42 m 1,0,-1
 304 -42 l 1,1,-1
 289 -37 l 1,2,-1
 278 -27 l 1,3,-1
 268 -16 l 1,4,-1
 257 -6 l 1,5,-1
 247 5 l 1,6,-1
 242 20 l 1,7,-1
 236 36 l 1,8,-1
 226 47 l 1,9,-1
 215 57 l 1,10,-1
 205 68 l 1,11,-1
 194 78 l 1,12,-1
 184 78 l 1,13,-1
 173 68 l 1,14,-1
 163 57 l 1,15,-1
 152 47 l 1,16,-1
 136 42 l 1,17,-1
 121 36 l 1,18,-1
 116 20 l 1,19,-1
 110 5 l 1,20,-1
 94 0 l 1,21,-1
 79 -6 l 1,22,-1
 68 -16 l 1,23,-1
 52 -21 l 1,24,-1
 37 -16 l 1,25,-1
 32 -1 l 1,26,-1
 37 15 l 1,27,-1
 47 26 l 1,28,-1
 58 36 l 1,29,-1
 68 47 l 1,30,-1
 79 57 l 1,31,-1
 89 68 l 1,32,-1
 100 78 l 1,33,-1
 115 84 l 1,34,-1
 131 89 l 1,35,-1
 142 99 l 1,36,-1
 152 110 l 1,37,-1
 158 125 l 1,38,-1
 152 141 l 1,39,-1
 142 152 l 1,40,-1
 137 167 l 1,41,-1
 131 183 l 1,42,-1
 121 194 l 1,43,-1
 110 204 l 1,44,-1
 100 215 l 1,45,-1
 89 225 l 1,46,-1
 79 236 l 1,47,-1
 74 251 l 1,48,-1
 74 272 l 1,49,-1
 79 288 l 1,50,-1
 94 294 l 1,51,-1
 110 288 l 1,52,-1
 116 272 l 1,53,-1
 121 257 l 1,54,-1
 131 246 l 1,55,-1
 142 236 l 1,56,-1
 152 225 l 1,57,-1
 163 215 l 1,58,-1
 173 204 l 1,59,-1
 179 188 l 1,60,-1
 184 173 l 1,61,-1
 199 168 l 1,62,-1
 215 173 l 1,63,-1
 226 183 l 1,64,-1
 236 194 l 1,65,-1
 247 204 l 1,66,-1
 257 215 l 1,67,-1
 268 225 l 1,68,-1
 278 236 l 1,69,-1
 284 251 l 1,70,-1
 289 267 l 1,71,-1
 304 273 l 1,72,-1
 320 267 l 1,73,-1
 326 251 l 1,74,-1
 326 230 l 1,75,-1
 320 215 l 1,76,-1
 310 204 l 1,77,-1
 299 194 l 1,78,-1
 289 183 l 1,79,-1
 278 173 l 1,80,-1
 268 162 l 1,81,-1
 257 152 l 1,82,-1
 247 141 l 1,83,-1
 236 131 l 1,84,-1
 226 120 l 1,85,-1
 226 110 l 1,86,-1
 236 99 l 1,87,-1
 247 89 l 1,88,-1
 257 78 l 1,89,-1
 268 68 l 1,90,-1
 278 57 l 1,91,-1
 289 47 l 1,92,-1
 299 36 l 1,93,-1
 310 26 l 1,94,-1
 320 15 l 1,95,-1
 331 5 l 1,96,-1
 341 -6 l 1,97,-1
 347 -22 l 1,98,-1
 341 -37 l 1,99,-1
 325 -42 l 1,0,-1
EndSplineSet
Validated: 1
EndChar

StartChar: y
Encoding: 109 121 92
Width: 358
GlyphClass: 2
Flags: W
LayerCount: 2
Fore
SplineSet
310 -90 m 1,0,-1
 305 -106 l 1,1,-1
 305 -190 l 1,2,-1
 299 -205 l 1,3,-1
 289 -216 l 1,4,-1
 278 -226 l 1,5,-1
 268 -237 l 1,6,-1
 257 -247 l 1,7,-1
 241 -252 l 1,8,-1
 226 -258 l 1,9,-1
 215 -268 l 1,10,-1
 199 -273 l 1,11,-1
 136 -273 l 1,12,-1
 121 -268 l 1,13,-1
 110 -258 l 1,14,-1
 100 -247 l 1,15,-1
 89 -237 l 1,16,-1
 79 -226 l 1,17,-1
 74 -211 l 1,18,-1
 74 -169 l 1,19,-1
 79 -153 l 1,20,-1
 94 -147 l 1,21,-1
 110 -153 l 1,22,-1
 116 -169 l 1,23,-1
 121 -184 l 1,24,-1
 131 -195 l 1,25,-1
 137 -211 l 1,26,-1
 142 -226 l 1,27,-1
 157 -231 l 1,28,-1
 173 -226 l 1,29,-1
 184 -216 l 1,30,-1
 199 -210 l 1,31,-1
 220 -210 l 1,32,-1
 236 -205 l 1,33,-1
 247 -195 l 1,34,-1
 257 -184 l 1,35,-1
 263 -169 l 1,36,-1
 263 -85 l 1,37,-1
 268 -69 l 1,38,-1
 278 -58 l 1,39,-1
 278 -48 l 1,40,-1
 262 -42 l 1,41,-1
 136 -42 l 1,42,-1
 121 -37 l 1,43,-1
 110 -27 l 1,44,-1
 94 -21 l 1,45,-1
 79 -16 l 1,46,-1
 74 -1 l 1,47,-1
 68 15 l 1,48,-1
 58 26 l 1,49,-1
 53 41 l 1,50,-1
 53 83 l 1,51,-1
 47 99 l 1,52,-1
 37 110 l 1,53,-1
 32 125 l 1,54,-1
 32 251 l 1,55,-1
 37 267 l 1,56,-1
 52 273 l 1,57,-1
 73 273 l 1,58,-1
 89 267 l 1,59,-1
 95 251 l 1,60,-1
 89 236 l 1,61,-1
 79 225 l 1,62,-1
 74 209 l 1,63,-1
 74 146 l 1,64,-1
 79 131 l 1,65,-1
 89 120 l 1,66,-1
 95 104 l 1,67,-1
 95 62 l 1,68,-1
 100 47 l 1,69,-1
 110 36 l 1,70,-1
 121 26 l 1,71,-1
 131 15 l 1,72,-1
 142 5 l 1,73,-1
 157 0 l 1,74,-1
 220 0 l 1,75,-1
 236 5 l 1,76,-1
 247 15 l 1,77,-1
 257 26 l 1,78,-1
 263 41 l 1,79,-1
 268 57 l 1,80,-1
 278 68 l 1,81,-1
 284 83 l 1,82,-1
 284 230 l 1,83,-1
 289 246 l 1,84,-1
 304 252 l 1,85,-1
 320 246 l 1,86,-1
 326 230 l 1,87,-1
 326 -64 l 1,88,-1
 320 -79 l 1,89,-1
 310 -90 l 1,0,-1
EndSplineSet
Validated: 1
EndChar

StartChar: z
Encoding: 110 122 93
Width: 421
GlyphClass: 2
Flags: W
LayerCount: 2
Fore
SplineSet
367 -42 m 1,0,-1
 178 -42 l 1,1,-1
 163 -48 l 1,2,-1
 152 -58 l 1,3,-1
 136 -63 l 1,4,-1
 52 -63 l 1,5,-1
 37 -58 l 1,6,-1
 32 -43 l 1,7,-1
 32 -22 l 1,8,-1
 37 -6 l 1,9,-1
 52 0 l 1,10,-1
 68 5 l 1,11,-1
 79 15 l 1,12,-1
 89 26 l 1,13,-1
 100 36 l 1,14,-1
 110 47 l 1,15,-1
 121 57 l 1,16,-1
 136 63 l 1,17,-1
 152 68 l 1,18,-1
 158 83 l 1,19,-1
 163 99 l 1,20,-1
 173 110 l 1,21,-1
 184 120 l 1,22,-1
 194 131 l 1,23,-1
 200 146 l 1,24,-1
 205 162 l 1,25,-1
 215 173 l 1,26,-1
 226 183 l 1,27,-1
 236 194 l 1,28,-1
 242 209 l 1,29,-1
 236 225 l 1,30,-1
 220 231 l 1,31,-1
 73 231 l 1,32,-1
 58 236 l 1,33,-1
 53 251 l 1,34,-1
 58 267 l 1,35,-1
 73 273 l 1,36,-1
 304 273 l 1,37,-1
 320 267 l 1,38,-1
 326 251 l 1,39,-1
 320 236 l 1,40,-1
 310 225 l 1,41,-1
 305 209 l 1,42,-1
 299 194 l 1,43,-1
 289 183 l 1,44,-1
 278 173 l 1,45,-1
 268 162 l 1,46,-1
 263 146 l 1,47,-1
 257 131 l 1,48,-1
 247 120 l 1,49,-1
 236 110 l 1,50,-1
 226 99 l 1,51,-1
 221 83 l 1,52,-1
 215 68 l 1,53,-1
 205 57 l 1,54,-1
 194 47 l 1,55,-1
 184 36 l 1,56,-1
 173 26 l 1,57,-1
 163 15 l 1,58,-1
 163 5 l 1,59,-1
 178 0 l 1,60,-1
 367 0 l 1,61,-1
 383 -6 l 1,62,-1
 389 -22 l 1,63,-1
 383 -37 l 1,64,-1
 367 -42 l 1,0,-1
EndSplineSet
Validated: 1
EndChar

StartChar: braceleft
Encoding: 111 123 94
Width: 358
GlyphClass: 2
Flags: W
LayerCount: 2
Fore
SplineSet
304 609 m 1,0,-1
 262 609 l 1,1,-1
 247 614 l 1,2,-1
 236 624 l 1,3,-1
 226 624 l 1,4,-1
 215 614 l 1,5,-1
 205 603 l 1,6,-1
 194 593 l 1,7,-1
 184 582 l 1,8,-1
 173 572 l 1,9,-1
 163 561 l 1,10,-1
 158 545 l 1,11,-1
 158 461 l 1,12,-1
 163 446 l 1,13,-1
 173 435 l 1,14,-1
 179 419 l 1,15,-1
 179 377 l 1,16,-1
 173 362 l 1,17,-1
 163 351 l 1,18,-1
 163 341 l 1,19,-1
 173 330 l 1,20,-1
 179 314 l 1,21,-1
 179 125 l 1,22,-1
 184 110 l 1,23,-1
 194 99 l 1,24,-1
 200 83 l 1,25,-1
 205 68 l 1,26,-1
 215 57 l 1,27,-1
 226 47 l 1,28,-1
 241 42 l 1,29,-1
 283 42 l 1,30,-1
 299 36 l 1,31,-1
 305 20 l 1,32,-1
 305 -1 l 1,33,-1
 299 -16 l 1,34,-1
 283 -21 l 1,35,-1
 241 -21 l 1,36,-1
 226 -16 l 1,37,-1
 215 -6 l 1,38,-1
 199 0 l 1,39,-1
 184 5 l 1,40,-1
 179 20 l 1,41,-1
 173 36 l 1,42,-1
 163 47 l 1,43,-1
 152 57 l 1,44,-1
 142 68 l 1,45,-1
 137 83 l 1,46,-1
 137 272 l 1,47,-1
 131 288 l 1,48,-1
 121 299 l 1,49,-1
 110 309 l 1,50,-1
 94 315 l 1,51,-1
 52 315 l 1,52,-1
 37 320 l 1,53,-1
 32 335 l 1,54,-1
 37 351 l 1,55,-1
 52 357 l 1,56,-1
 73 357 l 1,57,-1
 89 362 l 1,58,-1
 100 372 l 1,59,-1
 110 383 l 1,60,-1
 121 393 l 1,61,-1
 131 404 l 1,62,-1
 131 414 l 1,63,-1
 121 425 l 1,64,-1
 116 440 l 1,65,-1
 116 566 l 1,66,-1
 121 582 l 1,67,-1
 131 593 l 1,68,-1
 137 608 l 1,69,-1
 142 624 l 1,70,-1
 152 635 l 1,71,-1
 163 645 l 1,72,-1
 178 651 l 1,73,-1
 194 656 l 1,74,-1
 205 666 l 1,75,-1
 220 672 l 1,76,-1
 262 672 l 1,77,-1
 278 666 l 1,78,-1
 289 656 l 1,79,-1
 304 651 l 1,80,-1
 320 645 l 1,81,-1
 326 629 l 1,82,-1
 320 614 l 1,83,-1
 304 609 l 1,0,-1
EndSplineSet
Validated: 1
EndChar

StartChar: bar
Encoding: 112 124 95
Width: 148
GlyphClass: 2
Flags: W
LayerCount: 2
Fore
SplineSet
100 351 m 1,0,-1
 95 335 l 1,1,-1
 95 62 l 1,2,-1
 89 47 l 1,3,-1
 79 36 l 1,4,-1
 74 20 l 1,5,-1
 74 -1 l 1,6,-1
 68 -16 l 1,7,-1
 52 -21 l 1,8,-1
 37 -16 l 1,9,-1
 32 -1 l 1,10,-1
 32 62 l 1,11,-1
 37 78 l 1,12,-1
 47 89 l 1,13,-1
 53 104 l 1,14,-1
 53 356 l 1,15,-1
 58 372 l 1,16,-1
 68 383 l 1,17,-1
 74 398 l 1,18,-1
 74 713 l 1,19,-1
 79 729 l 1,20,-1
 94 735 l 1,21,-1
 110 729 l 1,22,-1
 116 713 l 1,23,-1
 116 377 l 1,24,-1
 110 362 l 1,25,-1
 100 351 l 1,0,-1
EndSplineSet
Validated: 1
EndChar

StartChar: braceright
Encoding: 113 125 96
Width: 379
GlyphClass: 2
Flags: W
LayerCount: 2
Fore
SplineSet
325 294 m 1,0,-1
 283 294 l 1,1,-1
 268 288 l 1,2,-1
 257 278 l 1,3,-1
 247 267 l 1,4,-1
 236 257 l 1,5,-1
 226 246 l 1,6,-1
 221 230 l 1,7,-1
 221 83 l 1,8,-1
 215 68 l 1,9,-1
 205 57 l 1,10,-1
 200 41 l 1,11,-1
 194 26 l 1,12,-1
 184 15 l 1,13,-1
 173 5 l 1,14,-1
 157 0 l 1,15,-1
 52 0 l 1,16,-1
 37 5 l 1,17,-1
 32 20 l 1,18,-1
 37 36 l 1,19,-1
 52 42 l 1,20,-1
 115 42 l 1,21,-1
 131 47 l 1,22,-1
 142 57 l 1,23,-1
 152 68 l 1,24,-1
 158 83 l 1,25,-1
 163 99 l 1,26,-1
 173 110 l 1,27,-1
 179 125 l 1,28,-1
 179 272 l 1,29,-1
 184 288 l 1,30,-1
 194 299 l 1,31,-1
 200 314 l 1,32,-1
 200 524 l 1,33,-1
 194 540 l 1,34,-1
 184 551 l 1,35,-1
 179 566 l 1,36,-1
 173 582 l 1,37,-1
 157 588 l 1,38,-1
 136 588 l 1,39,-1
 121 582 l 1,40,-1
 110 572 l 1,41,-1
 94 567 l 1,42,-1
 79 572 l 1,43,-1
 74 587 l 1,44,-1
 74 608 l 1,45,-1
 79 624 l 1,46,-1
 94 630 l 1,47,-1
 110 635 l 1,48,-1
 121 645 l 1,49,-1
 136 651 l 1,50,-1
 178 651 l 1,51,-1
 194 645 l 1,52,-1
 205 635 l 1,53,-1
 215 624 l 1,54,-1
 221 608 l 1,55,-1
 226 593 l 1,56,-1
 236 582 l 1,57,-1
 242 566 l 1,58,-1
 242 356 l 1,59,-1
 247 341 l 1,60,-1
 262 336 l 1,61,-1
 325 336 l 1,62,-1
 341 330 l 1,63,-1
 347 314 l 1,64,-1
 341 299 l 1,65,-1
 325 294 l 1,0,-1
EndSplineSet
Validated: 1
EndChar

StartChar: asciitilde
Encoding: 114 126 97
Width: 400
GlyphClass: 2
Flags: W
LayerCount: 2
Fore
SplineSet
352 309 m 1,0,-1
 347 293 l 1,1,-1
 341 278 l 1,2,-1
 331 267 l 1,3,-1
 320 257 l 1,4,-1
 304 252 l 1,5,-1
 241 252 l 1,6,-1
 226 257 l 1,7,-1
 215 267 l 1,8,-1
 205 278 l 1,9,-1
 194 288 l 1,10,-1
 184 299 l 1,11,-1
 173 309 l 1,12,-1
 163 320 l 1,13,-1
 152 330 l 1,14,-1
 136 336 l 1,15,-1
 115 336 l 1,16,-1
 100 330 l 1,17,-1
 89 320 l 1,18,-1
 79 309 l 1,19,-1
 74 293 l 1,20,-1
 68 278 l 1,21,-1
 52 273 l 1,22,-1
 37 278 l 1,23,-1
 32 293 l 1,24,-1
 32 314 l 1,25,-1
 37 330 l 1,26,-1
 47 341 l 1,27,-1
 58 351 l 1,28,-1
 68 362 l 1,29,-1
 79 372 l 1,30,-1
 94 378 l 1,31,-1
 178 378 l 1,32,-1
 194 372 l 1,33,-1
 205 362 l 1,34,-1
 215 351 l 1,35,-1
 226 341 l 1,36,-1
 236 330 l 1,37,-1
 247 320 l 1,38,-1
 257 309 l 1,39,-1
 268 299 l 1,40,-1
 283 294 l 1,41,-1
 299 299 l 1,42,-1
 305 314 l 1,43,-1
 305 356 l 1,44,-1
 310 372 l 1,45,-1
 325 378 l 1,46,-1
 346 378 l 1,47,-1
 362 372 l 1,48,-1
 368 356 l 1,49,-1
 368 335 l 1,50,-1
 362 320 l 1,51,-1
 352 309 l 1,0,-1
EndSplineSet
Validated: 1
EndChar

StartChar: cent
Encoding: 115 162 98
Width: 421
GlyphClass: 2
Flags: W
LayerCount: 2
Fore
SplineSet
367 273 m 1,0,-1
 352 267 l 1,1,-1
 341 257 l 1,2,-1
 331 246 l 1,3,-1
 320 236 l 1,4,-1
 304 231 l 1,5,-1
 220 231 l 1,6,-1
 205 225 l 1,7,-1
 200 209 l 1,8,-1
 200 125 l 1,9,-1
 194 110 l 1,10,-1
 178 105 l 1,11,-1
 163 110 l 1,12,-1
 158 125 l 1,13,-1
 158 209 l 1,14,-1
 152 225 l 1,15,-1
 136 231 l 1,16,-1
 115 231 l 1,17,-1
 100 236 l 1,18,-1
 89 246 l 1,19,-1
 79 257 l 1,20,-1
 68 267 l 1,21,-1
 58 278 l 1,22,-1
 47 288 l 1,23,-1
 37 299 l 1,24,-1
 32 314 l 1,25,-1
 32 377 l 1,26,-1
 37 393 l 1,27,-1
 47 404 l 1,28,-1
 53 419 l 1,29,-1
 58 435 l 1,30,-1
 68 446 l 1,31,-1
 79 456 l 1,32,-1
 89 467 l 1,33,-1
 100 477 l 1,34,-1
 115 483 l 1,35,-1
 136 483 l 1,36,-1
 152 488 l 1,37,-1
 158 503 l 1,38,-1
 158 545 l 1,39,-1
 163 561 l 1,40,-1
 178 567 l 1,41,-1
 194 561 l 1,42,-1
 200 545 l 1,43,-1
 200 503 l 1,44,-1
 205 488 l 1,45,-1
 220 483 l 1,46,-1
 283 483 l 1,47,-1
 299 477 l 1,48,-1
 310 467 l 1,49,-1
 320 456 l 1,50,-1
 331 446 l 1,51,-1
 346 441 l 1,52,-1
 362 435 l 1,53,-1
 368 419 l 1,54,-1
 362 404 l 1,55,-1
 346 399 l 1,56,-1
 325 399 l 1,57,-1
 310 404 l 1,58,-1
 299 414 l 1,59,-1
 283 420 l 1,60,-1
 268 425 l 1,61,-1
 257 435 l 1,62,-1
 241 441 l 1,63,-1
 220 441 l 1,64,-1
 205 435 l 1,65,-1
 200 419 l 1,66,-1
 200 293 l 1,67,-1
 205 278 l 1,68,-1
 220 273 l 1,69,-1
 283 273 l 1,70,-1
 299 278 l 1,71,-1
 310 288 l 1,72,-1
 320 299 l 1,73,-1
 331 309 l 1,74,-1
 341 320 l 1,75,-1
 352 330 l 1,76,-1
 367 336 l 1,77,-1
 383 330 l 1,78,-1
 389 314 l 1,79,-1
 389 293 l 1,80,-1
 383 278 l 1,81,-1
 367 273 l 1,0,-1
158 293 m 1,82,-1
 158 419 l 1,83,-1
 152 435 l 1,84,-1
 136 441 l 1,85,-1
 121 435 l 1,86,-1
 110 425 l 1,87,-1
 100 414 l 1,88,-1
 95 398 l 1,89,-1
 89 383 l 1,90,-1
 79 372 l 1,91,-1
 74 356 l 1,92,-1
 74 335 l 1,93,-1
 79 320 l 1,94,-1
 89 309 l 1,95,-1
 100 299 l 1,96,-1
 115 294 l 1,97,-1
 131 288 l 1,98,-1
 142 278 l 1,99,-1
 152 278 l 1,100,-1
 158 293 l 1,82,-1
EndSplineSet
Validated: 1
EndChar

StartChar: sterling
Encoding: 116 163 99
Width: 505
GlyphClass: 2
Flags: W
LayerCount: 2
Fore
SplineSet
457 78 m 1,0,-1
 452 62 l 1,1,-1
 446 47 l 1,2,-1
 436 36 l 1,3,-1
 425 26 l 1,4,-1
 409 21 l 1,5,-1
 394 15 l 1,6,-1
 383 5 l 1,7,-1
 367 0 l 1,8,-1
 325 0 l 1,9,-1
 310 5 l 1,10,-1
 299 15 l 1,11,-1
 283 21 l 1,12,-1
 268 26 l 1,13,-1
 257 36 l 1,14,-1
 247 47 l 1,15,-1
 242 62 l 1,16,-1
 236 78 l 1,17,-1
 220 84 l 1,18,-1
 205 78 l 1,19,-1
 200 62 l 1,20,-1
 194 47 l 1,21,-1
 184 36 l 1,22,-1
 173 26 l 1,23,-1
 163 15 l 1,24,-1
 152 5 l 1,25,-1
 136 0 l 1,26,-1
 52 0 l 1,27,-1
 37 5 l 1,28,-1
 32 20 l 1,29,-1
 37 36 l 1,30,-1
 52 42 l 1,31,-1
 115 42 l 1,32,-1
 131 47 l 1,33,-1
 137 62 l 1,34,-1
 142 78 l 1,35,-1
 152 89 l 1,36,-1
 163 99 l 1,37,-1
 173 110 l 1,38,-1
 179 125 l 1,39,-1
 179 188 l 1,40,-1
 173 204 l 1,41,-1
 157 210 l 1,42,-1
 115 210 l 1,43,-1
 100 215 l 1,44,-1
 95 230 l 1,45,-1
 100 246 l 1,46,-1
 115 252 l 1,47,-1
 157 252 l 1,48,-1
 173 257 l 1,49,-1
 179 272 l 1,50,-1
 179 440 l 1,51,-1
 184 456 l 1,52,-1
 194 467 l 1,53,-1
 205 477 l 1,54,-1
 220 483 l 1,55,-1
 236 488 l 1,56,-1
 247 498 l 1,57,-1
 262 504 l 1,58,-1
 325 504 l 1,59,-1
 341 498 l 1,60,-1
 352 488 l 1,61,-1
 367 483 l 1,62,-1
 388 483 l 1,63,-1
 404 477 l 1,64,-1
 410 461 l 1,65,-1
 410 440 l 1,66,-1
 404 425 l 1,67,-1
 388 420 l 1,68,-1
 373 425 l 1,69,-1
 362 435 l 1,70,-1
 346 441 l 1,71,-1
 331 446 l 1,72,-1
 320 456 l 1,73,-1
 304 462 l 1,74,-1
 283 462 l 1,75,-1
 268 456 l 1,76,-1
 257 446 l 1,77,-1
 247 435 l 1,78,-1
 236 425 l 1,79,-1
 226 414 l 1,80,-1
 221 398 l 1,81,-1
 221 293 l 1,82,-1
 226 278 l 1,83,-1
 241 273 l 1,84,-1
 325 273 l 1,85,-1
 341 267 l 1,86,-1
 347 251 l 1,87,-1
 341 236 l 1,88,-1
 325 231 l 1,89,-1
 262 231 l 1,90,-1
 247 225 l 1,91,-1
 242 209 l 1,92,-1
 242 167 l 1,93,-1
 247 152 l 1,94,-1
 257 141 l 1,95,-1
 263 125 l 1,96,-1
 268 110 l 1,97,-1
 278 99 l 1,98,-1
 284 83 l 1,99,-1
 289 68 l 1,100,-1
 304 63 l 1,101,-1
 320 57 l 1,102,-1
 331 47 l 1,103,-1
 346 42 l 1,104,-1
 362 47 l 1,105,-1
 373 57 l 1,106,-1
 388 63 l 1,107,-1
 404 68 l 1,108,-1
 410 83 l 1,109,-1
 415 99 l 1,110,-1
 425 110 l 1,111,-1
 431 125 l 1,112,-1
 431 146 l 1,113,-1
 436 162 l 1,114,-1
 451 168 l 1,115,-1
 467 162 l 1,116,-1
 473 146 l 1,117,-1
 473 104 l 1,118,-1
 467 89 l 1,119,-1
 457 78 l 1,0,-1
EndSplineSet
Validated: 1
EndChar

StartChar: logicalnot
Encoding: 117 172 100
Width: 358
GlyphClass: 2
Flags: W
LayerCount: 2
Fore
SplineSet
304 252 m 1,0,-1
 289 257 l 1,1,-1
 284 272 l 1,2,-1
 284 356 l 1,3,-1
 278 372 l 1,4,-1
 262 378 l 1,5,-1
 115 378 l 1,6,-1
 100 372 l 1,7,-1
 89 362 l 1,8,-1
 73 357 l 1,9,-1
 52 357 l 1,10,-1
 37 362 l 1,11,-1
 32 377 l 1,12,-1
 37 393 l 1,13,-1
 47 404 l 1,14,-1
 58 414 l 1,15,-1
 73 420 l 1,16,-1
 304 420 l 1,17,-1
 320 414 l 1,18,-1
 326 398 l 1,19,-1
 326 272 l 1,20,-1
 320 257 l 1,21,-1
 304 252 l 1,0,-1
EndSplineSet
Validated: 1
EndChar

StartChar: plusminus
Encoding: 118 177 101
Width: 316
GlyphClass: 2
Flags: W
LayerCount: 2
Fore
SplineSet
262 105 m 1,0,-1
 52 105 l 1,1,-1
 37 110 l 1,2,-1
 32 125 l 1,3,-1
 37 141 l 1,4,-1
 52 147 l 1,5,-1
 262 147 l 1,6,-1
 278 141 l 1,7,-1
 284 125 l 1,8,-1
 278 110 l 1,9,-1
 262 105 l 1,0,-1
262 357 m 1,10,-1
 199 357 l 1,11,-1
 184 351 l 1,12,-1
 179 335 l 1,13,-1
 179 230 l 1,14,-1
 173 215 l 1,15,-1
 157 210 l 1,16,-1
 142 215 l 1,17,-1
 137 230 l 1,18,-1
 137 335 l 1,19,-1
 131 351 l 1,20,-1
 115 357 l 1,21,-1
 52 357 l 1,22,-1
 37 362 l 1,23,-1
 32 377 l 1,24,-1
 37 393 l 1,25,-1
 52 399 l 1,26,-1
 115 399 l 1,27,-1
 131 404 l 1,28,-1
 137 419 l 1,29,-1
 137 503 l 1,30,-1
 142 519 l 1,31,-1
 157 525 l 1,32,-1
 173 519 l 1,33,-1
 179 503 l 1,34,-1
 179 419 l 1,35,-1
 184 404 l 1,36,-1
 199 399 l 1,37,-1
 262 399 l 1,38,-1
 278 393 l 1,39,-1
 284 377 l 1,40,-1
 278 362 l 1,41,-1
 262 357 l 1,10,-1
EndSplineSet
Validated: 1
EndChar

StartChar: endash
Encoding: 119 8211 102
Width: 295
GlyphClass: 2
Flags: W
LayerCount: 2
Fore
SplineSet
241 126 m 1,0,-1
 52 126 l 1,1,-1
 37 131 l 1,2,-1
 32 146 l 1,3,-1
 37 162 l 1,4,-1
 52 168 l 1,5,-1
 241 168 l 1,6,-1
 257 162 l 1,7,-1
 263 146 l 1,8,-1
 257 131 l 1,9,-1
 241 126 l 1,0,-1
EndSplineSet
Validated: 1
EndChar

StartChar: quoteleft
Encoding: 120 8216 103
Width: 127
GlyphClass: 2
Flags: W
LayerCount: 2
Fore
SplineSet
79 372 m 1,0,-1
 68 362 l 1,1,-1
 52 357 l 1,2,-1
 37 362 l 1,3,-1
 32 377 l 1,4,-1
 37 393 l 1,5,-1
 47 404 l 1,6,-1
 53 419 l 1,7,-1
 53 461 l 1,8,-1
 58 477 l 1,9,-1
 73 483 l 1,10,-1
 89 477 l 1,11,-1
 95 461 l 1,12,-1
 95 398 l 1,13,-1
 89 383 l 1,14,-1
 79 372 l 1,0,-1
EndSplineSet
Validated: 1
EndChar

StartChar: quoteright
Encoding: 121 8217 104
Width: 127
GlyphClass: 2
Flags: W
LayerCount: 2
Fore
SplineSet
79 372 m 1,0,-1
 68 362 l 1,1,-1
 52 357 l 1,2,-1
 37 362 l 1,3,-1
 32 377 l 1,4,-1
 37 393 l 1,5,-1
 47 404 l 1,6,-1
 53 419 l 1,7,-1
 53 461 l 1,8,-1
 58 477 l 1,9,-1
 73 483 l 1,10,-1
 89 477 l 1,11,-1
 95 461 l 1,12,-1
 95 398 l 1,13,-1
 89 383 l 1,14,-1
 79 372 l 1,0,-1
EndSplineSet
Validated: 1
EndChar

StartChar: quotedblleft
Encoding: 122 8220 105
Width: 232
GlyphClass: 2
Flags: W
LayerCount: 2
Fore
SplineSet
184 456 m 1,0,-1
 179 440 l 1,1,-1
 179 419 l 1,2,-1
 173 404 l 1,3,-1
 163 393 l 1,4,-1
 152 383 l 1,5,-1
 136 378 l 1,6,-1
 121 383 l 1,7,-1
 116 398 l 1,8,-1
 116 419 l 1,9,-1
 121 435 l 1,10,-1
 131 446 l 1,11,-1
 137 461 l 1,12,-1
 142 477 l 1,13,-1
 152 488 l 1,14,-1
 163 498 l 1,15,-1
 178 504 l 1,16,-1
 194 498 l 1,17,-1
 200 482 l 1,18,-1
 194 467 l 1,19,-1
 184 456 l 1,0,-1
79 393 m 1,20,-1
 68 383 l 1,21,-1
 52 378 l 1,22,-1
 37 383 l 1,23,-1
 32 398 l 1,24,-1
 32 419 l 1,25,-1
 37 435 l 1,26,-1
 47 446 l 1,27,-1
 53 461 l 1,28,-1
 53 482 l 1,29,-1
 58 498 l 1,30,-1
 73 504 l 1,31,-1
 89 498 l 1,32,-1
 95 482 l 1,33,-1
 95 419 l 1,34,-1
 89 404 l 1,35,-1
 79 393 l 1,20,-1
EndSplineSet
Validated: 1
EndChar

StartChar: quotedblright
Encoding: 123 8221 106
Width: 232
GlyphClass: 2
Flags: W
LayerCount: 2
Fore
SplineSet
184 456 m 1,0,-1
 179 440 l 1,1,-1
 179 419 l 1,2,-1
 173 404 l 1,3,-1
 163 393 l 1,4,-1
 152 383 l 1,5,-1
 136 378 l 1,6,-1
 121 383 l 1,7,-1
 116 398 l 1,8,-1
 116 419 l 1,9,-1
 121 435 l 1,10,-1
 131 446 l 1,11,-1
 137 461 l 1,12,-1
 142 477 l 1,13,-1
 152 488 l 1,14,-1
 163 498 l 1,15,-1
 178 504 l 1,16,-1
 194 498 l 1,17,-1
 200 482 l 1,18,-1
 194 467 l 1,19,-1
 184 456 l 1,0,-1
79 393 m 1,20,-1
 68 383 l 1,21,-1
 52 378 l 1,22,-1
 37 383 l 1,23,-1
 32 398 l 1,24,-1
 32 419 l 1,25,-1
 37 435 l 1,26,-1
 47 446 l 1,27,-1
 53 461 l 1,28,-1
 53 482 l 1,29,-1
 58 498 l 1,30,-1
 73 504 l 1,31,-1
 89 498 l 1,32,-1
 95 482 l 1,33,-1
 95 419 l 1,34,-1
 89 404 l 1,35,-1
 79 393 l 1,20,-1
EndSplineSet
Validated: 1
EndChar

StartChar: Euro
Encoding: 124 8364 107
Width: 568
GlyphClass: 2
Flags: W
LayerCount: 2
Fore
SplineSet
520 99 m 1,0,-1
 515 83 l 1,1,-1
 509 68 l 1,2,-1
 493 63 l 1,3,-1
 478 57 l 1,4,-1
 467 47 l 1,5,-1
 451 42 l 1,6,-1
 436 36 l 1,7,-1
 425 26 l 1,8,-1
 409 21 l 1,9,-1
 394 15 l 1,10,-1
 383 5 l 1,11,-1
 367 0 l 1,12,-1
 352 -6 l 1,13,-1
 347 -22 l 1,14,-1
 341 -37 l 1,15,-1
 325 -42 l 1,16,-1
 310 -37 l 1,17,-1
 305 -22 l 1,18,-1
 299 -6 l 1,19,-1
 283 0 l 1,20,-1
 268 -6 l 1,21,-1
 263 -22 l 1,22,-1
 257 -37 l 1,23,-1
 241 -42 l 1,24,-1
 226 -37 l 1,25,-1
 221 -22 l 1,26,-1
 221 -1 l 1,27,-1
 215 15 l 1,28,-1
 199 21 l 1,29,-1
 178 21 l 1,30,-1
 163 26 l 1,31,-1
 152 36 l 1,32,-1
 142 47 l 1,33,-1
 131 57 l 1,34,-1
 115 63 l 1,35,-1
 100 68 l 1,36,-1
 95 83 l 1,37,-1
 89 99 l 1,38,-1
 79 110 l 1,39,-1
 68 120 l 1,40,-1
 58 131 l 1,41,-1
 53 146 l 1,42,-1
 47 162 l 1,43,-1
 37 173 l 1,44,-1
 32 188 l 1,45,-1
 32 272 l 1,46,-1
 37 288 l 1,47,-1
 47 299 l 1,48,-1
 53 314 l 1,49,-1
 53 356 l 1,50,-1
 58 372 l 1,51,-1
 68 383 l 1,52,-1
 74 398 l 1,53,-1
 79 414 l 1,54,-1
 89 425 l 1,55,-1
 100 435 l 1,56,-1
 110 446 l 1,57,-1
 121 456 l 1,58,-1
 131 467 l 1,59,-1
 142 477 l 1,60,-1
 157 483 l 1,61,-1
 173 488 l 1,62,-1
 184 498 l 1,63,-1
 194 509 l 1,64,-1
 205 519 l 1,65,-1
 215 530 l 1,66,-1
 221 545 l 1,67,-1
 221 587 l 1,68,-1
 226 603 l 1,69,-1
 241 609 l 1,70,-1
 257 603 l 1,71,-1
 263 587 l 1,72,-1
 263 545 l 1,73,-1
 268 530 l 1,74,-1
 283 525 l 1,75,-1
 299 530 l 1,76,-1
 305 545 l 1,77,-1
 305 587 l 1,78,-1
 310 603 l 1,79,-1
 325 609 l 1,80,-1
 341 603 l 1,81,-1
 347 587 l 1,82,-1
 347 524 l 1,83,-1
 352 509 l 1,84,-1
 367 504 l 1,85,-1
 409 504 l 1,86,-1
 425 498 l 1,87,-1
 436 488 l 1,88,-1
 446 477 l 1,89,-1
 457 467 l 1,90,-1
 467 456 l 1,91,-1
 473 440 l 1,92,-1
 473 356 l 1,93,-1
 467 341 l 1,94,-1
 451 336 l 1,95,-1
 436 341 l 1,96,-1
 431 356 l 1,97,-1
 431 419 l 1,98,-1
 425 435 l 1,99,-1
 409 441 l 1,100,-1
 394 446 l 1,101,-1
 383 456 l 1,102,-1
 367 462 l 1,103,-1
 352 456 l 1,104,-1
 347 440 l 1,105,-1
 347 62 l 1,106,-1
 352 47 l 1,107,-1
 362 47 l 1,108,-1
 373 57 l 1,109,-1
 388 63 l 1,110,-1
 404 68 l 1,111,-1
 415 78 l 1,112,-1
 430 84 l 1,113,-1
 446 89 l 1,114,-1
 457 99 l 1,115,-1
 467 110 l 1,116,-1
 473 125 l 1,117,-1
 478 141 l 1,118,-1
 493 147 l 1,119,-1
 514 147 l 1,120,-1
 530 141 l 1,121,-1
 536 125 l 1,122,-1
 530 110 l 1,123,-1
 520 99 l 1,0,-1
305 62 m 1,124,-1
 305 461 l 1,125,-1
 299 477 l 1,126,-1
 283 483 l 1,127,-1
 268 477 l 1,128,-1
 263 461 l 1,129,-1
 263 62 l 1,130,-1
 268 47 l 1,131,-1
 283 42 l 1,132,-1
 299 47 l 1,133,-1
 305 62 l 1,124,-1
221 83 m 1,134,-1
 221 440 l 1,135,-1
 215 456 l 1,136,-1
 205 456 l 1,137,-1
 194 446 l 1,138,-1
 184 435 l 1,139,-1
 173 425 l 1,140,-1
 163 414 l 1,141,-1
 152 404 l 1,142,-1
 142 393 l 1,143,-1
 131 383 l 1,144,-1
 121 372 l 1,145,-1
 110 362 l 1,146,-1
 100 351 l 1,147,-1
 95 335 l 1,148,-1
 95 293 l 1,149,-1
 89 278 l 1,150,-1
 79 267 l 1,151,-1
 74 251 l 1,152,-1
 74 209 l 1,153,-1
 79 194 l 1,154,-1
 89 183 l 1,155,-1
 95 167 l 1,156,-1
 100 152 l 1,157,-1
 110 141 l 1,158,-1
 121 131 l 1,159,-1
 131 120 l 1,160,-1
 142 110 l 1,161,-1
 152 99 l 1,162,-1
 163 89 l 1,163,-1
 173 78 l 1,164,-1
 184 68 l 1,165,-1
 199 63 l 1,166,-1
 215 68 l 1,167,-1
 221 83 l 1,134,-1
EndSplineSet
Validated: 1
EndChar

StartChar: afii57407
Encoding: 125 1567 108
Width: 379
GlyphClass: 2
Flags: W
LayerCount: 2
Fore
SplineSet
54 294 m 1,0,-1
 38 299 l 1,1,-1
 32 314 l 1,2,-1
 32 419 l 1,3,-1
 38 435 l 1,4,-1
 54 441 l 1,5,-1
 69 446 l 1,6,-1
 80 456 l 1,7,-1
 90 467 l 1,8,-1
 101 477 l 1,9,-1
 117 483 l 1,10,-1
 243 483 l 1,11,-1
 258 477 l 1,12,-1
 269 467 l 1,13,-1
 285 462 l 1,14,-1
 300 456 l 1,15,-1
 311 446 l 1,16,-1
 327 441 l 1,17,-1
 342 435 l 1,18,-1
 347 419 l 1,19,-1
 347 398 l 1,20,-1
 342 383 l 1,21,-1
 327 378 l 1,22,-1
 306 378 l 1,23,-1
 290 383 l 1,24,-1
 279 393 l 1,25,-1
 269 404 l 1,26,-1
 258 414 l 1,27,-1
 248 425 l 1,28,-1
 237 435 l 1,29,-1
 222 441 l 1,30,-1
 159 441 l 1,31,-1
 143 435 l 1,32,-1
 132 425 l 1,33,-1
 117 420 l 1,34,-1
 101 414 l 1,35,-1
 90 404 l 1,36,-1
 80 393 l 1,37,-1
 74 377 l 1,38,-1
 74 356 l 1,39,-1
 80 341 l 1,40,-1
 90 330 l 1,41,-1
 101 320 l 1,42,-1
 117 315 l 1,43,-1
 132 309 l 1,44,-1
 143 299 l 1,45,-1
 159 294 l 1,46,-1
 201 294 l 1,47,-1
 216 288 l 1,48,-1
 227 278 l 1,49,-1
 243 273 l 1,50,-1
 258 267 l 1,51,-1
 263 251 l 1,52,-1
 263 167 l 1,53,-1
 258 152 l 1,54,-1
 243 147 l 1,55,-1
 227 152 l 1,56,-1
 221 167 l 1,57,-1
 221 209 l 1,58,-1
 216 225 l 1,59,-1
 201 231 l 1,60,-1
 185 236 l 1,61,-1
 174 246 l 1,62,-1
 159 252 l 1,63,-1
 138 252 l 1,64,-1
 122 257 l 1,65,-1
 111 267 l 1,66,-1
 96 273 l 1,67,-1
 80 278 l 1,68,-1
 69 288 l 1,69,-1
 54 294 l 1,0,-1
216 -6 m 1,70,-1
 206 5 l 1,71,-1
 200 20 l 1,72,-1
 200 41 l 1,73,-1
 206 57 l 1,74,-1
 222 63 l 1,75,-1
 243 63 l 1,76,-1
 258 57 l 1,77,-1
 263 41 l 1,78,-1
 263 -1 l 1,79,-1
 258 -16 l 1,80,-1
 243 -21 l 1,81,-1
 227 -16 l 1,82,-1
 216 -6 l 1,70,-1
EndSplineSet
Validated: 1
EndChar

StartChar: afii57409
Encoding: 126 1569 109
Width: 247
GlyphClass: 2
Flags: W
LayerCount: 2
Fore
SplineSet
228 38 m 1,0,-1
 221 21 l 1,1,-1
 210 9 l 1,2,-1
 188 8 l 1,3,-1
 179 7 l 1,4,-1
 126 -9 l 1,5,-1
 110 -14 l 1,6,-1
 93 -21 l 1,7,-1
 74 -28 l 1,8,-1
 41 -32 l 1,9,-1
 20 -25 l 1,10,-1
 16 -11 l 1,11,-1
 23 6 l 1,12,-1
 36 18 l 1,13,-1
 63 22 l 1,14,-1
 41 81 l 1,15,-1
 41 90 l 1,16,-1
 44 97 l 1,17,-1
 45 106 l 1,18,-1
 44 114 l 1,19,-1
 50 122 l 1,20,-1
 53 129 l 1,21,-1
 61 138 l 1,22,-1
 64 144 l 1,23,-1
 71 150 l 1,24,-1
 78 155 l 1,25,-1
 82 162 l 1,26,-1
 88 167 l 1,27,-1
 117 175 l 1,28,-1
 126 175 l 1,29,-1
 133 172 l 1,30,-1
 141 172 l 1,31,-1
 150 172 l 1,32,-1
 158 169 l 1,33,-1
 165 165 l 1,34,-1
 170 158 l 1,35,-1
 178 131 l 1,36,-1
 171 126 l 1,37,-1
 160 122 l 1,38,-1
 152 122 l 1,39,-1
 144 125 l 1,40,-1
 135 125 l 1,41,-1
 127 125 l 1,42,-1
 120 128 l 1,43,-1
 115 126 l 1,44,-1
 111 120 l 1,45,-1
 104 115 l 1,46,-1
 97 109 l 1,47,-1
 94 102 l 1,48,-1
 90 95 l 1,49,-1
 91 87 l 1,50,-1
 90 82 l 1,51,-1
 87 75 l 1,52,-1
 87 66 l 1,53,-1
 92 53 l 1,54,-1
 97 46 l 1,55,-1
 104 43 l 1,56,-1
 111 40 l 1,57,-1
 118 36 l 1,58,-1
 121 35 l 1,59,-1
 129 38 l 1,60,-1
 147 44 l 1,61,-1
 164 52 l 1,62,-1
 182 58 l 1,63,-1
 185 58 l 1,64,-1
 188 61 l 1,65,-1
 205 64 l 1,66,-1
 215 60 l 1,67,-1
 219 55 l 1,68,-1
 225 53 l 1,69,-1
 228 38 l 1,0,-1
EndSplineSet
Validated: 1
EndChar

StartChar: afii57410
Encoding: 127 1570 110
Width: 253
GlyphClass: 2
Flags: W
LayerCount: 2
Fore
SplineSet
210 428 m 1,0,-1
 207 418 l 1,1,-1
 204 409 l 1,2,-1
 198 402 l 1,3,-1
 192 396 l 1,4,-1
 182 393 l 1,5,-1
 146 393 l 1,6,-1
 137 396 l 1,7,-1
 131 402 l 1,8,-1
 125 409 l 1,9,-1
 119 415 l 1,10,-1
 113 422 l 1,11,-1
 106 428 l 1,12,-1
 101 434 l 1,13,-1
 94 440 l 1,14,-1
 85 444 l 1,15,-1
 73 444 l 1,16,-1
 64 440 l 1,17,-1
 58 434 l 1,18,-1
 52 428 l 1,19,-1
 49 418 l 1,20,-1
 45 409 l 1,21,-1
 36 406 l 1,22,-1
 27 409 l 1,23,-1
 25 418 l 1,24,-1
 25 431 l 1,25,-1
 27 440 l 1,26,-1
 33 447 l 1,27,-1
 40 453 l 1,28,-1
 45 460 l 1,29,-1
 52 466 l 1,30,-1
 61 470 l 1,31,-1
 109 470 l 1,32,-1
 119 466 l 1,33,-1
 125 460 l 1,34,-1
 131 453 l 1,35,-1
 137 447 l 1,36,-1
 143 440 l 1,37,-1
 149 434 l 1,38,-1
 155 428 l 1,39,-1
 161 422 l 1,40,-1
 170 418 l 1,41,-1
 179 422 l 1,42,-1
 183 431 l 1,43,-1
 183 456 l 1,44,-1
 186 466 l 1,45,-1
 195 470 l 1,46,-1
 207 470 l 1,47,-1
 216 466 l 1,48,-1
 219 456 l 1,49,-1
 219 443 l 1,50,-1
 216 434 l 1,51,-1
 210 428 l 1,0,-1
114 115 m 1,52,-1
 103 126 l 1,53,-1
 96 139 l 1,54,-1
 96 333 l 1,55,-1
 103 347 l 1,56,-1
 120 353 l 1,57,-1
 137 347 l 1,58,-1
 143 333 l 1,59,-1
 143 159 l 1,60,-1
 149 145 l 1,61,-1
 160 135 l 1,62,-1
 166 120 l 1,63,-1
 166 -73 l 1,64,-1
 160 -87 l 1,65,-1
 144 -92 l 1,66,-1
 126 -87 l 1,67,-1
 119 -73 l 1,68,-1
 119 101 l 1,69,-1
 114 115 l 1,52,-1
EndSplineSet
Validated: 1
EndChar

StartChar: afii57411
Encoding: 128 1571 111
Width: 253
GlyphClass: 2
Flags: W
LayerCount: 2
Fore
SplineSet
114 115 m 1,0,-1
 103 126 l 1,1,-1
 96 139 l 1,2,-1
 96 333 l 1,3,-1
 103 347 l 1,4,-1
 120 353 l 1,5,-1
 137 347 l 1,6,-1
 143 333 l 1,7,-1
 143 159 l 1,8,-1
 149 145 l 1,9,-1
 160 135 l 1,10,-1
 166 120 l 1,11,-1
 166 -73 l 1,12,-1
 160 -87 l 1,13,-1
 144 -92 l 1,14,-1
 126 -87 l 1,15,-1
 119 -73 l 1,16,-1
 119 101 l 1,17,-1
 114 115 l 1,0,-1
87 492 m 1,18,19
 87 492 87 492 85 484 c 1,20,-1
 85 478 l 1,21,-1
 88 470 l 1,22,-1
 91 465 l 1,23,-1
 95 463 l 1,24,-1
 99 461 l 1,25,-1
 103 458 l 1,26,-1
 105 458 l 1,27,-1
 109 460 l 1,28,-1
 120 464 l 1,29,-1
 130 469 l 1,30,-1
 141 473 l 1,31,-1
 142 473 l 1,32,-1
 144 475 l 1,33,-1
 154 477 l 1,34,-1
 160 474 l 1,35,-1
 162 471 l 1,36,-1
 166 469 l 1,37,-1
 168 460 l 1,38,-1
 164 449 l 1,39,-1
 157 441 l 1,40,-1
 144 440 l 1,41,-1
 139 440 l 1,42,-1
 108 429 l 1,43,-1
 98 425 l 1,44,-1
 88 421 l 1,45,-1
 77 416 l 1,46,-1
 58 414 l 1,47,-1
 45 418 l 1,48,-1
 43 427 l 1,49,-1
 47 439 l 1,50,-1
 55 447 l 1,51,-1
 71 449 l 1,52,-1
 58 488 l 1,53,-1
 58 494 l 1,54,55
 58 494 58 494 60 504 c 1,56,-1
 60 510 l 1,57,-1
 63 515 l 1,58,-1
 65 520 l 1,59,-1
 69 526 l 1,60,-1
 71 530 l 1,61,-1
 75 534 l 1,62,-1
 79 537 l 1,63,-1
 82 541 l 1,64,-1
 85 545 l 1,65,-1
 102 550 l 1,66,-1
 108 550 l 1,67,-1
 112 548 l 1,68,-1
 117 548 l 1,69,-1
 122 548 l 1,70,-1
 126 546 l 1,71,-1
 130 544 l 1,72,-1
 134 539 l 1,73,-1
 138 521 l 1,74,-1
 134 518 l 1,75,-1
 128 515 l 1,76,-1
 123 515 l 1,77,-1
 119 517 l 1,78,-1
 113 517 l 1,79,-1
 108 517 l 1,80,-1
 104 519 l 1,81,-1
 101 518 l 1,82,-1
 99 514 l 1,83,-1
 95 510 l 1,84,-1
 91 507 l 1,85,-1
 89 502 l 1,86,-1
 87 498 l 1,87,-1
 87 492 l 1,18,19
EndSplineSet
Validated: 1
EndChar

StartChar: afii57412
Encoding: 129 1572 112
Width: 394
GlyphClass: 2
Flags: W
LayerCount: 2
Fore
SplineSet
139 -190 m 1,0,-1
 165 -189 l 1,1,-1
 178 -181 l 1,2,-1
 202 -170 l 1,3,-1
 215 -158 l 1,4,-1
 230 -151 l 1,5,-1
 244 -147 l 1,6,-1
 254 -128 l 1,7,-1
 270 -112 l 1,8,-1
 275 -101 l 1,9,-1
 290 -86 l 1,10,-1
 297 -72 l 1,11,-1
 311 -51 l 1,12,-1
 295 -48 l 1,13,-1
 264 -60 l 1,14,-1
 249 -62 l 1,15,-1
 235 -65 l 1,16,-1
 220 -65 l 1,17,-1
 205 -63 l 1,18,-1
 129 -7 l 1,19,-1
 119 4 l 1,20,-1
 115 17 l 1,21,-1
 106 30 l 1,22,-1
 108 54 l 1,23,-1
 111 67 l 1,24,-1
 150 148 l 1,25,-1
 162 157 l 1,26,-1
 174 160 l 1,27,-1
 196 167 l 1,28,-1
 208 176 l 1,29,-1
 223 180 l 1,30,-1
 237 181 l 1,31,-1
 251 185 l 1,32,-1
 265 187 l 1,33,-1
 281 184 l 1,34,-1
 367 128 l 1,35,-1
 377 115 l 1,36,-1
 381 102 l 1,37,-1
 384 89 l 1,38,-1
 380 75 l 1,39,-1
 376 61 l 1,40,-1
 379 48 l 1,41,-1
 375 34 l 1,42,-1
 364 18 l 1,43,-1
 360 5 l 1,44,-1
 362 -9 l 1,45,-1
 365 -24 l 1,46,-1
 364 -36 l 1,47,-1
 359 -54 l 1,48,-1
 345 -87 l 1,49,-1
 339 -98 l 1,50,-1
 321 -138 l 1,51,-1
 302 -152 l 1,52,-1
 294 -163 l 1,53,-1
 283 -171 l 1,54,-1
 281 -181 l 1,55,-1
 270 -191 l 1,56,-1
 258 -205 l 1,57,-1
 235 -216 l 1,58,-1
 201 -225 l 1,59,-1
 180 -232 l 1,60,-1
 148 -238 l 1,61,-1
 134 -234 l 1,62,-1
 91 -230 l 1,63,-1
 77 -225 l 1,64,-1
 63 -219 l 1,65,-1
 52 -208 l 1,66,-1
 49 -191 l 1,67,-1
 55 -184 l 1,68,-1
 60 -170 l 1,69,-1
 72 -158 l 1,70,-1
 88 -157 l 1,71,-1
 100 -168 l 1,72,-1
 110 -187 l 1,73,-1
 139 -190 l 1,0,-1
305 11 m 1,74,-1
 325 41 l 1,75,-1
 328 54 l 1,76,-1
 325 66 l 1,77,-1
 322 78 l 1,78,-1
 320 90 l 1,79,-1
 316 102 l 1,80,-1
 308 113 l 1,81,-1
 292 128 l 1,82,-1
 279 131 l 1,83,-1
 267 130 l 1,84,-1
 254 127 l 1,85,-1
 242 125 l 1,86,-1
 229 122 l 1,87,-1
 218 113 l 1,88,-1
 206 105 l 1,89,-1
 194 102 l 1,90,-1
 183 94 l 1,91,-1
 163 65 l 1,92,-1
 160 52 l 1,93,-1
 161 40 l 1,94,-1
 165 28 l 1,95,-1
 174 18 l 1,96,-1
 204 -0 l 1,97,-1
 218 -4 l 1,98,-1
 231 -9 l 1,99,-1
 244 -12 l 1,100,-1
 258 -15 l 1,101,-1
 269 -8 l 1,102,-1
 281 1 l 1,103,-1
 294 4 l 1,104,-1
 305 11 l 1,74,-1
194 317 m 5,105,106
 192 313 192 313 192 309 c 6,107,-1
 192 303 l 5,108,-1
 195 295 l 5,109,-1
 198 290 l 5,110,-1
 202 288 l 5,111,-1
 206 286 l 5,112,-1
 210 283 l 5,113,-1
 212 283 l 5,114,-1
 216 285 l 5,115,-1
 227 289 l 5,116,-1
 237 294 l 5,117,-1
 248 298 l 5,118,-1
 249 298 l 5,119,-1
 251 300 l 5,120,-1
 261 302 l 5,121,-1
 267 299 l 5,122,-1
 269 296 l 5,123,-1
 273 294 l 5,124,-1
 275 285 l 5,125,-1
 271 274 l 5,126,-1
 264 266 l 5,127,-1
 251 265 l 5,128,-1
 246 265 l 5,129,-1
 215 254 l 5,130,-1
 205 250 l 5,131,-1
 195 246 l 5,132,-1
 184 241 l 5,133,-1
 165 239 l 5,134,-1
 152 243 l 5,135,-1
 150 252 l 5,136,-1
 154 264 l 5,137,-1
 162 272 l 5,138,-1
 178 274 l 5,139,-1
 165 313 l 5,140,-1
 165 319 l 5,141,-1
 166 324 l 5,142,-1
 167 329 l 5,143,-1
 167 335 l 5,144,-1
 170 340 l 5,145,-1
 172 345 l 5,146,-1
 176 351 l 5,147,-1
 178 355 l 5,148,-1
 182 359 l 5,149,-1
 186 362 l 5,150,-1
 189 366 l 5,151,-1
 192 370 l 5,152,-1
 209 375 l 5,153,-1
 215 375 l 5,154,-1
 219 373 l 5,155,-1
 224 373 l 5,156,-1
 229 373 l 5,157,-1
 233 371 l 5,158,-1
 237 369 l 5,159,-1
 241 364 l 5,160,-1
 245 346 l 5,161,-1
 241 343 l 5,162,-1
 235 340 l 5,163,-1
 230 340 l 5,164,-1
 226 342 l 5,165,-1
 220 342 l 5,166,-1
 215 342 l 5,167,-1
 211 344 l 5,168,-1
 208 343 l 5,169,-1
 206 339 l 5,170,-1
 202 335 l 5,171,-1
 198 332 l 5,172,-1
 196 327 l 5,173,-1
 194 323 l 5,174,-1
 194 317 l 5,105,106
EndSplineSet
Validated: 1
EndChar

StartChar: afii57413
Encoding: 130 1573 113
Width: 253
GlyphClass: 2
Flags: W
LayerCount: 2
Fore
SplineSet
102 238 m 1,0,-1
 91 248 l 1,1,-1
 84 262 l 1,2,-1
 84 455 l 1,3,-1
 91 470 l 1,4,-1
 108 475 l 1,5,-1
 125 470 l 1,6,-1
 131 455 l 1,7,-1
 131 281 l 1,8,-1
 137 267 l 1,9,-1
 148 257 l 1,10,-1
 154 242 l 1,11,-1
 154 49 l 1,12,-1
 148 35 l 1,13,-1
 132 31 l 1,14,-1
 114 35 l 1,15,-1
 107 49 l 1,16,-1
 107 223 l 1,17,-1
 102 238 l 1,0,-1
192 -110 m 1,18,-1
 189 -121 l 1,19,-1
 182 -129 l 1,20,-1
 169 -130 l 1,21,-1
 164 -130 l 1,22,-1
 133 -141 l 1,23,-1
 123 -145 l 1,24,-1
 113 -149 l 1,25,-1
 102 -154 l 1,26,-1
 82 -156 l 1,27,-1
 70 -152 l 1,28,-1
 68 -143 l 1,29,-1
 72 -131 l 1,30,-1
 79 -123 l 1,31,-1
 95 -121 l 1,32,-1
 83 -81 l 1,33,-1
 82 -76 l 1,34,-1
 84 -71 l 1,35,-1
 85 -66 l 1,36,-1
 84 -60 l 1,37,-1
 87 -55 l 1,38,-1
 90 -50 l 1,39,-1
 94 -44 l 1,40,-1
 96 -40 l 1,41,-1
 100 -36 l 1,42,-1
 104 -33 l 1,43,-1
 106 -28 l 1,44,-1
 110 -25 l 1,45,-1
 127 -20 l 1,46,-1
 132 -20 l 1,47,-1
 137 -22 l 1,48,-1
 142 -22 l 1,49,-1
 147 -22 l 1,50,-1
 151 -24 l 1,51,-1
 155 -26 l 1,52,-1
 159 -31 l 1,53,-1
 163 -49 l 1,54,-1
 159 -52 l 1,55,-1
 153 -55 l 1,56,-1
 148 -55 l 1,57,-1
 143 -53 l 1,58,-1
 138 -53 l 1,59,-1
 133 -53 l 1,60,-1
 129 -51 l 1,61,-1
 126 -52 l 1,62,-1
 124 -56 l 1,63,-1
 119 -60 l 1,64,-1
 116 -63 l 1,65,-1
 113 -68 l 1,66,-1
 112 -72 l 1,67,-1
 112 -78 l 1,68,-1
 111 -81 l 1,69,-1
 109 -86 l 1,70,-1
 110 -92 l 1,71,-1
 113 -100 l 1,72,-1
 116 -105 l 1,73,-1
 120 -107 l 1,74,-1
 124 -109 l 1,75,-1
 128 -112 l 1,76,-1
 130 -112 l 1,77,-1
 134 -110 l 1,78,-1
 145 -106 l 1,79,-1
 155 -101 l 1,80,-1
 166 -97 l 1,81,-1
 167 -97 l 1,82,-1
 169 -95 l 1,83,-1
 179 -93 l 1,84,-1
 185 -96 l 1,85,-1
 187 -99 l 1,86,-1
 191 -101 l 1,87,-1
 192 -110 l 1,18,-1
EndSplineSet
Validated: 1
EndChar

StartChar: afii57414
Encoding: 131 1574 114
Width: 446
GlyphClass: 2
Flags: W
LayerCount: 2
Fore
SplineSet
286 100 m 1,0,-1
 296 91 l 1,1,-1
 304 83 l 1,2,-1
 314 69 l 1,3,-1
 331 56 l 1,4,-1
 343 48 l 1,5,-1
 353 34 l 1,6,-1
 359 -6 l 1,7,-1
 361 -31 l 1,8,-1
 360 -58 l 1,9,-1
 347 -87 l 1,10,-1
 320 -111 l 1,11,-1
 270 -131 l 1,12,-1
 170 -129 l 1,13,-1
 152 -126 l 1,14,-1
 121 -114 l 1,15,-1
 109 -103 l 1,16,-1
 96 -97 l 1,17,-1
 82 -92 l 1,18,-1
 68 -86 l 1,19,-1
 57 -73 l 1,20,-1
 25 4 l 1,21,-1
 21 16 l 1,22,-1
 23 30 l 1,23,-1
 26 37 l 1,24,-1
 26 47 l 1,25,-1
 28 58 l 1,26,-1
 30 69 l 1,27,-1
 43 78 l 1,28,-1
 60 75 l 1,29,-1
 69 61 l 1,30,-1
 73 40 l 1,31,-1
 68 21 l 1,32,-1
 71 1 l 1,33,-1
 80 -13 l 1,34,-1
 91 -25 l 1,35,-1
 105 -32 l 1,36,-1
 116 -43 l 1,37,-1
 126 -61 l 1,38,-1
 140 -67 l 1,39,-1
 154 -72 l 1,40,-1
 167 -78 l 1,41,-1
 267 -80 l 1,42,-1
 284 -72 l 1,43,-1
 314 -50 l 1,44,-1
 314 -34 l 1,45,-1
 314 -21 l 1,46,-1
 314 -11 l 1,47,-1
 309 2 l 1,48,-1
 299 16 l 1,49,-1
 287 25 l 1,50,-1
 278 38 l 1,51,-1
 269 52 l 1,52,-1
 256 60 l 1,53,-1
 248 74 l 1,54,-1
 246 77 l 1,55,-1
 243 83 l 1,56,-1
 238 99 l 1,57,-1
 239 114 l 1,58,-1
 242 128 l 1,59,-1
 244 143 l 1,60,-1
 247 158 l 1,61,-1
 256 171 l 1,62,-1
 298 204 l 1,63,-1
 315 209 l 1,64,-1
 330 207 l 1,65,-1
 344 204 l 1,66,-1
 360 202 l 1,67,-1
 379 195 l 1,68,-1
 406 182 l 1,69,-1
 409 172 l 1,70,-1
 409 160 l 1,71,-1
 396 150 l 1,72,-1
 381 152 l 1,73,-1
 366 155 l 1,74,-1
 351 156 l 1,75,-1
 337 160 l 1,76,-1
 322 161 l 1,77,-1
 306 157 l 1,78,-1
 297 149 l 1,79,-1
 289 136 l 1,80,-1
 286 121 l 1,81,-1
 284 106 l 1,82,-1
 286 100 l 1,0,-1
59 196 m 1,83,84
 58 192 58 192 56 188 c 1,85,-1
 56 182 l 1,86,-1
 59 174 l 1,87,-1
 62 169 l 1,88,-1
 67 167 l 1,89,-1
 71 165 l 1,90,-1
 75 162 l 1,91,-1
 76 162 l 1,92,-1
 81 164 l 1,93,-1
 92 168 l 1,94,-1
 102 173 l 1,95,-1
 113 177 l 1,96,-1
 114 177 l 1,97,-1
 116 179 l 1,98,-1
 126 181 l 1,99,-1
 132 178 l 1,100,-1
 134 175 l 1,101,-1
 138 173 l 1,102,-1
 139 164 l 1,103,-1
 136 153 l 1,104,-1
 129 145 l 1,105,-1
 116 144 l 1,106,-1
 111 143 l 1,107,-1
 79 133 l 1,108,-1
 70 129 l 1,109,-1
 60 125 l 1,110,-1
 49 120 l 1,111,-1
 29 118 l 1,112,-1
 17 122 l 1,113,-1
 15 131 l 1,114,-1
 18 143 l 1,115,-1
 26 151 l 1,116,-1
 42 153 l 1,117,-1
 29 192 l 1,118,-1
 29 198 l 1,119,120
 30 204 30 204 31 208 c 1,121,-1
 31 214 l 1,122,-1
 34 219 l 1,123,-1
 36 224 l 1,124,-1
 41 229 l 1,125,-1
 43 234 l 1,126,-1
 47 238 l 1,127,-1
 51 241 l 1,128,-1
 53 245 l 1,129,-1
 57 249 l 1,130,-1
 74 254 l 1,131,-1
 79 254 l 1,132,-1
 83 252 l 1,133,-1
 88 252 l 1,134,-1
 94 252 l 1,135,-1
 98 250 l 1,136,-1
 102 248 l 1,137,-1
 106 243 l 1,138,-1
 110 225 l 1,139,-1
 106 222 l 1,140,-1
 99 219 l 1,141,-1
 94 219 l 1,142,-1
 90 221 l 1,143,-1
 85 221 l 1,144,-1
 80 221 l 1,145,-1
 76 223 l 1,146,-1
 73 222 l 1,147,-1
 70 218 l 1,148,-1
 66 214 l 1,149,-1
 62 211 l 1,150,-1
 60 206 l 1,151,-1
 58 202 l 1,152,-1
 59 196 l 1,83,84
EndSplineSet
Validated: 1
EndChar

StartChar: afii57415
Encoding: 132 1575 115
Width: 253
GlyphClass: 2
Flags: W
LayerCount: 2
Fore
SplineSet
114 115 m 1,0,-1
 103 126 l 1,1,-1
 96 139 l 1,2,-1
 96 333 l 1,3,-1
 103 347 l 1,4,-1
 120 353 l 1,5,-1
 137 347 l 1,6,-1
 143 333 l 1,7,-1
 143 159 l 1,8,-1
 149 145 l 1,9,-1
 160 135 l 1,10,-1
 166 120 l 1,11,-1
 166 -73 l 1,12,-1
 160 -87 l 1,13,-1
 144 -92 l 1,14,-1
 126 -87 l 1,15,-1
 119 -73 l 1,16,-1
 119 101 l 1,17,-1
 114 115 l 1,0,-1
EndSplineSet
Validated: 1
EndChar

StartChar: afii57416
Encoding: 133 1576 116
Width: 548
GlyphClass: 2
Flags: W
LayerCount: 2
Fore
SplineSet
408 -40 m 1,0,1
 363 -45 363 -45 345 -46 c 0,2,3
 323 -47 323 -47 295 -53 c 0,4,5
 279 -56 279 -56 277 -57 c 0,6,7
 274 -60 274 -60 240 -60 c 2,8,-1
 193 -60 l 1,9,10
 164 -67 164 -67 142 -67 c 0,11,12
 133 -67 133 -67 125 -66 c 0,13,14
 109 -56 109 -56 109 -57 c 1,15,-1
 93 -51 l 1,16,-1
 83 -41 l 1,17,-1
 68 -35 l 1,18,-1
 52 -29 l 1,19,-1
 41 -19 l 1,20,-1
 32 -7 l 1,21,-1
 26 8 l 1,22,-1
 22 24 l 1,23,-1
 12 35 l 1,24,-1
 6 50 l 1,25,-1
 8 92 l 1,26,-1
 14 108 l 1,27,-1
 25 119 l 1,28,-1
 30 134 l 1,29,-1
 37 149 l 1,30,-1
 53 155 l 1,31,-1
 68 148 l 1,32,-1
 72 132 l 1,33,-1
 71 90 l 1,34,-1
 65 76 l 1,35,-1
 55 65 l 1,36,-1
 55 55 l 1,37,-1
 64 44 l 1,38,-1
 75 33 l 1,39,-1
 85 22 l 1,40,-1
 95 12 l 1,41,-1
 105 0 l 1,42,-1
 116 -10 l 1,43,-1
 131 -16 l 1,44,45
 188 -13 188 -13 225 -13 c 0,46,47
 285 -12 285 -12 328 -4 c 0,48,49
 347 0 347 0 367 3 c 1,50,-1
 382 8 l 1,51,-1
 394 18 l 1,52,-1
 410 23 l 1,53,-1
 425 28 l 1,54,-1
 436 37 l 1,55,-1
 447 48 l 1,56,-1
 452 63 l 1,57,-1
 453 105 l 1,58,-1
 460 120 l 1,59,-1
 476 126 l 1,60,-1
 497 125 l 1,61,-1
 512 119 l 1,62,-1
 516 103 l 1,63,-1
 515 61 l 1,64,-1
 509 46 l 1,65,-1
 499 35 l 1,66,-1
 493 19 l 1,67,-1
 487 5 l 1,68,-1
 472 0 l 1,69,-1
 456 -5 l 1,70,-1
 445 -15 l 1,71,-1
 434 -26 l 1,72,-1
 423 -35 l 1,73,-1
 408 -40 l 1,0,1
261 -166 m 1,74,-1
 254 -173 l 1,75,-1
 244 -176 l 1,76,-1
 231 -176 l 1,77,-1
 221 -173 l 1,78,-1
 218 -163 l 1,79,-1
 218 -135 l 1,80,-1
 221 -124 l 1,81,-1
 231 -120 l 1,82,-1
 244 -120 l 1,83,-1
 254 -124 l 1,84,-1
 261 -131 l 1,85,-1
 267 -138 l 1,86,-1
 271 -149 l 1,87,-1
 267 -159 l 1,88,-1
 261 -166 l 1,74,-1
EndSplineSet
Validated: 1
EndChar

StartChar: afii57418
Encoding: 134 1578 117
Width: 548
GlyphClass: 2
Flags: W
LayerCount: 2
Fore
SplineSet
408 -40 m 1,0,1
 363 -45 363 -45 345 -46 c 0,2,3
 323 -47 323 -47 295 -53 c 0,4,5
 279 -56 279 -56 277 -57 c 0,6,7
 274 -60 274 -60 240 -60 c 2,8,-1
 193 -60 l 1,9,10
 164 -67 164 -67 142 -67 c 0,11,12
 133 -67 133 -67 125 -66 c 0,13,14
 109 -56 109 -56 109 -57 c 1,15,-1
 93 -51 l 1,16,-1
 83 -41 l 1,17,-1
 68 -35 l 1,18,-1
 52 -29 l 1,19,-1
 41 -19 l 1,20,-1
 32 -7 l 1,21,-1
 26 8 l 1,22,-1
 22 24 l 1,23,-1
 12 35 l 1,24,-1
 6 50 l 1,25,-1
 8 92 l 1,26,-1
 14 108 l 1,27,-1
 25 119 l 1,28,-1
 30 134 l 1,29,-1
 37 149 l 1,30,-1
 53 155 l 1,31,-1
 68 148 l 1,32,-1
 72 132 l 1,33,-1
 71 90 l 1,34,-1
 65 76 l 1,35,-1
 55 65 l 1,36,-1
 55 55 l 1,37,-1
 64 44 l 1,38,-1
 75 33 l 1,39,-1
 85 22 l 1,40,-1
 95 12 l 1,41,-1
 105 0 l 1,42,-1
 116 -10 l 1,43,-1
 131 -16 l 1,44,45
 188 -13 188 -13 225 -13 c 0,46,47
 285 -12 285 -12 328 -4 c 0,48,49
 347 0 347 0 367 3 c 1,50,-1
 382 8 l 1,51,-1
 394 18 l 1,52,-1
 410 23 l 1,53,-1
 425 28 l 1,54,-1
 436 37 l 1,55,-1
 447 48 l 1,56,-1
 452 63 l 1,57,-1
 453 105 l 1,58,-1
 460 120 l 1,59,-1
 476 126 l 1,60,-1
 497 125 l 1,61,-1
 512 119 l 1,62,-1
 516 103 l 1,63,-1
 515 61 l 1,64,-1
 509 46 l 1,65,-1
 499 35 l 1,66,-1
 493 19 l 1,67,-1
 487 5 l 1,68,-1
 472 0 l 1,69,-1
 456 -5 l 1,70,-1
 445 -15 l 1,71,-1
 434 -26 l 1,72,-1
 423 -35 l 1,73,-1
 408 -40 l 1,0,1
297 201 m 1,74,-1
 286 206 l 1,75,-1
 164 209 l 1,76,-1
 154 215 l 1,77,-1
 150 231 l 1,78,-1
 154 246 l 1,79,-1
 165 251 l 1,80,-1
 317 247 l 1,81,-1
 328 242 l 1,82,-1
 336 232 l 1,83,-1
 343 221 l 1,84,-1
 347 206 l 1,85,-1
 343 190 l 1,86,-1
 331 184 l 1,87,-1
 316 184 l 1,88,-1
 305 191 l 1,89,-1
 297 201 l 1,74,-1
EndSplineSet
Validated: 1
EndChar

StartChar: afii57417
Encoding: 135 1577 118
Width: 291
GlyphClass: 2
Flags: W
LayerCount: 2
Fore
SplineSet
250 -78 m 1,0,-1
 242 -86 l 1,1,-1
 235 -94 l 1,2,-1
 227 -102 l 1,3,-1
 220 -111 l 1,4,-1
 212 -118 l 1,5,-1
 200 -122 l 1,6,-1
 123 -122 l 1,7,-1
 112 -118 l 1,8,-1
 104 -111 l 1,9,-1
 93 -106 l 1,10,-1
 82 -102 l 1,11,-1
 74 -94 l 1,12,-1
 66 -86 l 1,13,-1
 58 -78 l 1,14,-1
 51 -70 l 1,15,-1
 43 -62 l 1,16,-1
 36 -54 l 1,17,-1
 32 -42 l 1,18,-1
 32 23 l 1,19,-1
 36 35 l 1,20,-1
 43 43 l 1,21,-1
 47 55 l 1,22,-1
 51 67 l 1,23,-1
 58 76 l 1,24,-1
 66 83 l 1,25,-1
 74 92 l 1,26,-1
 82 100 l 1,27,-1
 89 108 l 1,28,-1
 97 116 l 1,29,-1
 108 120 l 1,30,-1
 200 120 l 1,31,-1
 212 116 l 1,32,-1
 220 108 l 1,33,-1
 227 100 l 1,34,-1
 237 91 l 1,35,-1
 244 83 l 1,36,-1
 251 70 l 1,37,-1
 258 67 l 1,38,-1
 262 55 l 1,39,-1
 262 -58 l 1,40,-1
 258 -70 l 1,41,-1
 250 -78 l 1,0,-1
221 -12 m 1,42,-1
 220 30 l 1,43,-1
 215 43 l 1,44,-1
 205 58 l 1,45,-1
 196 66 l 1,46,-1
 183 71 l 1,47,-1
 171 76 l 1,48,-1
 162 84 l 1,49,-1
 154 84 l 1,50,-1
 145 83 l 1,51,-1
 132 78 l 1,52,-1
 124 70 l 1,53,-1
 111 66 l 1,54,-1
 103 58 l 1,55,-1
 94 49 l 1,56,-1
 86 40 l 1,57,-1
 82 27 l 1,58,-1
 76 19 l 1,59,-1
 76 12 l 1,60,-1
 78 3 l 1,61,-1
 74 -10 l 1,62,-1
 78 -23 l 1,63,-1
 81 -38 l 1,64,-1
 84 -45 l 1,65,-1
 88 -50 l 1,66,-1
 97 -59 l 1,67,-1
 106 -64 l 1,68,-1
 118 -69 l 1,69,-1
 131 -74 l 1,70,-1
 139 -76 l 1,71,-1
 151 -80 l 1,72,-1
 164 -81 l 1,73,-1
 177 -77 l 1,74,-1
 186 -75 l 1,75,-1
 198 -70 l 1,76,-1
 201 -58 l 1,77,-1
 208 -51 l 1,78,-1
 212 -37 l 1,79,-1
 216 -24 l 1,80,-1
 221 -12 l 1,42,-1
89 233 m 1,81,-1
 101 230 l 1,82,-1
 220 254 l 1,83,-1
 232 250 l 1,84,-1
 239 235 l 1,85,-1
 238 220 l 1,86,-1
 229 213 l 1,87,-1
 80 183 l 1,88,-1
 68 186 l 1,89,-1
 58 194 l 1,90,-1
 48 203 l 1,91,-1
 41 217 l 1,92,-1
 42 233 l 1,93,-1
 52 241 l 1,94,-1
 67 244 l 1,95,-1
 79 241 l 1,96,-1
 89 233 l 1,81,-1
EndSplineSet
Validated: 1
EndChar

StartChar: afii57419
Encoding: 136 1579 119
Width: 548
GlyphClass: 2
Flags: W
LayerCount: 2
Fore
SplineSet
408 -40 m 1,0,1
 363 -45 363 -45 345 -46 c 0,2,3
 323 -47 323 -47 295 -53 c 0,4,5
 279 -56 279 -56 277 -57 c 0,6,7
 274 -60 274 -60 240 -60 c 2,8,-1
 193 -60 l 1,9,10
 164 -67 164 -67 142 -67 c 0,11,12
 133 -67 133 -67 125 -66 c 0,13,14
 109 -56 109 -56 109 -57 c 1,15,-1
 93 -51 l 1,16,-1
 83 -41 l 1,17,-1
 68 -35 l 1,18,-1
 52 -29 l 1,19,-1
 41 -19 l 1,20,-1
 32 -7 l 1,21,-1
 26 8 l 1,22,-1
 22 24 l 1,23,-1
 12 35 l 1,24,-1
 6 50 l 1,25,-1
 8 92 l 1,26,-1
 14 108 l 1,27,-1
 25 119 l 1,28,-1
 30 134 l 1,29,-1
 37 149 l 1,30,-1
 53 155 l 1,31,-1
 68 148 l 1,32,-1
 72 132 l 1,33,-1
 71 90 l 1,34,-1
 65 76 l 1,35,-1
 55 65 l 1,36,-1
 55 55 l 1,37,-1
 64 44 l 1,38,-1
 75 33 l 1,39,-1
 85 22 l 1,40,-1
 95 12 l 1,41,-1
 105 0 l 1,42,-1
 116 -10 l 1,43,-1
 131 -16 l 1,44,45
 188 -13 188 -13 225 -13 c 0,46,47
 285 -12 285 -12 328 -4 c 0,48,49
 347 0 347 0 367 3 c 1,50,-1
 382 8 l 1,51,-1
 394 18 l 1,52,-1
 410 23 l 1,53,-1
 425 28 l 1,54,-1
 436 37 l 1,55,-1
 447 48 l 1,56,-1
 452 63 l 1,57,-1
 453 105 l 1,58,-1
 460 120 l 1,59,-1
 476 126 l 1,60,-1
 497 125 l 1,61,-1
 512 119 l 1,62,-1
 516 103 l 1,63,-1
 515 61 l 1,64,-1
 509 46 l 1,65,-1
 499 35 l 1,66,-1
 493 19 l 1,67,-1
 487 5 l 1,68,-1
 472 0 l 1,69,-1
 456 -5 l 1,70,-1
 445 -15 l 1,71,-1
 434 -26 l 1,72,-1
 423 -35 l 1,73,-1
 408 -40 l 1,0,1
319 160 m 1,74,-1
 304 160 l 1,75,-1
 294 164 l 1,76,-1
 286 171 l 1,77,-1
 279 179 l 1,78,-1
 275 190 l 1,79,-1
 275 206 l 1,80,-1
 271 217 l 1,81,-1
 264 226 l 1,82,-1
 256 233 l 1,83,-1
 249 233 l 1,84,-1
 245 221 l 1,85,-1
 241 210 l 1,86,-1
 234 202 l 1,87,-1
 230 190 l 1,88,-1
 226 179 l 1,89,-1
 219 171 l 1,90,-1
 211 164 l 1,91,-1
 200 160 l 1,92,-1
 185 160 l 1,93,-1
 174 164 l 1,94,-1
 171 175 l 1,95,-1
 174 187 l 1,96,-1
 181 195 l 1,97,-1
 189 202 l 1,98,-1
 196 210 l 1,99,-1
 201 221 l 1,100,-1
 204 233 l 1,101,-1
 211 241 l 1,102,-1
 219 248 l 1,103,-1
 226 256 l 1,104,-1
 230 267 l 1,105,-1
 234 279 l 1,106,-1
 245 284 l 1,107,-1
 259 284 l 1,108,-1
 271 279 l 1,109,-1
 279 272 l 1,110,-1
 286 264 l 1,111,-1
 290 252 l 1,112,-1
 294 241 l 1,113,-1
 301 233 l 1,114,-1
 305 221 l 1,115,-1
 308 210 l 1,116,-1
 316 202 l 1,117,-1
 320 190 l 1,118,-1
 323 179 l 1,119,-1
 330 171 l 1,120,-1
 330 164 l 1,121,-1
 319 160 l 1,74,-1
EndSplineSet
Validated: 1
EndChar

StartChar: afii57421
Encoding: 137 1581 120
Width: 442
GlyphClass: 2
Flags: W
LayerCount: 2
Fore
SplineSet
198 244 m 1,0,-1
 346 138 l 1,1,-1
 356 125 l 1,2,-1
 361 105 l 1,3,-1
 360 88 l 1,4,-1
 346 78 l 1,5,-1
 330 80 l 1,6,-1
 317 86 l 1,7,-1
 300 87 l 1,8,-1
 284 89 l 1,9,-1
 271 96 l 1,10,-1
 254 96 l 1,11,-1
 170 65 l 1,12,-1
 157 56 l 1,13,-1
 149 43 l 1,14,-1
 135 33 l 1,15,-1
 122 25 l 1,16,-1
 114 12 l 1,17,-1
 108 -1 l 1,18,-1
 107 -17 l 1,19,-1
 105 -34 l 1,20,-1
 98 -47 l 1,21,-1
 98 -63 l 1,22,-1
 100 -84 l 1,23,-1
 109 -98 l 1,24,-1
 122 -106 l 1,25,-1
 131 -119 l 1,26,-1
 140 -133 l 1,27,-1
 153 -141 l 1,28,-1
 163 -154 l 1,29,-1
 172 -168 l 1,30,-1
 188 -170 l 1,31,-1
 204 -171 l 1,32,-1
 218 -177 l 1,33,-1
 234 -179 l 1,34,-1
 261 -174 l 1,35,-1
 275 -164 l 1,36,-1
 283 -151 l 1,37,-1
 296 -142 l 1,38,-1
 310 -132 l 1,39,-1
 318 -120 l 1,40,-1
 319 -104 l 1,41,-1
 325 -91 l 1,42,-1
 333 -78 l 1,43,-1
 340 -65 l 1,44,-1
 342 -48 l 1,45,-1
 342 -32 l 1,46,-1
 356 -23 l 1,47,-1
 372 -24 l 1,48,-1
 382 -37 l 1,49,-1
 388 -57 l 1,50,-1
 386 -74 l 1,51,-1
 379 -87 l 1,52,-1
 371 -100 l 1,53,-1
 365 -113 l 1,54,-1
 364 -129 l 1,55,-1
 356 -142 l 1,56,-1
 349 -155 l 1,57,-1
 341 -167 l 1,58,-1
 327 -177 l 1,59,-1
 314 -186 l 1,60,-1
 306 -199 l 1,61,-1
 292 -209 l 1,62,-1
 204 -231 l 1,63,-1
 188 -229 l 1,64,-1
 175 -222 l 1,65,-1
 163 -214 l 1,66,-1
 149 -207 l 1,67,-1
 137 -200 l 1,68,-1
 123 -193 l 1,69,-1
 111 -185 l 1,70,-1
 102 -171 l 1,71,-1
 96 -150 l 1,72,-1
 87 -138 l 1,73,-1
 74 -130 l 1,74,-1
 65 -115 l 1,75,-1
 44 -64 l 1,76,-1
 45 -48 l 1,77,-1
 49 -21 l 1,78,-1
 62 8 l 1,79,-1
 68 21 l 1,80,-1
 76 34 l 1,81,-1
 83 47 l 1,82,-1
 91 60 l 1,83,-1
 118 78 l 1,84,-1
 126 91 l 1,85,-1
 139 100 l 1,86,-1
 262 141 l 1,87,-1
 187 189 l 1,88,-1
 171 194 l 1,89,-1
 156 193 l 1,90,-1
 141 198 l 1,91,-1
 124 211 l 1,92,-1
 101 220 l 1,93,-1
 90 211 l 1,94,-1
 94 191 l 1,95,-1
 96 181 l 1,96,-1
 99 166 l 1,97,-1
 100 151 l 1,98,-1
 95 138 l 1,99,-1
 75 132 l 1,100,-1
 61 142 l 1,101,-1
 52 156 l 1,102,-1
 49 171 l 1,103,-1
 48 185 l 1,104,-1
 47 195 l 1,105,-1
 46 210 l 1,106,-1
 44 224 l 1,107,-1
 42 239 l 1,108,-1
 40 254 l 1,109,-1
 39 269 l 1,110,-1
 43 284 l 1,111,-1
 58 293 l 1,112,-1
 74 288 l 1,113,-1
 152 253 l 1,114,-1
 167 248 l 1,115,-1
 182 249 l 1,116,-1
 198 244 l 1,0,-1
EndSplineSet
Validated: 1
EndChar

StartChar: afii57420
Encoding: 138 1580 121
Width: 442
GlyphClass: 2
Flags: W
LayerCount: 2
Fore
SplineSet
198 244 m 1,0,-1
 346 138 l 1,1,-1
 356 125 l 1,2,-1
 361 105 l 1,3,-1
 360 88 l 1,4,-1
 346 78 l 1,5,-1
 330 80 l 1,6,-1
 317 86 l 1,7,-1
 300 87 l 1,8,-1
 284 89 l 1,9,-1
 271 96 l 1,10,-1
 254 96 l 1,11,-1
 170 65 l 1,12,-1
 157 56 l 1,13,-1
 149 43 l 1,14,-1
 135 33 l 1,15,-1
 122 25 l 1,16,-1
 114 12 l 1,17,-1
 108 -1 l 1,18,-1
 107 -17 l 1,19,-1
 105 -34 l 1,20,-1
 98 -47 l 1,21,-1
 98 -63 l 1,22,-1
 100 -84 l 1,23,-1
 109 -98 l 1,24,-1
 122 -106 l 1,25,-1
 131 -119 l 1,26,-1
 140 -133 l 1,27,-1
 153 -141 l 1,28,-1
 163 -154 l 1,29,-1
 172 -168 l 1,30,-1
 188 -170 l 1,31,-1
 204 -171 l 1,32,-1
 218 -177 l 1,33,-1
 234 -179 l 1,34,-1
 261 -174 l 1,35,-1
 275 -164 l 1,36,-1
 283 -151 l 1,37,-1
 296 -142 l 1,38,-1
 310 -132 l 1,39,-1
 318 -120 l 1,40,-1
 319 -104 l 1,41,-1
 325 -91 l 1,42,-1
 333 -78 l 1,43,-1
 340 -65 l 1,44,-1
 342 -48 l 1,45,-1
 342 -32 l 1,46,-1
 356 -23 l 1,47,-1
 372 -24 l 1,48,-1
 382 -37 l 1,49,-1
 388 -57 l 1,50,-1
 386 -74 l 1,51,-1
 379 -87 l 1,52,-1
 371 -100 l 1,53,-1
 365 -113 l 1,54,-1
 364 -129 l 1,55,-1
 356 -142 l 1,56,-1
 349 -155 l 1,57,-1
 341 -167 l 1,58,-1
 327 -177 l 1,59,-1
 314 -186 l 1,60,-1
 306 -199 l 1,61,-1
 292 -209 l 1,62,-1
 204 -231 l 1,63,-1
 188 -229 l 1,64,-1
 175 -222 l 1,65,-1
 163 -214 l 1,66,-1
 149 -207 l 1,67,-1
 137 -200 l 1,68,-1
 123 -193 l 1,69,-1
 111 -185 l 1,70,-1
 102 -171 l 1,71,-1
 96 -150 l 1,72,-1
 87 -138 l 1,73,-1
 74 -130 l 1,74,-1
 65 -115 l 1,75,-1
 44 -64 l 1,76,-1
 45 -48 l 1,77,-1
 49 -21 l 1,78,-1
 62 8 l 1,79,-1
 68 21 l 1,80,-1
 76 34 l 1,81,-1
 83 47 l 1,82,-1
 91 60 l 1,83,-1
 118 78 l 1,84,-1
 126 91 l 1,85,-1
 139 100 l 1,86,-1
 262 141 l 1,87,-1
 187 189 l 1,88,-1
 171 194 l 1,89,-1
 156 193 l 1,90,-1
 141 198 l 1,91,-1
 124 211 l 1,92,-1
 101 220 l 1,93,-1
 90 211 l 1,94,-1
 94 191 l 1,95,-1
 96 181 l 1,96,-1
 99 166 l 1,97,-1
 100 151 l 1,98,-1
 95 138 l 1,99,-1
 75 132 l 1,100,-1
 61 142 l 1,101,-1
 52 156 l 1,102,-1
 49 171 l 1,103,-1
 48 185 l 1,104,-1
 47 195 l 1,105,-1
 46 210 l 1,106,-1
 44 224 l 1,107,-1
 42 239 l 1,108,-1
 40 254 l 1,109,-1
 39 269 l 1,110,-1
 43 284 l 1,111,-1
 58 293 l 1,112,-1
 74 288 l 1,113,-1
 152 253 l 1,114,-1
 167 248 l 1,115,-1
 182 249 l 1,116,-1
 198 244 l 1,0,-1
243 -63 m 1,117,-1
 236 -70 l 1,118,-1
 226 -73 l 1,119,-1
 213 -73 l 1,120,-1
 204 -70 l 1,121,-1
 200 -60 l 1,122,-1
 200 -32 l 1,123,-1
 204 -21 l 1,124,-1
 213 -17 l 1,125,-1
 226 -17 l 1,126,-1
 236 -21 l 1,127,-1
 243 -28 l 1,128,-1
 249 -35 l 1,129,-1
 253 -46 l 1,130,-1
 249 -56 l 1,131,-1
 243 -63 l 1,117,-1
EndSplineSet
Validated: 1
EndChar

StartChar: afii57422
Encoding: 139 1582 122
Width: 442
GlyphClass: 2
Flags: W
LayerCount: 2
Fore
SplineSet
198 244 m 1,0,-1
 346 138 l 1,1,-1
 356 125 l 1,2,-1
 361 105 l 1,3,-1
 360 88 l 1,4,-1
 346 78 l 1,5,-1
 330 80 l 1,6,-1
 317 86 l 1,7,-1
 300 87 l 1,8,-1
 284 89 l 1,9,-1
 271 96 l 1,10,-1
 254 96 l 1,11,-1
 170 65 l 1,12,-1
 157 56 l 1,13,-1
 149 43 l 1,14,-1
 135 33 l 1,15,-1
 122 25 l 1,16,-1
 114 12 l 1,17,-1
 108 -1 l 1,18,-1
 107 -17 l 1,19,-1
 105 -34 l 1,20,-1
 98 -47 l 1,21,-1
 98 -63 l 1,22,-1
 100 -84 l 1,23,-1
 109 -98 l 1,24,-1
 122 -106 l 1,25,-1
 131 -119 l 1,26,-1
 140 -133 l 1,27,-1
 153 -141 l 1,28,-1
 163 -154 l 1,29,-1
 172 -168 l 1,30,-1
 188 -170 l 1,31,-1
 204 -171 l 1,32,-1
 218 -177 l 1,33,-1
 234 -179 l 1,34,-1
 261 -174 l 1,35,-1
 275 -164 l 1,36,-1
 283 -151 l 1,37,-1
 296 -142 l 1,38,-1
 310 -132 l 1,39,-1
 318 -120 l 1,40,-1
 319 -104 l 1,41,-1
 325 -91 l 1,42,-1
 333 -78 l 1,43,-1
 340 -65 l 1,44,-1
 342 -48 l 1,45,-1
 342 -32 l 1,46,-1
 356 -23 l 1,47,-1
 372 -24 l 1,48,-1
 382 -37 l 1,49,-1
 388 -57 l 1,50,-1
 386 -74 l 1,51,-1
 379 -87 l 1,52,-1
 371 -100 l 1,53,-1
 365 -113 l 1,54,-1
 364 -129 l 1,55,-1
 356 -142 l 1,56,-1
 349 -155 l 1,57,-1
 341 -167 l 1,58,-1
 327 -177 l 1,59,-1
 314 -186 l 1,60,-1
 306 -199 l 1,61,-1
 292 -209 l 1,62,-1
 204 -231 l 1,63,-1
 188 -229 l 1,64,-1
 175 -222 l 1,65,-1
 163 -214 l 1,66,-1
 149 -207 l 1,67,-1
 137 -200 l 1,68,-1
 123 -193 l 1,69,-1
 111 -185 l 1,70,-1
 102 -171 l 1,71,-1
 96 -150 l 1,72,-1
 87 -138 l 1,73,-1
 74 -130 l 1,74,-1
 65 -115 l 1,75,-1
 44 -64 l 1,76,-1
 45 -48 l 1,77,-1
 49 -21 l 1,78,-1
 62 8 l 1,79,-1
 68 21 l 1,80,-1
 76 34 l 1,81,-1
 83 47 l 1,82,-1
 91 60 l 1,83,-1
 118 78 l 1,84,-1
 126 91 l 1,85,-1
 139 100 l 1,86,-1
 262 141 l 1,87,-1
 187 189 l 1,88,-1
 171 194 l 1,89,-1
 156 193 l 1,90,-1
 141 198 l 1,91,-1
 124 211 l 1,92,-1
 101 220 l 1,93,-1
 90 211 l 1,94,-1
 94 191 l 1,95,-1
 96 181 l 1,96,-1
 99 166 l 1,97,-1
 100 151 l 1,98,-1
 95 138 l 1,99,-1
 75 132 l 1,100,-1
 61 142 l 1,101,-1
 52 156 l 1,102,-1
 49 171 l 1,103,-1
 48 185 l 1,104,-1
 47 195 l 1,105,-1
 46 210 l 1,106,-1
 44 224 l 1,107,-1
 42 239 l 1,108,-1
 40 254 l 1,109,-1
 39 269 l 1,110,-1
 43 284 l 1,111,-1
 58 293 l 1,112,-1
 74 288 l 1,113,-1
 152 253 l 1,114,-1
 167 248 l 1,115,-1
 182 249 l 1,116,-1
 198 244 l 1,0,-1
241 327 m 1,117,-1
 234 320 l 1,118,-1
 224 317 l 1,119,-1
 211 317 l 1,120,-1
 202 320 l 1,121,-1
 198 330 l 1,122,-1
 198 358 l 1,123,-1
 202 369 l 1,124,-1
 211 373 l 1,125,-1
 224 373 l 1,126,-1
 234 369 l 1,127,-1
 241 362 l 1,128,-1
 247 355 l 1,129,-1
 251 344 l 1,130,-1
 247 334 l 1,131,-1
 241 327 l 1,117,-1
EndSplineSet
Validated: 1
EndChar

StartChar: afii57423
Encoding: 140 1583 123
Width: 303
GlyphClass: 2
Flags: W
LayerCount: 2
Fore
SplineSet
254 -46 m 1,0,-1
 247 -56 l 1,1,-1
 234 -63 l 1,2,-1
 227 -68 l 1,3,-1
 219 -73 l 1,4,-1
 203 -73 l 1,5,-1
 187 -74 l 1,6,-1
 173 -80 l 1,7,-1
 156 -80 l 1,8,-1
 140 -81 l 1,9,-1
 127 -87 l 1,10,-1
 110 -87 l 1,11,-1
 94 -88 l 1,12,-1
 80 -94 l 1,13,-1
 63 -94 l 1,14,-1
 43 -88 l 1,15,-1
 31 -79 l 1,16,-1
 20 -62 l 1,17,-1
 23 -46 l 1,18,-1
 42 -37 l 1,19,-1
 59 -37 l 1,20,-1
 69 -33 l 1,21,-1
 86 -29 l 1,22,-1
 100 -32 l 1,23,-1
 116 -26 l 1,24,-1
 135 -26 l 1,25,-1
 168 -28 l 1,26,-1
 181 -24 l 1,27,-1
 192 -18 l 1,28,-1
 195 -8 l 1,29,-1
 193 -1 l 1,30,-1
 187 12 l 1,31,-1
 182 21 l 1,32,-1
 169 35 l 1,33,-1
 163 44 l 1,34,-1
 149 60 l 1,35,-1
 143 66 l 1,36,-1
 131 75 l 1,37,-1
 121 85 l 1,38,-1
 109 94 l 1,39,-1
 103 103 l 1,40,-1
 91 112 l 1,41,-1
 80 122 l 1,42,-1
 74 137 l 1,43,-1
 64 148 l 1,44,-1
 50 157 l 1,45,-1
 35 161 l 1,46,-1
 29 175 l 1,47,-1
 39 193 l 1,48,-1
 54 200 l 1,49,-1
 69 197 l 1,50,-1
 83 192 l 1,51,-1
 95 183 l 1,52,-1
 106 173 l 1,53,-1
 117 164 l 1,54,-1
 128 154 l 1,55,-1
 137 142 l 1,56,-1
 150 128 l 1,57,-1
 161 118 l 1,58,-1
 172 109 l 1,59,-1
 183 99 l 1,60,-1
 191 90 l 1,61,-1
 202 80 l 1,62,-1
 209 69 l 1,63,-1
 219 55 l 1,64,-1
 233 36 l 1,65,-1
 241 25 l 1,66,-1
 243 16 l 1,67,-1
 249 4 l 1,68,-1
 253 -14 l 1,69,-1
 258 -30 l 1,70,-1
 256 -39 l 1,71,-1
 254 -46 l 1,0,-1
EndSplineSet
Validated: 1
EndChar

StartChar: afii57424
Encoding: 141 1584 124
Width: 303
GlyphClass: 2
Flags: W
LayerCount: 2
Fore
SplineSet
254 -46 m 1,0,-1
 247 -56 l 1,1,-1
 234 -63 l 1,2,-1
 227 -68 l 1,3,-1
 219 -73 l 1,4,-1
 203 -73 l 1,5,-1
 187 -74 l 1,6,-1
 173 -80 l 1,7,-1
 156 -80 l 1,8,-1
 140 -81 l 1,9,-1
 127 -87 l 1,10,-1
 110 -87 l 1,11,-1
 94 -88 l 1,12,-1
 80 -94 l 1,13,-1
 63 -94 l 1,14,-1
 43 -88 l 1,15,-1
 31 -79 l 1,16,-1
 20 -62 l 1,17,-1
 23 -46 l 1,18,-1
 42 -37 l 1,19,-1
 59 -37 l 1,20,-1
 69 -33 l 1,21,-1
 86 -29 l 1,22,-1
 100 -32 l 1,23,-1
 116 -26 l 1,24,-1
 135 -26 l 1,25,-1
 168 -28 l 1,26,-1
 181 -24 l 1,27,-1
 192 -18 l 1,28,-1
 195 -8 l 1,29,-1
 193 -1 l 1,30,-1
 187 12 l 1,31,-1
 182 21 l 1,32,-1
 169 35 l 1,33,-1
 163 44 l 1,34,-1
 149 60 l 1,35,-1
 143 66 l 1,36,-1
 131 75 l 1,37,-1
 121 85 l 1,38,-1
 109 94 l 1,39,-1
 103 103 l 1,40,-1
 91 112 l 1,41,-1
 80 122 l 1,42,-1
 74 137 l 1,43,-1
 64 148 l 1,44,-1
 50 157 l 1,45,-1
 35 161 l 1,46,-1
 29 175 l 1,47,-1
 39 193 l 1,48,-1
 54 200 l 1,49,-1
 69 197 l 1,50,-1
 83 192 l 1,51,-1
 95 183 l 1,52,-1
 106 173 l 1,53,-1
 117 164 l 1,54,-1
 128 154 l 1,55,-1
 137 142 l 1,56,-1
 150 128 l 1,57,-1
 161 118 l 1,58,-1
 172 109 l 1,59,-1
 183 99 l 1,60,-1
 191 90 l 1,61,-1
 202 80 l 1,62,-1
 209 69 l 1,63,-1
 219 55 l 1,64,-1
 233 36 l 1,65,-1
 241 25 l 1,66,-1
 243 16 l 1,67,-1
 249 4 l 1,68,-1
 253 -14 l 1,69,-1
 258 -30 l 1,70,-1
 256 -39 l 1,71,-1
 254 -46 l 1,0,-1
92 282 m 1,72,-1
 84 275 l 1,73,-1
 72 271 l 1,74,-1
 57 271 l 1,75,-1
 47 275 l 1,76,-1
 43 286 l 1,77,-1
 43 317 l 1,78,-1
 47 329 l 1,79,-1
 57 333 l 1,80,-1
 72 333 l 1,81,-1
 84 329 l 1,82,-1
 92 321 l 1,83,-1
 99 313 l 1,84,-1
 103 301 l 1,85,-1
 99 290 l 1,86,-1
 92 282 l 1,72,-1
EndSplineSet
Validated: 1
EndChar

StartChar: afii57425
Encoding: 142 1585 125
Width: 263
GlyphClass: 2
Flags: W
LayerCount: 2
Fore
SplineSet
224 105 m 1,0,-1
 233 91 l 1,1,-1
 234 76 l 1,2,-1
 234 61 l 1,3,-1
 235 46 l 1,4,-1
 235 31 l 1,5,-1
 236 17 l 1,6,-1
 236 2 l 1,7,-1
 238 -13 l 1,8,-1
 238 -28 l 1,9,-1
 232 -43 l 1,10,-1
 218 -58 l 1,11,-1
 210 -74 l 1,12,-1
 210 -88 l 1,13,-1
 205 -104 l 1,14,-1
 157 -159 l 1,15,-1
 145 -170 l 1,16,-1
 140 -184 l 1,17,-1
 129 -196 l 1,18,-1
 91 -215 l 1,19,-1
 74 -216 l 1,20,-1
 60 -212 l 1,21,-1
 44 -214 l 1,22,-1
 25 -224 l 1,23,-1
 8 -225 l 1,24,-1
 -6 -221 l 1,25,-1
 -22 -223 l 1,26,-1
 -39 -225 l 1,27,-1
 -51 -213 l 1,28,-1
 -52 -197 l 1,29,-1
 -40 -186 l 1,30,-1
 -21 -176 l 1,31,-1
 -6 -174 l 1,32,-1
 9 -178 l 1,33,-1
 26 -177 l 1,34,-1
 45 -167 l 1,35,-1
 60 -165 l 1,36,-1
 74 -169 l 1,37,-1
 92 -168 l 1,38,-1
 102 -156 l 1,39,-1
 108 -142 l 1,40,-1
 120 -130 l 1,41,-1
 160 -91 l 1,42,-1
 165 -75 l 1,43,-1
 165 -61 l 1,44,-1
 172 -45 l 1,45,-1
 178 -30 l 1,46,-1
 178 -15 l 1,47,-1
 185 0 l 1,48,-1
 191 15 l 1,49,-1
 191 30 l 1,50,-1
 190 44 l 1,51,-1
 182 59 l 1,52,-1
 175 74 l 1,53,-1
 173 88 l 1,54,-1
 175 107 l 1,55,-1
 188 118 l 1,56,-1
 209 121 l 1,57,-1
 224 105 l 1,0,-1
EndSplineSet
Validated: 1
EndChar

StartChar: afii57426
Encoding: 143 1586 126
Width: 255
GlyphClass: 2
Flags: W
LayerCount: 2
Fore
SplineSet
216 105 m 1,0,-1
 225 91 l 1,1,-1
 226 76 l 1,2,-1
 226 61 l 1,3,-1
 227 46 l 1,4,-1
 227 31 l 1,5,-1
 228 17 l 1,6,-1
 228 2 l 1,7,-1
 230 -13 l 1,8,-1
 230 -28 l 1,9,-1
 224 -43 l 1,10,-1
 210 -58 l 1,11,-1
 202 -74 l 1,12,-1
 202 -88 l 1,13,-1
 197 -104 l 1,14,-1
 149 -159 l 1,15,-1
 137 -170 l 1,16,-1
 132 -184 l 1,17,-1
 121 -196 l 1,18,-1
 83 -215 l 1,19,-1
 66 -216 l 1,20,-1
 52 -212 l 1,21,-1
 36 -214 l 1,22,-1
 17 -224 l 1,23,-1
 0 -225 l 1,24,-1
 -14 -221 l 1,25,-1
 -30 -223 l 1,26,-1
 -47 -225 l 1,27,-1
 -59 -213 l 1,28,-1
 -60 -197 l 1,29,-1
 -48 -186 l 1,30,-1
 -29 -176 l 1,31,-1
 -14 -174 l 1,32,-1
 1 -178 l 1,33,-1
 18 -177 l 1,34,-1
 37 -167 l 1,35,-1
 52 -165 l 1,36,-1
 66 -169 l 1,37,-1
 84 -168 l 1,38,-1
 94 -156 l 1,39,-1
 100 -142 l 1,40,-1
 112 -130 l 1,41,-1
 152 -91 l 1,42,-1
 157 -75 l 1,43,-1
 157 -61 l 1,44,-1
 164 -45 l 1,45,-1
 170 -30 l 1,46,-1
 170 -15 l 1,47,-1
 177 0 l 1,48,-1
 183 15 l 1,49,-1
 183 30 l 1,50,-1
 182 44 l 1,51,-1
 174 59 l 1,52,-1
 167 74 l 1,53,-1
 165 88 l 1,54,-1
 167 107 l 1,55,-1
 180 118 l 1,56,-1
 201 121 l 1,57,-1
 216 105 l 1,0,-1
172 206 m 1,58,-1
 164 198 l 1,59,-1
 151 194 l 1,60,-1
 135 194 l 1,61,-1
 124 198 l 1,62,-1
 120 210 l 1,63,-1
 120 242 l 1,64,-1
 124 254 l 1,65,-1
 135 259 l 1,66,-1
 151 259 l 1,67,-1
 164 254 l 1,68,-1
 172 247 l 1,69,-1
 180 238 l 1,70,-1
 184 226 l 1,71,-1
 180 214 l 1,72,-1
 172 206 l 1,58,-1
EndSplineSet
Validated: 1
EndChar

